%TF.GenerationSoftware,KiCad,Pcbnew,9.0.6*%
%TF.CreationDate,2025-12-05T21:30:17-05:00*%
%TF.ProjectId,PicoMIDIcontroller,5069636f-4d49-4444-9963-6f6e74726f6c,rev?*%
%TF.SameCoordinates,Original*%
%TF.FileFunction,Legend,Bot*%
%TF.FilePolarity,Positive*%
%FSLAX46Y46*%
G04 Gerber Fmt 4.6, Leading zero omitted, Abs format (unit mm)*
G04 Created by KiCad (PCBNEW 9.0.6) date 2025-12-05 21:30:17*
%MOMM*%
%LPD*%
G01*
G04 APERTURE LIST*
G04 Aperture macros list*
%AMRoundRect*
0 Rectangle with rounded corners*
0 $1 Rounding radius*
0 $2 $3 $4 $5 $6 $7 $8 $9 X,Y pos of 4 corners*
0 Add a 4 corners polygon primitive as box body*
4,1,4,$2,$3,$4,$5,$6,$7,$8,$9,$2,$3,0*
0 Add four circle primitives for the rounded corners*
1,1,$1+$1,$2,$3*
1,1,$1+$1,$4,$5*
1,1,$1+$1,$6,$7*
1,1,$1+$1,$8,$9*
0 Add four rect primitives between the rounded corners*
20,1,$1+$1,$2,$3,$4,$5,0*
20,1,$1+$1,$4,$5,$6,$7,0*
20,1,$1+$1,$6,$7,$8,$9,0*
20,1,$1+$1,$8,$9,$2,$3,0*%
%AMFreePoly0*
4,1,37,0.800000,0.796148,0.878414,0.796148,1.032228,0.765552,1.177117,0.705537,1.307515,0.618408,1.418408,0.507515,1.505537,0.377117,1.565552,0.232228,1.596148,0.078414,1.596148,-0.078414,1.565552,-0.232228,1.505537,-0.377117,1.418408,-0.507515,1.307515,-0.618408,1.177117,-0.705537,1.032228,-0.765552,0.878414,-0.796148,0.800000,-0.796148,0.800000,-0.800000,-1.400000,-0.800000,
-1.403843,-0.796157,-1.439018,-0.796157,-1.511114,-0.766294,-1.566294,-0.711114,-1.596157,-0.639018,-1.596157,-0.603843,-1.600000,-0.600000,-1.600000,0.600000,-1.596157,0.603843,-1.596157,0.639018,-1.566294,0.711114,-1.511114,0.766294,-1.439018,0.796157,-1.403843,0.796157,-1.400000,0.800000,0.800000,0.800000,0.800000,0.796148,0.800000,0.796148,$1*%
%AMFreePoly1*
4,1,37,1.403843,0.796157,1.439018,0.796157,1.511114,0.766294,1.566294,0.711114,1.596157,0.639018,1.596157,0.603843,1.600000,0.600000,1.600000,-0.600000,1.596157,-0.603843,1.596157,-0.639018,1.566294,-0.711114,1.511114,-0.766294,1.439018,-0.796157,1.403843,-0.796157,1.400000,-0.800000,-0.800000,-0.800000,-0.800000,-0.796148,-0.878414,-0.796148,-1.032228,-0.765552,-1.177117,-0.705537,
-1.307515,-0.618408,-1.418408,-0.507515,-1.505537,-0.377117,-1.565552,-0.232228,-1.596148,-0.078414,-1.596148,0.078414,-1.565552,0.232228,-1.505537,0.377117,-1.418408,0.507515,-1.307515,0.618408,-1.177117,0.705537,-1.032228,0.765552,-0.878414,0.796148,-0.800000,0.796148,-0.800000,0.800000,1.400000,0.800000,1.403843,0.796157,1.403843,0.796157,$1*%
%AMFreePoly2*
4,1,37,0.603843,0.796157,0.639018,0.796157,0.711114,0.766294,0.766294,0.711114,0.796157,0.639018,0.796157,0.603843,0.800000,0.600000,0.800000,-0.600000,0.796157,-0.603843,0.796157,-0.639018,0.766294,-0.711114,0.711114,-0.766294,0.639018,-0.796157,0.603843,-0.796157,0.600000,-0.800000,0.000000,-0.800000,0.000000,-0.796148,-0.078414,-0.796148,-0.232228,-0.765552,-0.377117,-0.705537,
-0.507515,-0.618408,-0.618408,-0.507515,-0.705537,-0.377117,-0.765552,-0.232228,-0.796148,-0.078414,-0.796148,0.078414,-0.765552,0.232228,-0.705537,0.377117,-0.618408,0.507515,-0.507515,0.618408,-0.377117,0.705537,-0.232228,0.765552,-0.078414,0.796148,0.000000,0.796148,0.000000,0.800000,0.600000,0.800000,0.603843,0.796157,0.603843,0.796157,$1*%
%AMFreePoly3*
4,1,37,0.000000,0.796148,0.078414,0.796148,0.232228,0.765552,0.377117,0.705537,0.507515,0.618408,0.618408,0.507515,0.705537,0.377117,0.765552,0.232228,0.796148,0.078414,0.796148,-0.078414,0.765552,-0.232228,0.705537,-0.377117,0.618408,-0.507515,0.507515,-0.618408,0.377117,-0.705537,0.232228,-0.765552,0.078414,-0.796148,0.000000,-0.796148,0.000000,-0.800000,-0.600000,-0.800000,
-0.603843,-0.796157,-0.639018,-0.796157,-0.711114,-0.766294,-0.766294,-0.711114,-0.796157,-0.639018,-0.796157,-0.603843,-0.800000,-0.600000,-0.800000,0.600000,-0.796157,0.603843,-0.796157,0.639018,-0.766294,0.711114,-0.711114,0.766294,-0.639018,0.796157,-0.603843,0.796157,-0.600000,0.800000,0.000000,0.800000,0.000000,0.796148,0.000000,0.796148,$1*%
G04 Aperture macros list end*
%ADD10C,0.150000*%
%ADD11C,0.120000*%
%ADD12R,2.000000X2.000000*%
%ADD13C,2.000000*%
%ADD14R,2.500000X1.200000*%
%ADD15C,1.600000*%
%ADD16C,3.200000*%
%ADD17RoundRect,0.237500X-0.237500X0.250000X-0.237500X-0.250000X0.237500X-0.250000X0.237500X0.250000X0*%
%ADD18RoundRect,0.150000X-0.587500X-0.150000X0.587500X-0.150000X0.587500X0.150000X-0.587500X0.150000X0*%
%ADD19RoundRect,0.237500X0.237500X-0.300000X0.237500X0.300000X-0.237500X0.300000X-0.237500X-0.300000X0*%
%ADD20RoundRect,0.237500X-0.237500X0.300000X-0.237500X-0.300000X0.237500X-0.300000X0.237500X0.300000X0*%
%ADD21RoundRect,0.120000X-0.780000X-0.480000X0.780000X-0.480000X0.780000X0.480000X-0.780000X0.480000X0*%
%ADD22R,1.700000X1.700000*%
%ADD23C,1.700000*%
%ADD24RoundRect,0.100000X0.100000X-0.850000X0.100000X0.850000X-0.100000X0.850000X-0.100000X-0.850000X0*%
%ADD25RoundRect,0.100000X-0.100000X0.850000X-0.100000X-0.850000X0.100000X-0.850000X0.100000X0.850000X0*%
%ADD26C,2.200000*%
%ADD27C,1.850000*%
%ADD28FreePoly0,180.000000*%
%ADD29RoundRect,0.200000X0.600000X0.600000X-0.600000X0.600000X-0.600000X-0.600000X0.600000X-0.600000X0*%
%ADD30RoundRect,0.800000X0.800000X0.000010X-0.800000X0.000010X-0.800000X-0.000010X0.800000X-0.000010X0*%
%ADD31FreePoly1,180.000000*%
%ADD32FreePoly2,180.000000*%
%ADD33FreePoly3,180.000000*%
G04 APERTURE END LIST*
D10*
X99154819Y-50516666D02*
X99869104Y-50516666D01*
X99869104Y-50516666D02*
X100011961Y-50469047D01*
X100011961Y-50469047D02*
X100107200Y-50373809D01*
X100107200Y-50373809D02*
X100154819Y-50230952D01*
X100154819Y-50230952D02*
X100154819Y-50135714D01*
X99250057Y-50945238D02*
X99202438Y-50992857D01*
X99202438Y-50992857D02*
X99154819Y-51088095D01*
X99154819Y-51088095D02*
X99154819Y-51326190D01*
X99154819Y-51326190D02*
X99202438Y-51421428D01*
X99202438Y-51421428D02*
X99250057Y-51469047D01*
X99250057Y-51469047D02*
X99345295Y-51516666D01*
X99345295Y-51516666D02*
X99440533Y-51516666D01*
X99440533Y-51516666D02*
X99583390Y-51469047D01*
X99583390Y-51469047D02*
X100154819Y-50897619D01*
X100154819Y-50897619D02*
X100154819Y-51516666D01*
X112549819Y-57595833D02*
X112073628Y-57262500D01*
X112549819Y-57024405D02*
X111549819Y-57024405D01*
X111549819Y-57024405D02*
X111549819Y-57405357D01*
X111549819Y-57405357D02*
X111597438Y-57500595D01*
X111597438Y-57500595D02*
X111645057Y-57548214D01*
X111645057Y-57548214D02*
X111740295Y-57595833D01*
X111740295Y-57595833D02*
X111883152Y-57595833D01*
X111883152Y-57595833D02*
X111978390Y-57548214D01*
X111978390Y-57548214D02*
X112026009Y-57500595D01*
X112026009Y-57500595D02*
X112073628Y-57405357D01*
X112073628Y-57405357D02*
X112073628Y-57024405D01*
X111549819Y-57929167D02*
X111549819Y-58548214D01*
X111549819Y-58548214D02*
X111930771Y-58214881D01*
X111930771Y-58214881D02*
X111930771Y-58357738D01*
X111930771Y-58357738D02*
X111978390Y-58452976D01*
X111978390Y-58452976D02*
X112026009Y-58500595D01*
X112026009Y-58500595D02*
X112121247Y-58548214D01*
X112121247Y-58548214D02*
X112359342Y-58548214D01*
X112359342Y-58548214D02*
X112454580Y-58500595D01*
X112454580Y-58500595D02*
X112502200Y-58452976D01*
X112502200Y-58452976D02*
X112549819Y-58357738D01*
X112549819Y-58357738D02*
X112549819Y-58072024D01*
X112549819Y-58072024D02*
X112502200Y-57976786D01*
X112502200Y-57976786D02*
X112454580Y-57929167D01*
X100899819Y-63670833D02*
X100423628Y-63337500D01*
X100899819Y-63099405D02*
X99899819Y-63099405D01*
X99899819Y-63099405D02*
X99899819Y-63480357D01*
X99899819Y-63480357D02*
X99947438Y-63575595D01*
X99947438Y-63575595D02*
X99995057Y-63623214D01*
X99995057Y-63623214D02*
X100090295Y-63670833D01*
X100090295Y-63670833D02*
X100233152Y-63670833D01*
X100233152Y-63670833D02*
X100328390Y-63623214D01*
X100328390Y-63623214D02*
X100376009Y-63575595D01*
X100376009Y-63575595D02*
X100423628Y-63480357D01*
X100423628Y-63480357D02*
X100423628Y-63099405D01*
X99995057Y-64051786D02*
X99947438Y-64099405D01*
X99947438Y-64099405D02*
X99899819Y-64194643D01*
X99899819Y-64194643D02*
X99899819Y-64432738D01*
X99899819Y-64432738D02*
X99947438Y-64527976D01*
X99947438Y-64527976D02*
X99995057Y-64575595D01*
X99995057Y-64575595D02*
X100090295Y-64623214D01*
X100090295Y-64623214D02*
X100185533Y-64623214D01*
X100185533Y-64623214D02*
X100328390Y-64575595D01*
X100328390Y-64575595D02*
X100899819Y-64004167D01*
X100899819Y-64004167D02*
X100899819Y-64623214D01*
X107476785Y-66979819D02*
X107476785Y-65979819D01*
X107476785Y-65979819D02*
X107238690Y-65979819D01*
X107238690Y-65979819D02*
X107095833Y-66027438D01*
X107095833Y-66027438D02*
X107000595Y-66122676D01*
X107000595Y-66122676D02*
X106952976Y-66217914D01*
X106952976Y-66217914D02*
X106905357Y-66408390D01*
X106905357Y-66408390D02*
X106905357Y-66551247D01*
X106905357Y-66551247D02*
X106952976Y-66741723D01*
X106952976Y-66741723D02*
X107000595Y-66836961D01*
X107000595Y-66836961D02*
X107095833Y-66932200D01*
X107095833Y-66932200D02*
X107238690Y-66979819D01*
X107238690Y-66979819D02*
X107476785Y-66979819D01*
X105952976Y-66979819D02*
X106524404Y-66979819D01*
X106238690Y-66979819D02*
X106238690Y-65979819D01*
X106238690Y-65979819D02*
X106333928Y-66122676D01*
X106333928Y-66122676D02*
X106429166Y-66217914D01*
X106429166Y-66217914D02*
X106524404Y-66265533D01*
X105476785Y-66979819D02*
X105286309Y-66979819D01*
X105286309Y-66979819D02*
X105191071Y-66932200D01*
X105191071Y-66932200D02*
X105143452Y-66884580D01*
X105143452Y-66884580D02*
X105048214Y-66741723D01*
X105048214Y-66741723D02*
X105000595Y-66551247D01*
X105000595Y-66551247D02*
X105000595Y-66170295D01*
X105000595Y-66170295D02*
X105048214Y-66075057D01*
X105048214Y-66075057D02*
X105095833Y-66027438D01*
X105095833Y-66027438D02*
X105191071Y-65979819D01*
X105191071Y-65979819D02*
X105381547Y-65979819D01*
X105381547Y-65979819D02*
X105476785Y-66027438D01*
X105476785Y-66027438D02*
X105524404Y-66075057D01*
X105524404Y-66075057D02*
X105572023Y-66170295D01*
X105572023Y-66170295D02*
X105572023Y-66408390D01*
X105572023Y-66408390D02*
X105524404Y-66503628D01*
X105524404Y-66503628D02*
X105476785Y-66551247D01*
X105476785Y-66551247D02*
X105381547Y-66598866D01*
X105381547Y-66598866D02*
X105191071Y-66598866D01*
X105191071Y-66598866D02*
X105095833Y-66551247D01*
X105095833Y-66551247D02*
X105048214Y-66503628D01*
X105048214Y-66503628D02*
X105000595Y-66408390D01*
X99089580Y-104382142D02*
X99137200Y-104334523D01*
X99137200Y-104334523D02*
X99184819Y-104191666D01*
X99184819Y-104191666D02*
X99184819Y-104096428D01*
X99184819Y-104096428D02*
X99137200Y-103953571D01*
X99137200Y-103953571D02*
X99041961Y-103858333D01*
X99041961Y-103858333D02*
X98946723Y-103810714D01*
X98946723Y-103810714D02*
X98756247Y-103763095D01*
X98756247Y-103763095D02*
X98613390Y-103763095D01*
X98613390Y-103763095D02*
X98422914Y-103810714D01*
X98422914Y-103810714D02*
X98327676Y-103858333D01*
X98327676Y-103858333D02*
X98232438Y-103953571D01*
X98232438Y-103953571D02*
X98184819Y-104096428D01*
X98184819Y-104096428D02*
X98184819Y-104191666D01*
X98184819Y-104191666D02*
X98232438Y-104334523D01*
X98232438Y-104334523D02*
X98280057Y-104382142D01*
X98280057Y-104763095D02*
X98232438Y-104810714D01*
X98232438Y-104810714D02*
X98184819Y-104905952D01*
X98184819Y-104905952D02*
X98184819Y-105144047D01*
X98184819Y-105144047D02*
X98232438Y-105239285D01*
X98232438Y-105239285D02*
X98280057Y-105286904D01*
X98280057Y-105286904D02*
X98375295Y-105334523D01*
X98375295Y-105334523D02*
X98470533Y-105334523D01*
X98470533Y-105334523D02*
X98613390Y-105286904D01*
X98613390Y-105286904D02*
X99184819Y-104715476D01*
X99184819Y-104715476D02*
X99184819Y-105334523D01*
X98184819Y-105953571D02*
X98184819Y-106048809D01*
X98184819Y-106048809D02*
X98232438Y-106144047D01*
X98232438Y-106144047D02*
X98280057Y-106191666D01*
X98280057Y-106191666D02*
X98375295Y-106239285D01*
X98375295Y-106239285D02*
X98565771Y-106286904D01*
X98565771Y-106286904D02*
X98803866Y-106286904D01*
X98803866Y-106286904D02*
X98994342Y-106239285D01*
X98994342Y-106239285D02*
X99089580Y-106191666D01*
X99089580Y-106191666D02*
X99137200Y-106144047D01*
X99137200Y-106144047D02*
X99184819Y-106048809D01*
X99184819Y-106048809D02*
X99184819Y-105953571D01*
X99184819Y-105953571D02*
X99137200Y-105858333D01*
X99137200Y-105858333D02*
X99089580Y-105810714D01*
X99089580Y-105810714D02*
X98994342Y-105763095D01*
X98994342Y-105763095D02*
X98803866Y-105715476D01*
X98803866Y-105715476D02*
X98565771Y-105715476D01*
X98565771Y-105715476D02*
X98375295Y-105763095D01*
X98375295Y-105763095D02*
X98280057Y-105810714D01*
X98280057Y-105810714D02*
X98232438Y-105858333D01*
X98232438Y-105858333D02*
X98184819Y-105953571D01*
X75914580Y-104557142D02*
X75962200Y-104509523D01*
X75962200Y-104509523D02*
X76009819Y-104366666D01*
X76009819Y-104366666D02*
X76009819Y-104271428D01*
X76009819Y-104271428D02*
X75962200Y-104128571D01*
X75962200Y-104128571D02*
X75866961Y-104033333D01*
X75866961Y-104033333D02*
X75771723Y-103985714D01*
X75771723Y-103985714D02*
X75581247Y-103938095D01*
X75581247Y-103938095D02*
X75438390Y-103938095D01*
X75438390Y-103938095D02*
X75247914Y-103985714D01*
X75247914Y-103985714D02*
X75152676Y-104033333D01*
X75152676Y-104033333D02*
X75057438Y-104128571D01*
X75057438Y-104128571D02*
X75009819Y-104271428D01*
X75009819Y-104271428D02*
X75009819Y-104366666D01*
X75009819Y-104366666D02*
X75057438Y-104509523D01*
X75057438Y-104509523D02*
X75105057Y-104557142D01*
X76009819Y-105509523D02*
X76009819Y-104938095D01*
X76009819Y-105223809D02*
X75009819Y-105223809D01*
X75009819Y-105223809D02*
X75152676Y-105128571D01*
X75152676Y-105128571D02*
X75247914Y-105033333D01*
X75247914Y-105033333D02*
X75295533Y-104938095D01*
X76009819Y-105985714D02*
X76009819Y-106176190D01*
X76009819Y-106176190D02*
X75962200Y-106271428D01*
X75962200Y-106271428D02*
X75914580Y-106319047D01*
X75914580Y-106319047D02*
X75771723Y-106414285D01*
X75771723Y-106414285D02*
X75581247Y-106461904D01*
X75581247Y-106461904D02*
X75200295Y-106461904D01*
X75200295Y-106461904D02*
X75105057Y-106414285D01*
X75105057Y-106414285D02*
X75057438Y-106366666D01*
X75057438Y-106366666D02*
X75009819Y-106271428D01*
X75009819Y-106271428D02*
X75009819Y-106080952D01*
X75009819Y-106080952D02*
X75057438Y-105985714D01*
X75057438Y-105985714D02*
X75105057Y-105938095D01*
X75105057Y-105938095D02*
X75200295Y-105890476D01*
X75200295Y-105890476D02*
X75438390Y-105890476D01*
X75438390Y-105890476D02*
X75533628Y-105938095D01*
X75533628Y-105938095D02*
X75581247Y-105985714D01*
X75581247Y-105985714D02*
X75628866Y-106080952D01*
X75628866Y-106080952D02*
X75628866Y-106271428D01*
X75628866Y-106271428D02*
X75581247Y-106366666D01*
X75581247Y-106366666D02*
X75533628Y-106414285D01*
X75533628Y-106414285D02*
X75438390Y-106461904D01*
X52989580Y-104682142D02*
X53037200Y-104634523D01*
X53037200Y-104634523D02*
X53084819Y-104491666D01*
X53084819Y-104491666D02*
X53084819Y-104396428D01*
X53084819Y-104396428D02*
X53037200Y-104253571D01*
X53037200Y-104253571D02*
X52941961Y-104158333D01*
X52941961Y-104158333D02*
X52846723Y-104110714D01*
X52846723Y-104110714D02*
X52656247Y-104063095D01*
X52656247Y-104063095D02*
X52513390Y-104063095D01*
X52513390Y-104063095D02*
X52322914Y-104110714D01*
X52322914Y-104110714D02*
X52227676Y-104158333D01*
X52227676Y-104158333D02*
X52132438Y-104253571D01*
X52132438Y-104253571D02*
X52084819Y-104396428D01*
X52084819Y-104396428D02*
X52084819Y-104491666D01*
X52084819Y-104491666D02*
X52132438Y-104634523D01*
X52132438Y-104634523D02*
X52180057Y-104682142D01*
X53084819Y-105634523D02*
X53084819Y-105063095D01*
X53084819Y-105348809D02*
X52084819Y-105348809D01*
X52084819Y-105348809D02*
X52227676Y-105253571D01*
X52227676Y-105253571D02*
X52322914Y-105158333D01*
X52322914Y-105158333D02*
X52370533Y-105063095D01*
X52513390Y-106205952D02*
X52465771Y-106110714D01*
X52465771Y-106110714D02*
X52418152Y-106063095D01*
X52418152Y-106063095D02*
X52322914Y-106015476D01*
X52322914Y-106015476D02*
X52275295Y-106015476D01*
X52275295Y-106015476D02*
X52180057Y-106063095D01*
X52180057Y-106063095D02*
X52132438Y-106110714D01*
X52132438Y-106110714D02*
X52084819Y-106205952D01*
X52084819Y-106205952D02*
X52084819Y-106396428D01*
X52084819Y-106396428D02*
X52132438Y-106491666D01*
X52132438Y-106491666D02*
X52180057Y-106539285D01*
X52180057Y-106539285D02*
X52275295Y-106586904D01*
X52275295Y-106586904D02*
X52322914Y-106586904D01*
X52322914Y-106586904D02*
X52418152Y-106539285D01*
X52418152Y-106539285D02*
X52465771Y-106491666D01*
X52465771Y-106491666D02*
X52513390Y-106396428D01*
X52513390Y-106396428D02*
X52513390Y-106205952D01*
X52513390Y-106205952D02*
X52561009Y-106110714D01*
X52561009Y-106110714D02*
X52608628Y-106063095D01*
X52608628Y-106063095D02*
X52703866Y-106015476D01*
X52703866Y-106015476D02*
X52894342Y-106015476D01*
X52894342Y-106015476D02*
X52989580Y-106063095D01*
X52989580Y-106063095D02*
X53037200Y-106110714D01*
X53037200Y-106110714D02*
X53084819Y-106205952D01*
X53084819Y-106205952D02*
X53084819Y-106396428D01*
X53084819Y-106396428D02*
X53037200Y-106491666D01*
X53037200Y-106491666D02*
X52989580Y-106539285D01*
X52989580Y-106539285D02*
X52894342Y-106586904D01*
X52894342Y-106586904D02*
X52703866Y-106586904D01*
X52703866Y-106586904D02*
X52608628Y-106539285D01*
X52608628Y-106539285D02*
X52561009Y-106491666D01*
X52561009Y-106491666D02*
X52513390Y-106396428D01*
X76554580Y-70683333D02*
X76602200Y-70635714D01*
X76602200Y-70635714D02*
X76649819Y-70492857D01*
X76649819Y-70492857D02*
X76649819Y-70397619D01*
X76649819Y-70397619D02*
X76602200Y-70254762D01*
X76602200Y-70254762D02*
X76506961Y-70159524D01*
X76506961Y-70159524D02*
X76411723Y-70111905D01*
X76411723Y-70111905D02*
X76221247Y-70064286D01*
X76221247Y-70064286D02*
X76078390Y-70064286D01*
X76078390Y-70064286D02*
X75887914Y-70111905D01*
X75887914Y-70111905D02*
X75792676Y-70159524D01*
X75792676Y-70159524D02*
X75697438Y-70254762D01*
X75697438Y-70254762D02*
X75649819Y-70397619D01*
X75649819Y-70397619D02*
X75649819Y-70492857D01*
X75649819Y-70492857D02*
X75697438Y-70635714D01*
X75697438Y-70635714D02*
X75745057Y-70683333D01*
X75649819Y-71016667D02*
X75649819Y-71635714D01*
X75649819Y-71635714D02*
X76030771Y-71302381D01*
X76030771Y-71302381D02*
X76030771Y-71445238D01*
X76030771Y-71445238D02*
X76078390Y-71540476D01*
X76078390Y-71540476D02*
X76126009Y-71588095D01*
X76126009Y-71588095D02*
X76221247Y-71635714D01*
X76221247Y-71635714D02*
X76459342Y-71635714D01*
X76459342Y-71635714D02*
X76554580Y-71588095D01*
X76554580Y-71588095D02*
X76602200Y-71540476D01*
X76602200Y-71540476D02*
X76649819Y-71445238D01*
X76649819Y-71445238D02*
X76649819Y-71159524D01*
X76649819Y-71159524D02*
X76602200Y-71064286D01*
X76602200Y-71064286D02*
X76554580Y-71016667D01*
X76554580Y-93683333D02*
X76602200Y-93635714D01*
X76602200Y-93635714D02*
X76649819Y-93492857D01*
X76649819Y-93492857D02*
X76649819Y-93397619D01*
X76649819Y-93397619D02*
X76602200Y-93254762D01*
X76602200Y-93254762D02*
X76506961Y-93159524D01*
X76506961Y-93159524D02*
X76411723Y-93111905D01*
X76411723Y-93111905D02*
X76221247Y-93064286D01*
X76221247Y-93064286D02*
X76078390Y-93064286D01*
X76078390Y-93064286D02*
X75887914Y-93111905D01*
X75887914Y-93111905D02*
X75792676Y-93159524D01*
X75792676Y-93159524D02*
X75697438Y-93254762D01*
X75697438Y-93254762D02*
X75649819Y-93397619D01*
X75649819Y-93397619D02*
X75649819Y-93492857D01*
X75649819Y-93492857D02*
X75697438Y-93635714D01*
X75697438Y-93635714D02*
X75745057Y-93683333D01*
X75649819Y-94016667D02*
X75649819Y-94683333D01*
X75649819Y-94683333D02*
X76649819Y-94254762D01*
X71813094Y-97854819D02*
X71813094Y-96854819D01*
X71813094Y-96854819D02*
X71574999Y-96854819D01*
X71574999Y-96854819D02*
X71432142Y-96902438D01*
X71432142Y-96902438D02*
X71336904Y-96997676D01*
X71336904Y-96997676D02*
X71289285Y-97092914D01*
X71289285Y-97092914D02*
X71241666Y-97283390D01*
X71241666Y-97283390D02*
X71241666Y-97426247D01*
X71241666Y-97426247D02*
X71289285Y-97616723D01*
X71289285Y-97616723D02*
X71336904Y-97711961D01*
X71336904Y-97711961D02*
X71432142Y-97807200D01*
X71432142Y-97807200D02*
X71574999Y-97854819D01*
X71574999Y-97854819D02*
X71813094Y-97854819D01*
X70384523Y-96854819D02*
X70574999Y-96854819D01*
X70574999Y-96854819D02*
X70670237Y-96902438D01*
X70670237Y-96902438D02*
X70717856Y-96950057D01*
X70717856Y-96950057D02*
X70813094Y-97092914D01*
X70813094Y-97092914D02*
X70860713Y-97283390D01*
X70860713Y-97283390D02*
X70860713Y-97664342D01*
X70860713Y-97664342D02*
X70813094Y-97759580D01*
X70813094Y-97759580D02*
X70765475Y-97807200D01*
X70765475Y-97807200D02*
X70670237Y-97854819D01*
X70670237Y-97854819D02*
X70479761Y-97854819D01*
X70479761Y-97854819D02*
X70384523Y-97807200D01*
X70384523Y-97807200D02*
X70336904Y-97759580D01*
X70336904Y-97759580D02*
X70289285Y-97664342D01*
X70289285Y-97664342D02*
X70289285Y-97426247D01*
X70289285Y-97426247D02*
X70336904Y-97331009D01*
X70336904Y-97331009D02*
X70384523Y-97283390D01*
X70384523Y-97283390D02*
X70479761Y-97235771D01*
X70479761Y-97235771D02*
X70670237Y-97235771D01*
X70670237Y-97235771D02*
X70765475Y-97283390D01*
X70765475Y-97283390D02*
X70813094Y-97331009D01*
X70813094Y-97331009D02*
X70860713Y-97426247D01*
X67043571Y-95067704D02*
X66586428Y-95067704D01*
X66815000Y-95067704D02*
X66815000Y-95867704D01*
X66815000Y-95867704D02*
X66738809Y-95753419D01*
X66738809Y-95753419D02*
X66662619Y-95677228D01*
X66662619Y-95677228D02*
X66586428Y-95639133D01*
X71813094Y-74854819D02*
X71813094Y-73854819D01*
X71813094Y-73854819D02*
X71574999Y-73854819D01*
X71574999Y-73854819D02*
X71432142Y-73902438D01*
X71432142Y-73902438D02*
X71336904Y-73997676D01*
X71336904Y-73997676D02*
X71289285Y-74092914D01*
X71289285Y-74092914D02*
X71241666Y-74283390D01*
X71241666Y-74283390D02*
X71241666Y-74426247D01*
X71241666Y-74426247D02*
X71289285Y-74616723D01*
X71289285Y-74616723D02*
X71336904Y-74711961D01*
X71336904Y-74711961D02*
X71432142Y-74807200D01*
X71432142Y-74807200D02*
X71574999Y-74854819D01*
X71574999Y-74854819D02*
X71813094Y-74854819D01*
X70860713Y-73950057D02*
X70813094Y-73902438D01*
X70813094Y-73902438D02*
X70717856Y-73854819D01*
X70717856Y-73854819D02*
X70479761Y-73854819D01*
X70479761Y-73854819D02*
X70384523Y-73902438D01*
X70384523Y-73902438D02*
X70336904Y-73950057D01*
X70336904Y-73950057D02*
X70289285Y-74045295D01*
X70289285Y-74045295D02*
X70289285Y-74140533D01*
X70289285Y-74140533D02*
X70336904Y-74283390D01*
X70336904Y-74283390D02*
X70908332Y-74854819D01*
X70908332Y-74854819D02*
X70289285Y-74854819D01*
X67043571Y-72067704D02*
X66586428Y-72067704D01*
X66815000Y-72067704D02*
X66815000Y-72867704D01*
X66815000Y-72867704D02*
X66738809Y-72753419D01*
X66738809Y-72753419D02*
X66662619Y-72677228D01*
X66662619Y-72677228D02*
X66586428Y-72639133D01*
X118289285Y-143854819D02*
X118289285Y-142854819D01*
X118289285Y-142854819D02*
X118051190Y-142854819D01*
X118051190Y-142854819D02*
X117908333Y-142902438D01*
X117908333Y-142902438D02*
X117813095Y-142997676D01*
X117813095Y-142997676D02*
X117765476Y-143092914D01*
X117765476Y-143092914D02*
X117717857Y-143283390D01*
X117717857Y-143283390D02*
X117717857Y-143426247D01*
X117717857Y-143426247D02*
X117765476Y-143616723D01*
X117765476Y-143616723D02*
X117813095Y-143711961D01*
X117813095Y-143711961D02*
X117908333Y-143807200D01*
X117908333Y-143807200D02*
X118051190Y-143854819D01*
X118051190Y-143854819D02*
X118289285Y-143854819D01*
X116765476Y-143854819D02*
X117336904Y-143854819D01*
X117051190Y-143854819D02*
X117051190Y-142854819D01*
X117051190Y-142854819D02*
X117146428Y-142997676D01*
X117146428Y-142997676D02*
X117241666Y-143092914D01*
X117241666Y-143092914D02*
X117336904Y-143140533D01*
X115908333Y-142854819D02*
X116098809Y-142854819D01*
X116098809Y-142854819D02*
X116194047Y-142902438D01*
X116194047Y-142902438D02*
X116241666Y-142950057D01*
X116241666Y-142950057D02*
X116336904Y-143092914D01*
X116336904Y-143092914D02*
X116384523Y-143283390D01*
X116384523Y-143283390D02*
X116384523Y-143664342D01*
X116384523Y-143664342D02*
X116336904Y-143759580D01*
X116336904Y-143759580D02*
X116289285Y-143807200D01*
X116289285Y-143807200D02*
X116194047Y-143854819D01*
X116194047Y-143854819D02*
X116003571Y-143854819D01*
X116003571Y-143854819D02*
X115908333Y-143807200D01*
X115908333Y-143807200D02*
X115860714Y-143759580D01*
X115860714Y-143759580D02*
X115813095Y-143664342D01*
X115813095Y-143664342D02*
X115813095Y-143426247D01*
X115813095Y-143426247D02*
X115860714Y-143331009D01*
X115860714Y-143331009D02*
X115908333Y-143283390D01*
X115908333Y-143283390D02*
X116003571Y-143235771D01*
X116003571Y-143235771D02*
X116194047Y-143235771D01*
X116194047Y-143235771D02*
X116289285Y-143283390D01*
X116289285Y-143283390D02*
X116336904Y-143331009D01*
X116336904Y-143331009D02*
X116384523Y-143426247D01*
X113043571Y-141067704D02*
X112586428Y-141067704D01*
X112815000Y-141067704D02*
X112815000Y-141867704D01*
X112815000Y-141867704D02*
X112738809Y-141753419D01*
X112738809Y-141753419D02*
X112662619Y-141677228D01*
X112662619Y-141677228D02*
X112586428Y-141639133D01*
X95289285Y-143854819D02*
X95289285Y-142854819D01*
X95289285Y-142854819D02*
X95051190Y-142854819D01*
X95051190Y-142854819D02*
X94908333Y-142902438D01*
X94908333Y-142902438D02*
X94813095Y-142997676D01*
X94813095Y-142997676D02*
X94765476Y-143092914D01*
X94765476Y-143092914D02*
X94717857Y-143283390D01*
X94717857Y-143283390D02*
X94717857Y-143426247D01*
X94717857Y-143426247D02*
X94765476Y-143616723D01*
X94765476Y-143616723D02*
X94813095Y-143711961D01*
X94813095Y-143711961D02*
X94908333Y-143807200D01*
X94908333Y-143807200D02*
X95051190Y-143854819D01*
X95051190Y-143854819D02*
X95289285Y-143854819D01*
X93765476Y-143854819D02*
X94336904Y-143854819D01*
X94051190Y-143854819D02*
X94051190Y-142854819D01*
X94051190Y-142854819D02*
X94146428Y-142997676D01*
X94146428Y-142997676D02*
X94241666Y-143092914D01*
X94241666Y-143092914D02*
X94336904Y-143140533D01*
X92860714Y-142854819D02*
X93336904Y-142854819D01*
X93336904Y-142854819D02*
X93384523Y-143331009D01*
X93384523Y-143331009D02*
X93336904Y-143283390D01*
X93336904Y-143283390D02*
X93241666Y-143235771D01*
X93241666Y-143235771D02*
X93003571Y-143235771D01*
X93003571Y-143235771D02*
X92908333Y-143283390D01*
X92908333Y-143283390D02*
X92860714Y-143331009D01*
X92860714Y-143331009D02*
X92813095Y-143426247D01*
X92813095Y-143426247D02*
X92813095Y-143664342D01*
X92813095Y-143664342D02*
X92860714Y-143759580D01*
X92860714Y-143759580D02*
X92908333Y-143807200D01*
X92908333Y-143807200D02*
X93003571Y-143854819D01*
X93003571Y-143854819D02*
X93241666Y-143854819D01*
X93241666Y-143854819D02*
X93336904Y-143807200D01*
X93336904Y-143807200D02*
X93384523Y-143759580D01*
X90043571Y-141067704D02*
X89586428Y-141067704D01*
X89815000Y-141067704D02*
X89815000Y-141867704D01*
X89815000Y-141867704D02*
X89738809Y-141753419D01*
X89738809Y-141753419D02*
X89662619Y-141677228D01*
X89662619Y-141677228D02*
X89586428Y-141639133D01*
X72289285Y-143854819D02*
X72289285Y-142854819D01*
X72289285Y-142854819D02*
X72051190Y-142854819D01*
X72051190Y-142854819D02*
X71908333Y-142902438D01*
X71908333Y-142902438D02*
X71813095Y-142997676D01*
X71813095Y-142997676D02*
X71765476Y-143092914D01*
X71765476Y-143092914D02*
X71717857Y-143283390D01*
X71717857Y-143283390D02*
X71717857Y-143426247D01*
X71717857Y-143426247D02*
X71765476Y-143616723D01*
X71765476Y-143616723D02*
X71813095Y-143711961D01*
X71813095Y-143711961D02*
X71908333Y-143807200D01*
X71908333Y-143807200D02*
X72051190Y-143854819D01*
X72051190Y-143854819D02*
X72289285Y-143854819D01*
X70765476Y-143854819D02*
X71336904Y-143854819D01*
X71051190Y-143854819D02*
X71051190Y-142854819D01*
X71051190Y-142854819D02*
X71146428Y-142997676D01*
X71146428Y-142997676D02*
X71241666Y-143092914D01*
X71241666Y-143092914D02*
X71336904Y-143140533D01*
X69908333Y-143188152D02*
X69908333Y-143854819D01*
X70146428Y-142807200D02*
X70384523Y-143521485D01*
X70384523Y-143521485D02*
X69765476Y-143521485D01*
X67043571Y-141067704D02*
X66586428Y-141067704D01*
X66815000Y-141067704D02*
X66815000Y-141867704D01*
X66815000Y-141867704D02*
X66738809Y-141753419D01*
X66738809Y-141753419D02*
X66662619Y-141677228D01*
X66662619Y-141677228D02*
X66586428Y-141639133D01*
X49289285Y-143854819D02*
X49289285Y-142854819D01*
X49289285Y-142854819D02*
X49051190Y-142854819D01*
X49051190Y-142854819D02*
X48908333Y-142902438D01*
X48908333Y-142902438D02*
X48813095Y-142997676D01*
X48813095Y-142997676D02*
X48765476Y-143092914D01*
X48765476Y-143092914D02*
X48717857Y-143283390D01*
X48717857Y-143283390D02*
X48717857Y-143426247D01*
X48717857Y-143426247D02*
X48765476Y-143616723D01*
X48765476Y-143616723D02*
X48813095Y-143711961D01*
X48813095Y-143711961D02*
X48908333Y-143807200D01*
X48908333Y-143807200D02*
X49051190Y-143854819D01*
X49051190Y-143854819D02*
X49289285Y-143854819D01*
X47765476Y-143854819D02*
X48336904Y-143854819D01*
X48051190Y-143854819D02*
X48051190Y-142854819D01*
X48051190Y-142854819D02*
X48146428Y-142997676D01*
X48146428Y-142997676D02*
X48241666Y-143092914D01*
X48241666Y-143092914D02*
X48336904Y-143140533D01*
X47432142Y-142854819D02*
X46813095Y-142854819D01*
X46813095Y-142854819D02*
X47146428Y-143235771D01*
X47146428Y-143235771D02*
X47003571Y-143235771D01*
X47003571Y-143235771D02*
X46908333Y-143283390D01*
X46908333Y-143283390D02*
X46860714Y-143331009D01*
X46860714Y-143331009D02*
X46813095Y-143426247D01*
X46813095Y-143426247D02*
X46813095Y-143664342D01*
X46813095Y-143664342D02*
X46860714Y-143759580D01*
X46860714Y-143759580D02*
X46908333Y-143807200D01*
X46908333Y-143807200D02*
X47003571Y-143854819D01*
X47003571Y-143854819D02*
X47289285Y-143854819D01*
X47289285Y-143854819D02*
X47384523Y-143807200D01*
X47384523Y-143807200D02*
X47432142Y-143759580D01*
X44043571Y-141067704D02*
X43586428Y-141067704D01*
X43815000Y-141067704D02*
X43815000Y-141867704D01*
X43815000Y-141867704D02*
X43738809Y-141753419D01*
X43738809Y-141753419D02*
X43662619Y-141677228D01*
X43662619Y-141677228D02*
X43586428Y-141639133D01*
X118289285Y-120854819D02*
X118289285Y-119854819D01*
X118289285Y-119854819D02*
X118051190Y-119854819D01*
X118051190Y-119854819D02*
X117908333Y-119902438D01*
X117908333Y-119902438D02*
X117813095Y-119997676D01*
X117813095Y-119997676D02*
X117765476Y-120092914D01*
X117765476Y-120092914D02*
X117717857Y-120283390D01*
X117717857Y-120283390D02*
X117717857Y-120426247D01*
X117717857Y-120426247D02*
X117765476Y-120616723D01*
X117765476Y-120616723D02*
X117813095Y-120711961D01*
X117813095Y-120711961D02*
X117908333Y-120807200D01*
X117908333Y-120807200D02*
X118051190Y-120854819D01*
X118051190Y-120854819D02*
X118289285Y-120854819D01*
X116765476Y-120854819D02*
X117336904Y-120854819D01*
X117051190Y-120854819D02*
X117051190Y-119854819D01*
X117051190Y-119854819D02*
X117146428Y-119997676D01*
X117146428Y-119997676D02*
X117241666Y-120092914D01*
X117241666Y-120092914D02*
X117336904Y-120140533D01*
X116384523Y-119950057D02*
X116336904Y-119902438D01*
X116336904Y-119902438D02*
X116241666Y-119854819D01*
X116241666Y-119854819D02*
X116003571Y-119854819D01*
X116003571Y-119854819D02*
X115908333Y-119902438D01*
X115908333Y-119902438D02*
X115860714Y-119950057D01*
X115860714Y-119950057D02*
X115813095Y-120045295D01*
X115813095Y-120045295D02*
X115813095Y-120140533D01*
X115813095Y-120140533D02*
X115860714Y-120283390D01*
X115860714Y-120283390D02*
X116432142Y-120854819D01*
X116432142Y-120854819D02*
X115813095Y-120854819D01*
X113043571Y-118067704D02*
X112586428Y-118067704D01*
X112815000Y-118067704D02*
X112815000Y-118867704D01*
X112815000Y-118867704D02*
X112738809Y-118753419D01*
X112738809Y-118753419D02*
X112662619Y-118677228D01*
X112662619Y-118677228D02*
X112586428Y-118639133D01*
X95289285Y-120854819D02*
X95289285Y-119854819D01*
X95289285Y-119854819D02*
X95051190Y-119854819D01*
X95051190Y-119854819D02*
X94908333Y-119902438D01*
X94908333Y-119902438D02*
X94813095Y-119997676D01*
X94813095Y-119997676D02*
X94765476Y-120092914D01*
X94765476Y-120092914D02*
X94717857Y-120283390D01*
X94717857Y-120283390D02*
X94717857Y-120426247D01*
X94717857Y-120426247D02*
X94765476Y-120616723D01*
X94765476Y-120616723D02*
X94813095Y-120711961D01*
X94813095Y-120711961D02*
X94908333Y-120807200D01*
X94908333Y-120807200D02*
X95051190Y-120854819D01*
X95051190Y-120854819D02*
X95289285Y-120854819D01*
X93765476Y-120854819D02*
X94336904Y-120854819D01*
X94051190Y-120854819D02*
X94051190Y-119854819D01*
X94051190Y-119854819D02*
X94146428Y-119997676D01*
X94146428Y-119997676D02*
X94241666Y-120092914D01*
X94241666Y-120092914D02*
X94336904Y-120140533D01*
X92813095Y-120854819D02*
X93384523Y-120854819D01*
X93098809Y-120854819D02*
X93098809Y-119854819D01*
X93098809Y-119854819D02*
X93194047Y-119997676D01*
X93194047Y-119997676D02*
X93289285Y-120092914D01*
X93289285Y-120092914D02*
X93384523Y-120140533D01*
X90043571Y-118067704D02*
X89586428Y-118067704D01*
X89815000Y-118067704D02*
X89815000Y-118867704D01*
X89815000Y-118867704D02*
X89738809Y-118753419D01*
X89738809Y-118753419D02*
X89662619Y-118677228D01*
X89662619Y-118677228D02*
X89586428Y-118639133D01*
X72289285Y-120854819D02*
X72289285Y-119854819D01*
X72289285Y-119854819D02*
X72051190Y-119854819D01*
X72051190Y-119854819D02*
X71908333Y-119902438D01*
X71908333Y-119902438D02*
X71813095Y-119997676D01*
X71813095Y-119997676D02*
X71765476Y-120092914D01*
X71765476Y-120092914D02*
X71717857Y-120283390D01*
X71717857Y-120283390D02*
X71717857Y-120426247D01*
X71717857Y-120426247D02*
X71765476Y-120616723D01*
X71765476Y-120616723D02*
X71813095Y-120711961D01*
X71813095Y-120711961D02*
X71908333Y-120807200D01*
X71908333Y-120807200D02*
X72051190Y-120854819D01*
X72051190Y-120854819D02*
X72289285Y-120854819D01*
X70765476Y-120854819D02*
X71336904Y-120854819D01*
X71051190Y-120854819D02*
X71051190Y-119854819D01*
X71051190Y-119854819D02*
X71146428Y-119997676D01*
X71146428Y-119997676D02*
X71241666Y-120092914D01*
X71241666Y-120092914D02*
X71336904Y-120140533D01*
X70146428Y-119854819D02*
X70051190Y-119854819D01*
X70051190Y-119854819D02*
X69955952Y-119902438D01*
X69955952Y-119902438D02*
X69908333Y-119950057D01*
X69908333Y-119950057D02*
X69860714Y-120045295D01*
X69860714Y-120045295D02*
X69813095Y-120235771D01*
X69813095Y-120235771D02*
X69813095Y-120473866D01*
X69813095Y-120473866D02*
X69860714Y-120664342D01*
X69860714Y-120664342D02*
X69908333Y-120759580D01*
X69908333Y-120759580D02*
X69955952Y-120807200D01*
X69955952Y-120807200D02*
X70051190Y-120854819D01*
X70051190Y-120854819D02*
X70146428Y-120854819D01*
X70146428Y-120854819D02*
X70241666Y-120807200D01*
X70241666Y-120807200D02*
X70289285Y-120759580D01*
X70289285Y-120759580D02*
X70336904Y-120664342D01*
X70336904Y-120664342D02*
X70384523Y-120473866D01*
X70384523Y-120473866D02*
X70384523Y-120235771D01*
X70384523Y-120235771D02*
X70336904Y-120045295D01*
X70336904Y-120045295D02*
X70289285Y-119950057D01*
X70289285Y-119950057D02*
X70241666Y-119902438D01*
X70241666Y-119902438D02*
X70146428Y-119854819D01*
X67043571Y-118067704D02*
X66586428Y-118067704D01*
X66815000Y-118067704D02*
X66815000Y-118867704D01*
X66815000Y-118867704D02*
X66738809Y-118753419D01*
X66738809Y-118753419D02*
X66662619Y-118677228D01*
X66662619Y-118677228D02*
X66586428Y-118639133D01*
X48813094Y-120854819D02*
X48813094Y-119854819D01*
X48813094Y-119854819D02*
X48574999Y-119854819D01*
X48574999Y-119854819D02*
X48432142Y-119902438D01*
X48432142Y-119902438D02*
X48336904Y-119997676D01*
X48336904Y-119997676D02*
X48289285Y-120092914D01*
X48289285Y-120092914D02*
X48241666Y-120283390D01*
X48241666Y-120283390D02*
X48241666Y-120426247D01*
X48241666Y-120426247D02*
X48289285Y-120616723D01*
X48289285Y-120616723D02*
X48336904Y-120711961D01*
X48336904Y-120711961D02*
X48432142Y-120807200D01*
X48432142Y-120807200D02*
X48574999Y-120854819D01*
X48574999Y-120854819D02*
X48813094Y-120854819D01*
X47765475Y-120854819D02*
X47574999Y-120854819D01*
X47574999Y-120854819D02*
X47479761Y-120807200D01*
X47479761Y-120807200D02*
X47432142Y-120759580D01*
X47432142Y-120759580D02*
X47336904Y-120616723D01*
X47336904Y-120616723D02*
X47289285Y-120426247D01*
X47289285Y-120426247D02*
X47289285Y-120045295D01*
X47289285Y-120045295D02*
X47336904Y-119950057D01*
X47336904Y-119950057D02*
X47384523Y-119902438D01*
X47384523Y-119902438D02*
X47479761Y-119854819D01*
X47479761Y-119854819D02*
X47670237Y-119854819D01*
X47670237Y-119854819D02*
X47765475Y-119902438D01*
X47765475Y-119902438D02*
X47813094Y-119950057D01*
X47813094Y-119950057D02*
X47860713Y-120045295D01*
X47860713Y-120045295D02*
X47860713Y-120283390D01*
X47860713Y-120283390D02*
X47813094Y-120378628D01*
X47813094Y-120378628D02*
X47765475Y-120426247D01*
X47765475Y-120426247D02*
X47670237Y-120473866D01*
X47670237Y-120473866D02*
X47479761Y-120473866D01*
X47479761Y-120473866D02*
X47384523Y-120426247D01*
X47384523Y-120426247D02*
X47336904Y-120378628D01*
X47336904Y-120378628D02*
X47289285Y-120283390D01*
X44043571Y-118067704D02*
X43586428Y-118067704D01*
X43815000Y-118067704D02*
X43815000Y-118867704D01*
X43815000Y-118867704D02*
X43738809Y-118753419D01*
X43738809Y-118753419D02*
X43662619Y-118677228D01*
X43662619Y-118677228D02*
X43586428Y-118639133D01*
X117813094Y-97854819D02*
X117813094Y-96854819D01*
X117813094Y-96854819D02*
X117574999Y-96854819D01*
X117574999Y-96854819D02*
X117432142Y-96902438D01*
X117432142Y-96902438D02*
X117336904Y-96997676D01*
X117336904Y-96997676D02*
X117289285Y-97092914D01*
X117289285Y-97092914D02*
X117241666Y-97283390D01*
X117241666Y-97283390D02*
X117241666Y-97426247D01*
X117241666Y-97426247D02*
X117289285Y-97616723D01*
X117289285Y-97616723D02*
X117336904Y-97711961D01*
X117336904Y-97711961D02*
X117432142Y-97807200D01*
X117432142Y-97807200D02*
X117574999Y-97854819D01*
X117574999Y-97854819D02*
X117813094Y-97854819D01*
X116670237Y-97283390D02*
X116765475Y-97235771D01*
X116765475Y-97235771D02*
X116813094Y-97188152D01*
X116813094Y-97188152D02*
X116860713Y-97092914D01*
X116860713Y-97092914D02*
X116860713Y-97045295D01*
X116860713Y-97045295D02*
X116813094Y-96950057D01*
X116813094Y-96950057D02*
X116765475Y-96902438D01*
X116765475Y-96902438D02*
X116670237Y-96854819D01*
X116670237Y-96854819D02*
X116479761Y-96854819D01*
X116479761Y-96854819D02*
X116384523Y-96902438D01*
X116384523Y-96902438D02*
X116336904Y-96950057D01*
X116336904Y-96950057D02*
X116289285Y-97045295D01*
X116289285Y-97045295D02*
X116289285Y-97092914D01*
X116289285Y-97092914D02*
X116336904Y-97188152D01*
X116336904Y-97188152D02*
X116384523Y-97235771D01*
X116384523Y-97235771D02*
X116479761Y-97283390D01*
X116479761Y-97283390D02*
X116670237Y-97283390D01*
X116670237Y-97283390D02*
X116765475Y-97331009D01*
X116765475Y-97331009D02*
X116813094Y-97378628D01*
X116813094Y-97378628D02*
X116860713Y-97473866D01*
X116860713Y-97473866D02*
X116860713Y-97664342D01*
X116860713Y-97664342D02*
X116813094Y-97759580D01*
X116813094Y-97759580D02*
X116765475Y-97807200D01*
X116765475Y-97807200D02*
X116670237Y-97854819D01*
X116670237Y-97854819D02*
X116479761Y-97854819D01*
X116479761Y-97854819D02*
X116384523Y-97807200D01*
X116384523Y-97807200D02*
X116336904Y-97759580D01*
X116336904Y-97759580D02*
X116289285Y-97664342D01*
X116289285Y-97664342D02*
X116289285Y-97473866D01*
X116289285Y-97473866D02*
X116336904Y-97378628D01*
X116336904Y-97378628D02*
X116384523Y-97331009D01*
X116384523Y-97331009D02*
X116479761Y-97283390D01*
X113043571Y-95067704D02*
X112586428Y-95067704D01*
X112815000Y-95067704D02*
X112815000Y-95867704D01*
X112815000Y-95867704D02*
X112738809Y-95753419D01*
X112738809Y-95753419D02*
X112662619Y-95677228D01*
X112662619Y-95677228D02*
X112586428Y-95639133D01*
X94813094Y-97854819D02*
X94813094Y-96854819D01*
X94813094Y-96854819D02*
X94574999Y-96854819D01*
X94574999Y-96854819D02*
X94432142Y-96902438D01*
X94432142Y-96902438D02*
X94336904Y-96997676D01*
X94336904Y-96997676D02*
X94289285Y-97092914D01*
X94289285Y-97092914D02*
X94241666Y-97283390D01*
X94241666Y-97283390D02*
X94241666Y-97426247D01*
X94241666Y-97426247D02*
X94289285Y-97616723D01*
X94289285Y-97616723D02*
X94336904Y-97711961D01*
X94336904Y-97711961D02*
X94432142Y-97807200D01*
X94432142Y-97807200D02*
X94574999Y-97854819D01*
X94574999Y-97854819D02*
X94813094Y-97854819D01*
X93908332Y-96854819D02*
X93241666Y-96854819D01*
X93241666Y-96854819D02*
X93670237Y-97854819D01*
X90043571Y-95067704D02*
X89586428Y-95067704D01*
X89815000Y-95067704D02*
X89815000Y-95867704D01*
X89815000Y-95867704D02*
X89738809Y-95753419D01*
X89738809Y-95753419D02*
X89662619Y-95677228D01*
X89662619Y-95677228D02*
X89586428Y-95639133D01*
X48813094Y-97854819D02*
X48813094Y-96854819D01*
X48813094Y-96854819D02*
X48574999Y-96854819D01*
X48574999Y-96854819D02*
X48432142Y-96902438D01*
X48432142Y-96902438D02*
X48336904Y-96997676D01*
X48336904Y-96997676D02*
X48289285Y-97092914D01*
X48289285Y-97092914D02*
X48241666Y-97283390D01*
X48241666Y-97283390D02*
X48241666Y-97426247D01*
X48241666Y-97426247D02*
X48289285Y-97616723D01*
X48289285Y-97616723D02*
X48336904Y-97711961D01*
X48336904Y-97711961D02*
X48432142Y-97807200D01*
X48432142Y-97807200D02*
X48574999Y-97854819D01*
X48574999Y-97854819D02*
X48813094Y-97854819D01*
X47336904Y-96854819D02*
X47813094Y-96854819D01*
X47813094Y-96854819D02*
X47860713Y-97331009D01*
X47860713Y-97331009D02*
X47813094Y-97283390D01*
X47813094Y-97283390D02*
X47717856Y-97235771D01*
X47717856Y-97235771D02*
X47479761Y-97235771D01*
X47479761Y-97235771D02*
X47384523Y-97283390D01*
X47384523Y-97283390D02*
X47336904Y-97331009D01*
X47336904Y-97331009D02*
X47289285Y-97426247D01*
X47289285Y-97426247D02*
X47289285Y-97664342D01*
X47289285Y-97664342D02*
X47336904Y-97759580D01*
X47336904Y-97759580D02*
X47384523Y-97807200D01*
X47384523Y-97807200D02*
X47479761Y-97854819D01*
X47479761Y-97854819D02*
X47717856Y-97854819D01*
X47717856Y-97854819D02*
X47813094Y-97807200D01*
X47813094Y-97807200D02*
X47860713Y-97759580D01*
X44043571Y-95067704D02*
X43586428Y-95067704D01*
X43815000Y-95067704D02*
X43815000Y-95867704D01*
X43815000Y-95867704D02*
X43738809Y-95753419D01*
X43738809Y-95753419D02*
X43662619Y-95677228D01*
X43662619Y-95677228D02*
X43586428Y-95639133D01*
X117813094Y-74854819D02*
X117813094Y-73854819D01*
X117813094Y-73854819D02*
X117574999Y-73854819D01*
X117574999Y-73854819D02*
X117432142Y-73902438D01*
X117432142Y-73902438D02*
X117336904Y-73997676D01*
X117336904Y-73997676D02*
X117289285Y-74092914D01*
X117289285Y-74092914D02*
X117241666Y-74283390D01*
X117241666Y-74283390D02*
X117241666Y-74426247D01*
X117241666Y-74426247D02*
X117289285Y-74616723D01*
X117289285Y-74616723D02*
X117336904Y-74711961D01*
X117336904Y-74711961D02*
X117432142Y-74807200D01*
X117432142Y-74807200D02*
X117574999Y-74854819D01*
X117574999Y-74854819D02*
X117813094Y-74854819D01*
X116384523Y-74188152D02*
X116384523Y-74854819D01*
X116622618Y-73807200D02*
X116860713Y-74521485D01*
X116860713Y-74521485D02*
X116241666Y-74521485D01*
X113043571Y-72067704D02*
X112586428Y-72067704D01*
X112815000Y-72067704D02*
X112815000Y-72867704D01*
X112815000Y-72867704D02*
X112738809Y-72753419D01*
X112738809Y-72753419D02*
X112662619Y-72677228D01*
X112662619Y-72677228D02*
X112586428Y-72639133D01*
X94813094Y-74854819D02*
X94813094Y-73854819D01*
X94813094Y-73854819D02*
X94574999Y-73854819D01*
X94574999Y-73854819D02*
X94432142Y-73902438D01*
X94432142Y-73902438D02*
X94336904Y-73997676D01*
X94336904Y-73997676D02*
X94289285Y-74092914D01*
X94289285Y-74092914D02*
X94241666Y-74283390D01*
X94241666Y-74283390D02*
X94241666Y-74426247D01*
X94241666Y-74426247D02*
X94289285Y-74616723D01*
X94289285Y-74616723D02*
X94336904Y-74711961D01*
X94336904Y-74711961D02*
X94432142Y-74807200D01*
X94432142Y-74807200D02*
X94574999Y-74854819D01*
X94574999Y-74854819D02*
X94813094Y-74854819D01*
X93908332Y-73854819D02*
X93289285Y-73854819D01*
X93289285Y-73854819D02*
X93622618Y-74235771D01*
X93622618Y-74235771D02*
X93479761Y-74235771D01*
X93479761Y-74235771D02*
X93384523Y-74283390D01*
X93384523Y-74283390D02*
X93336904Y-74331009D01*
X93336904Y-74331009D02*
X93289285Y-74426247D01*
X93289285Y-74426247D02*
X93289285Y-74664342D01*
X93289285Y-74664342D02*
X93336904Y-74759580D01*
X93336904Y-74759580D02*
X93384523Y-74807200D01*
X93384523Y-74807200D02*
X93479761Y-74854819D01*
X93479761Y-74854819D02*
X93765475Y-74854819D01*
X93765475Y-74854819D02*
X93860713Y-74807200D01*
X93860713Y-74807200D02*
X93908332Y-74759580D01*
X90043571Y-72067704D02*
X89586428Y-72067704D01*
X89815000Y-72067704D02*
X89815000Y-72867704D01*
X89815000Y-72867704D02*
X89738809Y-72753419D01*
X89738809Y-72753419D02*
X89662619Y-72677228D01*
X89662619Y-72677228D02*
X89586428Y-72639133D01*
X48813094Y-74854819D02*
X48813094Y-73854819D01*
X48813094Y-73854819D02*
X48574999Y-73854819D01*
X48574999Y-73854819D02*
X48432142Y-73902438D01*
X48432142Y-73902438D02*
X48336904Y-73997676D01*
X48336904Y-73997676D02*
X48289285Y-74092914D01*
X48289285Y-74092914D02*
X48241666Y-74283390D01*
X48241666Y-74283390D02*
X48241666Y-74426247D01*
X48241666Y-74426247D02*
X48289285Y-74616723D01*
X48289285Y-74616723D02*
X48336904Y-74711961D01*
X48336904Y-74711961D02*
X48432142Y-74807200D01*
X48432142Y-74807200D02*
X48574999Y-74854819D01*
X48574999Y-74854819D02*
X48813094Y-74854819D01*
X47289285Y-74854819D02*
X47860713Y-74854819D01*
X47574999Y-74854819D02*
X47574999Y-73854819D01*
X47574999Y-73854819D02*
X47670237Y-73997676D01*
X47670237Y-73997676D02*
X47765475Y-74092914D01*
X47765475Y-74092914D02*
X47860713Y-74140533D01*
X44043571Y-72067704D02*
X43586428Y-72067704D01*
X43815000Y-72067704D02*
X43815000Y-72867704D01*
X43815000Y-72867704D02*
X43738809Y-72753419D01*
X43738809Y-72753419D02*
X43662619Y-72677228D01*
X43662619Y-72677228D02*
X43586428Y-72639133D01*
X53229819Y-104238095D02*
X54039342Y-104238095D01*
X54039342Y-104238095D02*
X54134580Y-104285714D01*
X54134580Y-104285714D02*
X54182200Y-104333333D01*
X54182200Y-104333333D02*
X54229819Y-104428571D01*
X54229819Y-104428571D02*
X54229819Y-104619047D01*
X54229819Y-104619047D02*
X54182200Y-104714285D01*
X54182200Y-104714285D02*
X54134580Y-104761904D01*
X54134580Y-104761904D02*
X54039342Y-104809523D01*
X54039342Y-104809523D02*
X53229819Y-104809523D01*
X54229819Y-105809523D02*
X54229819Y-105238095D01*
X54229819Y-105523809D02*
X53229819Y-105523809D01*
X53229819Y-105523809D02*
X53372676Y-105428571D01*
X53372676Y-105428571D02*
X53467914Y-105333333D01*
X53467914Y-105333333D02*
X53515533Y-105238095D01*
X122554580Y-139207142D02*
X122602200Y-139159523D01*
X122602200Y-139159523D02*
X122649819Y-139016666D01*
X122649819Y-139016666D02*
X122649819Y-138921428D01*
X122649819Y-138921428D02*
X122602200Y-138778571D01*
X122602200Y-138778571D02*
X122506961Y-138683333D01*
X122506961Y-138683333D02*
X122411723Y-138635714D01*
X122411723Y-138635714D02*
X122221247Y-138588095D01*
X122221247Y-138588095D02*
X122078390Y-138588095D01*
X122078390Y-138588095D02*
X121887914Y-138635714D01*
X121887914Y-138635714D02*
X121792676Y-138683333D01*
X121792676Y-138683333D02*
X121697438Y-138778571D01*
X121697438Y-138778571D02*
X121649819Y-138921428D01*
X121649819Y-138921428D02*
X121649819Y-139016666D01*
X121649819Y-139016666D02*
X121697438Y-139159523D01*
X121697438Y-139159523D02*
X121745057Y-139207142D01*
X122649819Y-140159523D02*
X122649819Y-139588095D01*
X122649819Y-139873809D02*
X121649819Y-139873809D01*
X121649819Y-139873809D02*
X121792676Y-139778571D01*
X121792676Y-139778571D02*
X121887914Y-139683333D01*
X121887914Y-139683333D02*
X121935533Y-139588095D01*
X121649819Y-140492857D02*
X121649819Y-141159523D01*
X121649819Y-141159523D02*
X122649819Y-140730952D01*
X99554580Y-139207142D02*
X99602200Y-139159523D01*
X99602200Y-139159523D02*
X99649819Y-139016666D01*
X99649819Y-139016666D02*
X99649819Y-138921428D01*
X99649819Y-138921428D02*
X99602200Y-138778571D01*
X99602200Y-138778571D02*
X99506961Y-138683333D01*
X99506961Y-138683333D02*
X99411723Y-138635714D01*
X99411723Y-138635714D02*
X99221247Y-138588095D01*
X99221247Y-138588095D02*
X99078390Y-138588095D01*
X99078390Y-138588095D02*
X98887914Y-138635714D01*
X98887914Y-138635714D02*
X98792676Y-138683333D01*
X98792676Y-138683333D02*
X98697438Y-138778571D01*
X98697438Y-138778571D02*
X98649819Y-138921428D01*
X98649819Y-138921428D02*
X98649819Y-139016666D01*
X98649819Y-139016666D02*
X98697438Y-139159523D01*
X98697438Y-139159523D02*
X98745057Y-139207142D01*
X99649819Y-140159523D02*
X99649819Y-139588095D01*
X99649819Y-139873809D02*
X98649819Y-139873809D01*
X98649819Y-139873809D02*
X98792676Y-139778571D01*
X98792676Y-139778571D02*
X98887914Y-139683333D01*
X98887914Y-139683333D02*
X98935533Y-139588095D01*
X98649819Y-141016666D02*
X98649819Y-140826190D01*
X98649819Y-140826190D02*
X98697438Y-140730952D01*
X98697438Y-140730952D02*
X98745057Y-140683333D01*
X98745057Y-140683333D02*
X98887914Y-140588095D01*
X98887914Y-140588095D02*
X99078390Y-140540476D01*
X99078390Y-140540476D02*
X99459342Y-140540476D01*
X99459342Y-140540476D02*
X99554580Y-140588095D01*
X99554580Y-140588095D02*
X99602200Y-140635714D01*
X99602200Y-140635714D02*
X99649819Y-140730952D01*
X99649819Y-140730952D02*
X99649819Y-140921428D01*
X99649819Y-140921428D02*
X99602200Y-141016666D01*
X99602200Y-141016666D02*
X99554580Y-141064285D01*
X99554580Y-141064285D02*
X99459342Y-141111904D01*
X99459342Y-141111904D02*
X99221247Y-141111904D01*
X99221247Y-141111904D02*
X99126009Y-141064285D01*
X99126009Y-141064285D02*
X99078390Y-141016666D01*
X99078390Y-141016666D02*
X99030771Y-140921428D01*
X99030771Y-140921428D02*
X99030771Y-140730952D01*
X99030771Y-140730952D02*
X99078390Y-140635714D01*
X99078390Y-140635714D02*
X99126009Y-140588095D01*
X99126009Y-140588095D02*
X99221247Y-140540476D01*
X76554580Y-139207142D02*
X76602200Y-139159523D01*
X76602200Y-139159523D02*
X76649819Y-139016666D01*
X76649819Y-139016666D02*
X76649819Y-138921428D01*
X76649819Y-138921428D02*
X76602200Y-138778571D01*
X76602200Y-138778571D02*
X76506961Y-138683333D01*
X76506961Y-138683333D02*
X76411723Y-138635714D01*
X76411723Y-138635714D02*
X76221247Y-138588095D01*
X76221247Y-138588095D02*
X76078390Y-138588095D01*
X76078390Y-138588095D02*
X75887914Y-138635714D01*
X75887914Y-138635714D02*
X75792676Y-138683333D01*
X75792676Y-138683333D02*
X75697438Y-138778571D01*
X75697438Y-138778571D02*
X75649819Y-138921428D01*
X75649819Y-138921428D02*
X75649819Y-139016666D01*
X75649819Y-139016666D02*
X75697438Y-139159523D01*
X75697438Y-139159523D02*
X75745057Y-139207142D01*
X76649819Y-140159523D02*
X76649819Y-139588095D01*
X76649819Y-139873809D02*
X75649819Y-139873809D01*
X75649819Y-139873809D02*
X75792676Y-139778571D01*
X75792676Y-139778571D02*
X75887914Y-139683333D01*
X75887914Y-139683333D02*
X75935533Y-139588095D01*
X75649819Y-141064285D02*
X75649819Y-140588095D01*
X75649819Y-140588095D02*
X76126009Y-140540476D01*
X76126009Y-140540476D02*
X76078390Y-140588095D01*
X76078390Y-140588095D02*
X76030771Y-140683333D01*
X76030771Y-140683333D02*
X76030771Y-140921428D01*
X76030771Y-140921428D02*
X76078390Y-141016666D01*
X76078390Y-141016666D02*
X76126009Y-141064285D01*
X76126009Y-141064285D02*
X76221247Y-141111904D01*
X76221247Y-141111904D02*
X76459342Y-141111904D01*
X76459342Y-141111904D02*
X76554580Y-141064285D01*
X76554580Y-141064285D02*
X76602200Y-141016666D01*
X76602200Y-141016666D02*
X76649819Y-140921428D01*
X76649819Y-140921428D02*
X76649819Y-140683333D01*
X76649819Y-140683333D02*
X76602200Y-140588095D01*
X76602200Y-140588095D02*
X76554580Y-140540476D01*
X53554580Y-139207142D02*
X53602200Y-139159523D01*
X53602200Y-139159523D02*
X53649819Y-139016666D01*
X53649819Y-139016666D02*
X53649819Y-138921428D01*
X53649819Y-138921428D02*
X53602200Y-138778571D01*
X53602200Y-138778571D02*
X53506961Y-138683333D01*
X53506961Y-138683333D02*
X53411723Y-138635714D01*
X53411723Y-138635714D02*
X53221247Y-138588095D01*
X53221247Y-138588095D02*
X53078390Y-138588095D01*
X53078390Y-138588095D02*
X52887914Y-138635714D01*
X52887914Y-138635714D02*
X52792676Y-138683333D01*
X52792676Y-138683333D02*
X52697438Y-138778571D01*
X52697438Y-138778571D02*
X52649819Y-138921428D01*
X52649819Y-138921428D02*
X52649819Y-139016666D01*
X52649819Y-139016666D02*
X52697438Y-139159523D01*
X52697438Y-139159523D02*
X52745057Y-139207142D01*
X53649819Y-140159523D02*
X53649819Y-139588095D01*
X53649819Y-139873809D02*
X52649819Y-139873809D01*
X52649819Y-139873809D02*
X52792676Y-139778571D01*
X52792676Y-139778571D02*
X52887914Y-139683333D01*
X52887914Y-139683333D02*
X52935533Y-139588095D01*
X52983152Y-141016666D02*
X53649819Y-141016666D01*
X52602200Y-140778571D02*
X53316485Y-140540476D01*
X53316485Y-140540476D02*
X53316485Y-141159523D01*
X122554580Y-116207142D02*
X122602200Y-116159523D01*
X122602200Y-116159523D02*
X122649819Y-116016666D01*
X122649819Y-116016666D02*
X122649819Y-115921428D01*
X122649819Y-115921428D02*
X122602200Y-115778571D01*
X122602200Y-115778571D02*
X122506961Y-115683333D01*
X122506961Y-115683333D02*
X122411723Y-115635714D01*
X122411723Y-115635714D02*
X122221247Y-115588095D01*
X122221247Y-115588095D02*
X122078390Y-115588095D01*
X122078390Y-115588095D02*
X121887914Y-115635714D01*
X121887914Y-115635714D02*
X121792676Y-115683333D01*
X121792676Y-115683333D02*
X121697438Y-115778571D01*
X121697438Y-115778571D02*
X121649819Y-115921428D01*
X121649819Y-115921428D02*
X121649819Y-116016666D01*
X121649819Y-116016666D02*
X121697438Y-116159523D01*
X121697438Y-116159523D02*
X121745057Y-116207142D01*
X122649819Y-117159523D02*
X122649819Y-116588095D01*
X122649819Y-116873809D02*
X121649819Y-116873809D01*
X121649819Y-116873809D02*
X121792676Y-116778571D01*
X121792676Y-116778571D02*
X121887914Y-116683333D01*
X121887914Y-116683333D02*
X121935533Y-116588095D01*
X121649819Y-117492857D02*
X121649819Y-118111904D01*
X121649819Y-118111904D02*
X122030771Y-117778571D01*
X122030771Y-117778571D02*
X122030771Y-117921428D01*
X122030771Y-117921428D02*
X122078390Y-118016666D01*
X122078390Y-118016666D02*
X122126009Y-118064285D01*
X122126009Y-118064285D02*
X122221247Y-118111904D01*
X122221247Y-118111904D02*
X122459342Y-118111904D01*
X122459342Y-118111904D02*
X122554580Y-118064285D01*
X122554580Y-118064285D02*
X122602200Y-118016666D01*
X122602200Y-118016666D02*
X122649819Y-117921428D01*
X122649819Y-117921428D02*
X122649819Y-117635714D01*
X122649819Y-117635714D02*
X122602200Y-117540476D01*
X122602200Y-117540476D02*
X122554580Y-117492857D01*
X99554580Y-116207142D02*
X99602200Y-116159523D01*
X99602200Y-116159523D02*
X99649819Y-116016666D01*
X99649819Y-116016666D02*
X99649819Y-115921428D01*
X99649819Y-115921428D02*
X99602200Y-115778571D01*
X99602200Y-115778571D02*
X99506961Y-115683333D01*
X99506961Y-115683333D02*
X99411723Y-115635714D01*
X99411723Y-115635714D02*
X99221247Y-115588095D01*
X99221247Y-115588095D02*
X99078390Y-115588095D01*
X99078390Y-115588095D02*
X98887914Y-115635714D01*
X98887914Y-115635714D02*
X98792676Y-115683333D01*
X98792676Y-115683333D02*
X98697438Y-115778571D01*
X98697438Y-115778571D02*
X98649819Y-115921428D01*
X98649819Y-115921428D02*
X98649819Y-116016666D01*
X98649819Y-116016666D02*
X98697438Y-116159523D01*
X98697438Y-116159523D02*
X98745057Y-116207142D01*
X99649819Y-117159523D02*
X99649819Y-116588095D01*
X99649819Y-116873809D02*
X98649819Y-116873809D01*
X98649819Y-116873809D02*
X98792676Y-116778571D01*
X98792676Y-116778571D02*
X98887914Y-116683333D01*
X98887914Y-116683333D02*
X98935533Y-116588095D01*
X98745057Y-117540476D02*
X98697438Y-117588095D01*
X98697438Y-117588095D02*
X98649819Y-117683333D01*
X98649819Y-117683333D02*
X98649819Y-117921428D01*
X98649819Y-117921428D02*
X98697438Y-118016666D01*
X98697438Y-118016666D02*
X98745057Y-118064285D01*
X98745057Y-118064285D02*
X98840295Y-118111904D01*
X98840295Y-118111904D02*
X98935533Y-118111904D01*
X98935533Y-118111904D02*
X99078390Y-118064285D01*
X99078390Y-118064285D02*
X99649819Y-117492857D01*
X99649819Y-117492857D02*
X99649819Y-118111904D01*
X76554580Y-116207142D02*
X76602200Y-116159523D01*
X76602200Y-116159523D02*
X76649819Y-116016666D01*
X76649819Y-116016666D02*
X76649819Y-115921428D01*
X76649819Y-115921428D02*
X76602200Y-115778571D01*
X76602200Y-115778571D02*
X76506961Y-115683333D01*
X76506961Y-115683333D02*
X76411723Y-115635714D01*
X76411723Y-115635714D02*
X76221247Y-115588095D01*
X76221247Y-115588095D02*
X76078390Y-115588095D01*
X76078390Y-115588095D02*
X75887914Y-115635714D01*
X75887914Y-115635714D02*
X75792676Y-115683333D01*
X75792676Y-115683333D02*
X75697438Y-115778571D01*
X75697438Y-115778571D02*
X75649819Y-115921428D01*
X75649819Y-115921428D02*
X75649819Y-116016666D01*
X75649819Y-116016666D02*
X75697438Y-116159523D01*
X75697438Y-116159523D02*
X75745057Y-116207142D01*
X76649819Y-117159523D02*
X76649819Y-116588095D01*
X76649819Y-116873809D02*
X75649819Y-116873809D01*
X75649819Y-116873809D02*
X75792676Y-116778571D01*
X75792676Y-116778571D02*
X75887914Y-116683333D01*
X75887914Y-116683333D02*
X75935533Y-116588095D01*
X76649819Y-118111904D02*
X76649819Y-117540476D01*
X76649819Y-117826190D02*
X75649819Y-117826190D01*
X75649819Y-117826190D02*
X75792676Y-117730952D01*
X75792676Y-117730952D02*
X75887914Y-117635714D01*
X75887914Y-117635714D02*
X75935533Y-117540476D01*
X53554580Y-116207142D02*
X53602200Y-116159523D01*
X53602200Y-116159523D02*
X53649819Y-116016666D01*
X53649819Y-116016666D02*
X53649819Y-115921428D01*
X53649819Y-115921428D02*
X53602200Y-115778571D01*
X53602200Y-115778571D02*
X53506961Y-115683333D01*
X53506961Y-115683333D02*
X53411723Y-115635714D01*
X53411723Y-115635714D02*
X53221247Y-115588095D01*
X53221247Y-115588095D02*
X53078390Y-115588095D01*
X53078390Y-115588095D02*
X52887914Y-115635714D01*
X52887914Y-115635714D02*
X52792676Y-115683333D01*
X52792676Y-115683333D02*
X52697438Y-115778571D01*
X52697438Y-115778571D02*
X52649819Y-115921428D01*
X52649819Y-115921428D02*
X52649819Y-116016666D01*
X52649819Y-116016666D02*
X52697438Y-116159523D01*
X52697438Y-116159523D02*
X52745057Y-116207142D01*
X53649819Y-117159523D02*
X53649819Y-116588095D01*
X53649819Y-116873809D02*
X52649819Y-116873809D01*
X52649819Y-116873809D02*
X52792676Y-116778571D01*
X52792676Y-116778571D02*
X52887914Y-116683333D01*
X52887914Y-116683333D02*
X52935533Y-116588095D01*
X52649819Y-117778571D02*
X52649819Y-117873809D01*
X52649819Y-117873809D02*
X52697438Y-117969047D01*
X52697438Y-117969047D02*
X52745057Y-118016666D01*
X52745057Y-118016666D02*
X52840295Y-118064285D01*
X52840295Y-118064285D02*
X53030771Y-118111904D01*
X53030771Y-118111904D02*
X53268866Y-118111904D01*
X53268866Y-118111904D02*
X53459342Y-118064285D01*
X53459342Y-118064285D02*
X53554580Y-118016666D01*
X53554580Y-118016666D02*
X53602200Y-117969047D01*
X53602200Y-117969047D02*
X53649819Y-117873809D01*
X53649819Y-117873809D02*
X53649819Y-117778571D01*
X53649819Y-117778571D02*
X53602200Y-117683333D01*
X53602200Y-117683333D02*
X53554580Y-117635714D01*
X53554580Y-117635714D02*
X53459342Y-117588095D01*
X53459342Y-117588095D02*
X53268866Y-117540476D01*
X53268866Y-117540476D02*
X53030771Y-117540476D01*
X53030771Y-117540476D02*
X52840295Y-117588095D01*
X52840295Y-117588095D02*
X52745057Y-117635714D01*
X52745057Y-117635714D02*
X52697438Y-117683333D01*
X52697438Y-117683333D02*
X52649819Y-117778571D01*
X122554580Y-93683333D02*
X122602200Y-93635714D01*
X122602200Y-93635714D02*
X122649819Y-93492857D01*
X122649819Y-93492857D02*
X122649819Y-93397619D01*
X122649819Y-93397619D02*
X122602200Y-93254762D01*
X122602200Y-93254762D02*
X122506961Y-93159524D01*
X122506961Y-93159524D02*
X122411723Y-93111905D01*
X122411723Y-93111905D02*
X122221247Y-93064286D01*
X122221247Y-93064286D02*
X122078390Y-93064286D01*
X122078390Y-93064286D02*
X121887914Y-93111905D01*
X121887914Y-93111905D02*
X121792676Y-93159524D01*
X121792676Y-93159524D02*
X121697438Y-93254762D01*
X121697438Y-93254762D02*
X121649819Y-93397619D01*
X121649819Y-93397619D02*
X121649819Y-93492857D01*
X121649819Y-93492857D02*
X121697438Y-93635714D01*
X121697438Y-93635714D02*
X121745057Y-93683333D01*
X122649819Y-94159524D02*
X122649819Y-94350000D01*
X122649819Y-94350000D02*
X122602200Y-94445238D01*
X122602200Y-94445238D02*
X122554580Y-94492857D01*
X122554580Y-94492857D02*
X122411723Y-94588095D01*
X122411723Y-94588095D02*
X122221247Y-94635714D01*
X122221247Y-94635714D02*
X121840295Y-94635714D01*
X121840295Y-94635714D02*
X121745057Y-94588095D01*
X121745057Y-94588095D02*
X121697438Y-94540476D01*
X121697438Y-94540476D02*
X121649819Y-94445238D01*
X121649819Y-94445238D02*
X121649819Y-94254762D01*
X121649819Y-94254762D02*
X121697438Y-94159524D01*
X121697438Y-94159524D02*
X121745057Y-94111905D01*
X121745057Y-94111905D02*
X121840295Y-94064286D01*
X121840295Y-94064286D02*
X122078390Y-94064286D01*
X122078390Y-94064286D02*
X122173628Y-94111905D01*
X122173628Y-94111905D02*
X122221247Y-94159524D01*
X122221247Y-94159524D02*
X122268866Y-94254762D01*
X122268866Y-94254762D02*
X122268866Y-94445238D01*
X122268866Y-94445238D02*
X122221247Y-94540476D01*
X122221247Y-94540476D02*
X122173628Y-94588095D01*
X122173628Y-94588095D02*
X122078390Y-94635714D01*
X99554580Y-93683333D02*
X99602200Y-93635714D01*
X99602200Y-93635714D02*
X99649819Y-93492857D01*
X99649819Y-93492857D02*
X99649819Y-93397619D01*
X99649819Y-93397619D02*
X99602200Y-93254762D01*
X99602200Y-93254762D02*
X99506961Y-93159524D01*
X99506961Y-93159524D02*
X99411723Y-93111905D01*
X99411723Y-93111905D02*
X99221247Y-93064286D01*
X99221247Y-93064286D02*
X99078390Y-93064286D01*
X99078390Y-93064286D02*
X98887914Y-93111905D01*
X98887914Y-93111905D02*
X98792676Y-93159524D01*
X98792676Y-93159524D02*
X98697438Y-93254762D01*
X98697438Y-93254762D02*
X98649819Y-93397619D01*
X98649819Y-93397619D02*
X98649819Y-93492857D01*
X98649819Y-93492857D02*
X98697438Y-93635714D01*
X98697438Y-93635714D02*
X98745057Y-93683333D01*
X99078390Y-94254762D02*
X99030771Y-94159524D01*
X99030771Y-94159524D02*
X98983152Y-94111905D01*
X98983152Y-94111905D02*
X98887914Y-94064286D01*
X98887914Y-94064286D02*
X98840295Y-94064286D01*
X98840295Y-94064286D02*
X98745057Y-94111905D01*
X98745057Y-94111905D02*
X98697438Y-94159524D01*
X98697438Y-94159524D02*
X98649819Y-94254762D01*
X98649819Y-94254762D02*
X98649819Y-94445238D01*
X98649819Y-94445238D02*
X98697438Y-94540476D01*
X98697438Y-94540476D02*
X98745057Y-94588095D01*
X98745057Y-94588095D02*
X98840295Y-94635714D01*
X98840295Y-94635714D02*
X98887914Y-94635714D01*
X98887914Y-94635714D02*
X98983152Y-94588095D01*
X98983152Y-94588095D02*
X99030771Y-94540476D01*
X99030771Y-94540476D02*
X99078390Y-94445238D01*
X99078390Y-94445238D02*
X99078390Y-94254762D01*
X99078390Y-94254762D02*
X99126009Y-94159524D01*
X99126009Y-94159524D02*
X99173628Y-94111905D01*
X99173628Y-94111905D02*
X99268866Y-94064286D01*
X99268866Y-94064286D02*
X99459342Y-94064286D01*
X99459342Y-94064286D02*
X99554580Y-94111905D01*
X99554580Y-94111905D02*
X99602200Y-94159524D01*
X99602200Y-94159524D02*
X99649819Y-94254762D01*
X99649819Y-94254762D02*
X99649819Y-94445238D01*
X99649819Y-94445238D02*
X99602200Y-94540476D01*
X99602200Y-94540476D02*
X99554580Y-94588095D01*
X99554580Y-94588095D02*
X99459342Y-94635714D01*
X99459342Y-94635714D02*
X99268866Y-94635714D01*
X99268866Y-94635714D02*
X99173628Y-94588095D01*
X99173628Y-94588095D02*
X99126009Y-94540476D01*
X99126009Y-94540476D02*
X99078390Y-94445238D01*
X53554580Y-93683333D02*
X53602200Y-93635714D01*
X53602200Y-93635714D02*
X53649819Y-93492857D01*
X53649819Y-93492857D02*
X53649819Y-93397619D01*
X53649819Y-93397619D02*
X53602200Y-93254762D01*
X53602200Y-93254762D02*
X53506961Y-93159524D01*
X53506961Y-93159524D02*
X53411723Y-93111905D01*
X53411723Y-93111905D02*
X53221247Y-93064286D01*
X53221247Y-93064286D02*
X53078390Y-93064286D01*
X53078390Y-93064286D02*
X52887914Y-93111905D01*
X52887914Y-93111905D02*
X52792676Y-93159524D01*
X52792676Y-93159524D02*
X52697438Y-93254762D01*
X52697438Y-93254762D02*
X52649819Y-93397619D01*
X52649819Y-93397619D02*
X52649819Y-93492857D01*
X52649819Y-93492857D02*
X52697438Y-93635714D01*
X52697438Y-93635714D02*
X52745057Y-93683333D01*
X52649819Y-94540476D02*
X52649819Y-94350000D01*
X52649819Y-94350000D02*
X52697438Y-94254762D01*
X52697438Y-94254762D02*
X52745057Y-94207143D01*
X52745057Y-94207143D02*
X52887914Y-94111905D01*
X52887914Y-94111905D02*
X53078390Y-94064286D01*
X53078390Y-94064286D02*
X53459342Y-94064286D01*
X53459342Y-94064286D02*
X53554580Y-94111905D01*
X53554580Y-94111905D02*
X53602200Y-94159524D01*
X53602200Y-94159524D02*
X53649819Y-94254762D01*
X53649819Y-94254762D02*
X53649819Y-94445238D01*
X53649819Y-94445238D02*
X53602200Y-94540476D01*
X53602200Y-94540476D02*
X53554580Y-94588095D01*
X53554580Y-94588095D02*
X53459342Y-94635714D01*
X53459342Y-94635714D02*
X53221247Y-94635714D01*
X53221247Y-94635714D02*
X53126009Y-94588095D01*
X53126009Y-94588095D02*
X53078390Y-94540476D01*
X53078390Y-94540476D02*
X53030771Y-94445238D01*
X53030771Y-94445238D02*
X53030771Y-94254762D01*
X53030771Y-94254762D02*
X53078390Y-94159524D01*
X53078390Y-94159524D02*
X53126009Y-94111905D01*
X53126009Y-94111905D02*
X53221247Y-94064286D01*
X122554580Y-70683333D02*
X122602200Y-70635714D01*
X122602200Y-70635714D02*
X122649819Y-70492857D01*
X122649819Y-70492857D02*
X122649819Y-70397619D01*
X122649819Y-70397619D02*
X122602200Y-70254762D01*
X122602200Y-70254762D02*
X122506961Y-70159524D01*
X122506961Y-70159524D02*
X122411723Y-70111905D01*
X122411723Y-70111905D02*
X122221247Y-70064286D01*
X122221247Y-70064286D02*
X122078390Y-70064286D01*
X122078390Y-70064286D02*
X121887914Y-70111905D01*
X121887914Y-70111905D02*
X121792676Y-70159524D01*
X121792676Y-70159524D02*
X121697438Y-70254762D01*
X121697438Y-70254762D02*
X121649819Y-70397619D01*
X121649819Y-70397619D02*
X121649819Y-70492857D01*
X121649819Y-70492857D02*
X121697438Y-70635714D01*
X121697438Y-70635714D02*
X121745057Y-70683333D01*
X121649819Y-71588095D02*
X121649819Y-71111905D01*
X121649819Y-71111905D02*
X122126009Y-71064286D01*
X122126009Y-71064286D02*
X122078390Y-71111905D01*
X122078390Y-71111905D02*
X122030771Y-71207143D01*
X122030771Y-71207143D02*
X122030771Y-71445238D01*
X122030771Y-71445238D02*
X122078390Y-71540476D01*
X122078390Y-71540476D02*
X122126009Y-71588095D01*
X122126009Y-71588095D02*
X122221247Y-71635714D01*
X122221247Y-71635714D02*
X122459342Y-71635714D01*
X122459342Y-71635714D02*
X122554580Y-71588095D01*
X122554580Y-71588095D02*
X122602200Y-71540476D01*
X122602200Y-71540476D02*
X122649819Y-71445238D01*
X122649819Y-71445238D02*
X122649819Y-71207143D01*
X122649819Y-71207143D02*
X122602200Y-71111905D01*
X122602200Y-71111905D02*
X122554580Y-71064286D01*
X99554580Y-70683333D02*
X99602200Y-70635714D01*
X99602200Y-70635714D02*
X99649819Y-70492857D01*
X99649819Y-70492857D02*
X99649819Y-70397619D01*
X99649819Y-70397619D02*
X99602200Y-70254762D01*
X99602200Y-70254762D02*
X99506961Y-70159524D01*
X99506961Y-70159524D02*
X99411723Y-70111905D01*
X99411723Y-70111905D02*
X99221247Y-70064286D01*
X99221247Y-70064286D02*
X99078390Y-70064286D01*
X99078390Y-70064286D02*
X98887914Y-70111905D01*
X98887914Y-70111905D02*
X98792676Y-70159524D01*
X98792676Y-70159524D02*
X98697438Y-70254762D01*
X98697438Y-70254762D02*
X98649819Y-70397619D01*
X98649819Y-70397619D02*
X98649819Y-70492857D01*
X98649819Y-70492857D02*
X98697438Y-70635714D01*
X98697438Y-70635714D02*
X98745057Y-70683333D01*
X98983152Y-71540476D02*
X99649819Y-71540476D01*
X98602200Y-71302381D02*
X99316485Y-71064286D01*
X99316485Y-71064286D02*
X99316485Y-71683333D01*
X53554580Y-70683333D02*
X53602200Y-70635714D01*
X53602200Y-70635714D02*
X53649819Y-70492857D01*
X53649819Y-70492857D02*
X53649819Y-70397619D01*
X53649819Y-70397619D02*
X53602200Y-70254762D01*
X53602200Y-70254762D02*
X53506961Y-70159524D01*
X53506961Y-70159524D02*
X53411723Y-70111905D01*
X53411723Y-70111905D02*
X53221247Y-70064286D01*
X53221247Y-70064286D02*
X53078390Y-70064286D01*
X53078390Y-70064286D02*
X52887914Y-70111905D01*
X52887914Y-70111905D02*
X52792676Y-70159524D01*
X52792676Y-70159524D02*
X52697438Y-70254762D01*
X52697438Y-70254762D02*
X52649819Y-70397619D01*
X52649819Y-70397619D02*
X52649819Y-70492857D01*
X52649819Y-70492857D02*
X52697438Y-70635714D01*
X52697438Y-70635714D02*
X52745057Y-70683333D01*
X52745057Y-71064286D02*
X52697438Y-71111905D01*
X52697438Y-71111905D02*
X52649819Y-71207143D01*
X52649819Y-71207143D02*
X52649819Y-71445238D01*
X52649819Y-71445238D02*
X52697438Y-71540476D01*
X52697438Y-71540476D02*
X52745057Y-71588095D01*
X52745057Y-71588095D02*
X52840295Y-71635714D01*
X52840295Y-71635714D02*
X52935533Y-71635714D01*
X52935533Y-71635714D02*
X53078390Y-71588095D01*
X53078390Y-71588095D02*
X53649819Y-71016667D01*
X53649819Y-71016667D02*
X53649819Y-71635714D01*
X59013339Y-94584104D02*
X58537149Y-94584104D01*
X59108577Y-94869819D02*
X58775244Y-93869819D01*
X58775244Y-93869819D02*
X58441911Y-94869819D01*
X57584768Y-94869819D02*
X58156196Y-94869819D01*
X57870482Y-94869819D02*
X57870482Y-93869819D01*
X57870482Y-93869819D02*
X57965720Y-94012676D01*
X57965720Y-94012676D02*
X58060958Y-94107914D01*
X58060958Y-94107914D02*
X58156196Y-94155533D01*
D11*
%TO.C,J2*%
X102530000Y-56720000D02*
X110200000Y-56720000D01*
X102530000Y-56720000D02*
X102530000Y-55500000D01*
X110200000Y-55000000D02*
X108870000Y-55000000D01*
X108870000Y-55000000D02*
X108870000Y-44380000D01*
X102530000Y-51500000D02*
X102530000Y-53900000D01*
X102530000Y-48500000D02*
X102530000Y-49900000D01*
X108870000Y-44380000D02*
X108320000Y-44380000D01*
X108320000Y-44380000D02*
X108320000Y-42380000D01*
X103080000Y-44380000D02*
X102530000Y-44380000D01*
X102530000Y-44380000D02*
X102530000Y-46900000D01*
X108320000Y-42380000D02*
X103080000Y-42380000D01*
X103080000Y-42380000D02*
X103080000Y-44380000D01*
%TO.C,R3*%
X113002500Y-57507776D02*
X113002500Y-58017224D01*
X114047500Y-57507776D02*
X114047500Y-58017224D01*
%TO.C,R2*%
X101352500Y-63582776D02*
X101352500Y-64092224D01*
X102397500Y-63582776D02*
X102397500Y-64092224D01*
%TO.C,D19*%
X105502500Y-65685000D02*
X107022500Y-65685000D01*
X105502500Y-65635000D02*
X105502500Y-65685000D01*
X105502500Y-63735000D02*
X105502500Y-64515000D01*
X105502500Y-62565000D02*
X105502500Y-62615000D01*
X107022500Y-65685000D02*
X107022500Y-64685000D01*
X107022500Y-63565000D02*
X107022500Y-62565000D01*
X107022500Y-62565000D02*
X105502500Y-62565000D01*
X104962500Y-64505000D02*
X104722500Y-64175000D01*
X105202500Y-64175000D01*
X104962500Y-64505000D01*
G36*
X104962500Y-64505000D02*
G01*
X104722500Y-64175000D01*
X105202500Y-64175000D01*
X104962500Y-64505000D01*
G37*
%TO.C,C20*%
X97810000Y-105171267D02*
X97810000Y-104878733D01*
X96790000Y-105171267D02*
X96790000Y-104878733D01*
%TO.C,C19*%
X74635000Y-105346267D02*
X74635000Y-105053733D01*
X73615000Y-105346267D02*
X73615000Y-105053733D01*
%TO.C,C18*%
X51710000Y-105471267D02*
X51710000Y-105178733D01*
X50690000Y-105471267D02*
X50690000Y-105178733D01*
%TO.C,C3*%
X78135000Y-70703733D02*
X78135000Y-70996267D01*
X77115000Y-70703733D02*
X77115000Y-70996267D01*
%TO.C,C7*%
X78135000Y-93703733D02*
X78135000Y-93996267D01*
X77115000Y-93703733D02*
X77115000Y-93996267D01*
%TO.C,D6*%
X74775000Y-92200000D02*
X74790000Y-95795000D01*
X74365000Y-91740000D02*
X74775000Y-92200000D01*
X67472370Y-95789900D02*
X67457500Y-91775000D01*
X67465000Y-95790000D02*
X74790000Y-95790000D01*
X67457500Y-91775000D02*
X74325000Y-91740000D01*
%TO.C,D2*%
X74775000Y-69200000D02*
X74790000Y-72795000D01*
X74365000Y-68740000D02*
X74775000Y-69200000D01*
X67472370Y-72789900D02*
X67457500Y-68775000D01*
X67465000Y-72790000D02*
X74790000Y-72790000D01*
X67457500Y-68775000D02*
X74325000Y-68740000D01*
%TO.C,D16*%
X113457500Y-137775000D02*
X120325000Y-137740000D01*
X113465000Y-141790000D02*
X120790000Y-141790000D01*
X113472370Y-141789900D02*
X113457500Y-137775000D01*
X120365000Y-137740000D02*
X120775000Y-138200000D01*
X120775000Y-138200000D02*
X120790000Y-141795000D01*
%TO.C,D15*%
X90457500Y-137775000D02*
X97325000Y-137740000D01*
X90465000Y-141790000D02*
X97790000Y-141790000D01*
X90472370Y-141789900D02*
X90457500Y-137775000D01*
X97365000Y-137740000D02*
X97775000Y-138200000D01*
X97775000Y-138200000D02*
X97790000Y-141795000D01*
%TO.C,D14*%
X67457500Y-137775000D02*
X74325000Y-137740000D01*
X67465000Y-141790000D02*
X74790000Y-141790000D01*
X67472370Y-141789900D02*
X67457500Y-137775000D01*
X74365000Y-137740000D02*
X74775000Y-138200000D01*
X74775000Y-138200000D02*
X74790000Y-141795000D01*
%TO.C,D13*%
X44457500Y-137775000D02*
X51325000Y-137740000D01*
X44465000Y-141790000D02*
X51790000Y-141790000D01*
X44472370Y-141789900D02*
X44457500Y-137775000D01*
X51365000Y-137740000D02*
X51775000Y-138200000D01*
X51775000Y-138200000D02*
X51790000Y-141795000D01*
%TO.C,D12*%
X113457500Y-114775000D02*
X120325000Y-114740000D01*
X113465000Y-118790000D02*
X120790000Y-118790000D01*
X113472370Y-118789900D02*
X113457500Y-114775000D01*
X120365000Y-114740000D02*
X120775000Y-115200000D01*
X120775000Y-115200000D02*
X120790000Y-118795000D01*
%TO.C,D11*%
X90457500Y-114775000D02*
X97325000Y-114740000D01*
X90465000Y-118790000D02*
X97790000Y-118790000D01*
X90472370Y-118789900D02*
X90457500Y-114775000D01*
X97365000Y-114740000D02*
X97775000Y-115200000D01*
X97775000Y-115200000D02*
X97790000Y-118795000D01*
%TO.C,D10*%
X67457500Y-114775000D02*
X74325000Y-114740000D01*
X67465000Y-118790000D02*
X74790000Y-118790000D01*
X67472370Y-118789900D02*
X67457500Y-114775000D01*
X74365000Y-114740000D02*
X74775000Y-115200000D01*
X74775000Y-115200000D02*
X74790000Y-118795000D01*
%TO.C,D9*%
X44457500Y-114775000D02*
X51325000Y-114740000D01*
X44465000Y-118790000D02*
X51790000Y-118790000D01*
X44472370Y-118789900D02*
X44457500Y-114775000D01*
X51365000Y-114740000D02*
X51775000Y-115200000D01*
X51775000Y-115200000D02*
X51790000Y-118795000D01*
%TO.C,D8*%
X113457500Y-91775000D02*
X120325000Y-91740000D01*
X113465000Y-95790000D02*
X120790000Y-95790000D01*
X113472370Y-95789900D02*
X113457500Y-91775000D01*
X120365000Y-91740000D02*
X120775000Y-92200000D01*
X120775000Y-92200000D02*
X120790000Y-95795000D01*
%TO.C,D7*%
X90457500Y-91775000D02*
X97325000Y-91740000D01*
X90465000Y-95790000D02*
X97790000Y-95790000D01*
X90472370Y-95789900D02*
X90457500Y-91775000D01*
X97365000Y-91740000D02*
X97775000Y-92200000D01*
X97775000Y-92200000D02*
X97790000Y-95795000D01*
%TO.C,D5*%
X44457500Y-91775000D02*
X51325000Y-91740000D01*
X44465000Y-95790000D02*
X51790000Y-95790000D01*
X44472370Y-95789900D02*
X44457500Y-91775000D01*
X51365000Y-91740000D02*
X51775000Y-92200000D01*
X51775000Y-92200000D02*
X51790000Y-95795000D01*
%TO.C,D4*%
X113457500Y-68775000D02*
X120325000Y-68740000D01*
X113465000Y-72790000D02*
X120790000Y-72790000D01*
X113472370Y-72789900D02*
X113457500Y-68775000D01*
X120365000Y-68740000D02*
X120775000Y-69200000D01*
X120775000Y-69200000D02*
X120790000Y-72795000D01*
%TO.C,D3*%
X90457500Y-68775000D02*
X97325000Y-68740000D01*
X90465000Y-72790000D02*
X97790000Y-72790000D01*
X90472370Y-72789900D02*
X90457500Y-68775000D01*
X97365000Y-68740000D02*
X97775000Y-69200000D01*
X97775000Y-69200000D02*
X97790000Y-72795000D01*
%TO.C,D1*%
X44457500Y-68775000D02*
X51325000Y-68740000D01*
X44465000Y-72790000D02*
X51790000Y-72790000D01*
X44472370Y-72789900D02*
X44457500Y-68775000D01*
X51365000Y-68740000D02*
X51775000Y-69200000D01*
X51775000Y-69200000D02*
X51790000Y-72795000D01*
%TO.C,U3*%
X110060000Y-107735000D02*
X110060000Y-102215000D01*
X109885000Y-107735000D02*
X110060000Y-107735000D01*
X101640000Y-107735000D02*
X101815000Y-107735000D01*
X110060000Y-102215000D02*
X109885000Y-102215000D01*
X101815000Y-102215000D02*
X101640000Y-102215000D01*
X101640000Y-102215000D02*
X101640000Y-107735000D01*
X110360000Y-108815000D02*
X109890000Y-108475000D01*
X110360000Y-108135000D01*
X110360000Y-108815000D01*
G36*
X110360000Y-108815000D02*
G01*
X109890000Y-108475000D01*
X110360000Y-108135000D01*
X110360000Y-108815000D01*
G37*
%TO.C,U2*%
X86685000Y-107735000D02*
X86685000Y-102215000D01*
X86510000Y-107735000D02*
X86685000Y-107735000D01*
X78265000Y-107735000D02*
X78440000Y-107735000D01*
X86685000Y-102215000D02*
X86510000Y-102215000D01*
X78440000Y-102215000D02*
X78265000Y-102215000D01*
X78265000Y-102215000D02*
X78265000Y-107735000D01*
X86985000Y-108815000D02*
X86515000Y-108475000D01*
X86985000Y-108135000D01*
X86985000Y-108815000D01*
G36*
X86985000Y-108815000D02*
G01*
X86515000Y-108475000D01*
X86985000Y-108135000D01*
X86985000Y-108815000D01*
G37*
%TO.C,U1*%
X54615000Y-102240000D02*
X54615000Y-107760000D01*
X54790000Y-102240000D02*
X54615000Y-102240000D01*
X63035000Y-102240000D02*
X62860000Y-102240000D01*
X54615000Y-107760000D02*
X54790000Y-107760000D01*
X62860000Y-107760000D02*
X63035000Y-107760000D01*
X63035000Y-107760000D02*
X63035000Y-102240000D01*
X54785000Y-101500000D02*
X54315000Y-101840000D01*
X54315000Y-101160000D01*
X54785000Y-101500000D01*
G36*
X54785000Y-101500000D02*
G01*
X54315000Y-101840000D01*
X54315000Y-101160000D01*
X54785000Y-101500000D01*
G37*
%TO.C,C17*%
X123115000Y-139703733D02*
X123115000Y-139996267D01*
X124135000Y-139703733D02*
X124135000Y-139996267D01*
%TO.C,C16*%
X100115000Y-139703733D02*
X100115000Y-139996267D01*
X101135000Y-139703733D02*
X101135000Y-139996267D01*
%TO.C,C15*%
X77115000Y-139703733D02*
X77115000Y-139996267D01*
X78135000Y-139703733D02*
X78135000Y-139996267D01*
%TO.C,C14*%
X54115000Y-139703733D02*
X54115000Y-139996267D01*
X55135000Y-139703733D02*
X55135000Y-139996267D01*
%TO.C,C13*%
X123115000Y-116703733D02*
X123115000Y-116996267D01*
X124135000Y-116703733D02*
X124135000Y-116996267D01*
%TO.C,C12*%
X100115000Y-116703733D02*
X100115000Y-116996267D01*
X101135000Y-116703733D02*
X101135000Y-116996267D01*
%TO.C,C11*%
X77115000Y-116703733D02*
X77115000Y-116996267D01*
X78135000Y-116703733D02*
X78135000Y-116996267D01*
%TO.C,C10*%
X54115000Y-116703733D02*
X54115000Y-116996267D01*
X55135000Y-116703733D02*
X55135000Y-116996267D01*
%TO.C,C9*%
X123115000Y-93703733D02*
X123115000Y-93996267D01*
X124135000Y-93703733D02*
X124135000Y-93996267D01*
%TO.C,C8*%
X100115000Y-93703733D02*
X100115000Y-93996267D01*
X101135000Y-93703733D02*
X101135000Y-93996267D01*
%TO.C,C6*%
X54115000Y-93703733D02*
X54115000Y-93996267D01*
X55135000Y-93703733D02*
X55135000Y-93996267D01*
%TO.C,C5*%
X123115000Y-70703733D02*
X123115000Y-70996267D01*
X124135000Y-70703733D02*
X124135000Y-70996267D01*
%TO.C,C4*%
X100115000Y-70703733D02*
X100115000Y-70996267D01*
X101135000Y-70703733D02*
X101135000Y-70996267D01*
%TO.C,C2*%
X54115000Y-70703733D02*
X54115000Y-70996267D01*
X55135000Y-70703733D02*
X55135000Y-70996267D01*
%TO.C,A1*%
X81660000Y-46580000D02*
X82140000Y-46580000D01*
X81660000Y-46580000D02*
X81660000Y-47000000D01*
X81660000Y-49120000D02*
X81660000Y-49540000D01*
X81660000Y-51660000D02*
X81660000Y-52080000D01*
X81660000Y-54200000D02*
X81660000Y-54620000D01*
X81660000Y-56740000D02*
X81660000Y-57160000D01*
X81660000Y-59280000D02*
X81660000Y-59700000D01*
X81660000Y-61820000D02*
X81660000Y-62240000D01*
X81660000Y-64360000D02*
X81660000Y-64780000D01*
X81660000Y-66900000D02*
X81660000Y-67320000D01*
X81660000Y-69440000D02*
X81660000Y-69860000D01*
X81660000Y-71980000D02*
X81660000Y-72400000D01*
X81660000Y-74520000D02*
X81660000Y-74940000D01*
X81660000Y-77060000D02*
X81660000Y-77480000D01*
X81660000Y-79600000D02*
X81660000Y-80020000D01*
X81660000Y-82140000D02*
X81660000Y-82560000D01*
X81660000Y-84680000D02*
X81660000Y-85100000D01*
X81660000Y-87220000D02*
X81660000Y-87640000D01*
X81660000Y-89760000D02*
X81660000Y-90180000D01*
X81660000Y-92300000D02*
X81660000Y-92720000D01*
X81629676Y-44460000D02*
X82140000Y-44460000D01*
X81320000Y-44460063D02*
X81320000Y-44103000D01*
X81320000Y-46580000D02*
X81320000Y-47000000D01*
X81320000Y-49120000D02*
X81320000Y-49540000D01*
X81320000Y-51660000D02*
X81320000Y-52080000D01*
X81320000Y-54200000D02*
X81320000Y-54620000D01*
X81320000Y-56740000D02*
X81320000Y-57160000D01*
X81320000Y-59280000D02*
X81320000Y-59700000D01*
X81320000Y-61820000D02*
X81320000Y-62240000D01*
X81320000Y-64360000D02*
X81320000Y-64780000D01*
X81320000Y-66900000D02*
X81320000Y-67320000D01*
X81320000Y-69440000D02*
X81320000Y-69860000D01*
X81320000Y-71980000D02*
X81320000Y-72400000D01*
X81320000Y-74520000D02*
X81320000Y-74940000D01*
X81320000Y-77060000D02*
X81320000Y-77480000D01*
X81320000Y-79600000D02*
X81320000Y-80020000D01*
X81320000Y-82140000D02*
X81320000Y-82560000D01*
X81320000Y-84680000D02*
X81320000Y-85100000D01*
X81320000Y-87220000D02*
X81320000Y-87640000D01*
X81320000Y-89760000D02*
X81320000Y-90180000D01*
X81320000Y-92300000D02*
X81320000Y-92720000D01*
X81320000Y-94839937D02*
X81320000Y-95197000D01*
X81050000Y-44040000D02*
X78560000Y-44040000D01*
X81050000Y-95260000D02*
X77212061Y-95260000D01*
X78560000Y-44040000D02*
X78560000Y-44953520D01*
X78560000Y-44040000D02*
X77212060Y-44040000D01*
X78560000Y-47346480D02*
X78560000Y-91953520D01*
X78560000Y-94346480D02*
X78560000Y-95260000D01*
X76287939Y-44040000D02*
X75285000Y-44040000D01*
X75285000Y-44040000D02*
X66815000Y-44040000D01*
X74950000Y-44040000D02*
X74950000Y-44956000D01*
X74950000Y-47344000D02*
X74950000Y-48560000D01*
X74950000Y-48560000D02*
X74653910Y-48560000D01*
X74650000Y-95260000D02*
X76287939Y-95260000D01*
X72296090Y-48560000D02*
X69803910Y-48560000D01*
X67450000Y-95260000D02*
X74650000Y-95260000D01*
X67446090Y-48560000D02*
X67150000Y-48560000D01*
X67150000Y-44040000D02*
X67150000Y-44956000D01*
X67150000Y-47344000D02*
X67150000Y-48560000D01*
X66815000Y-44040000D02*
X65812061Y-44040000D01*
X65812061Y-95260000D02*
X67450000Y-95260000D01*
X64887939Y-44040000D02*
X63540000Y-44040000D01*
X64887939Y-95260000D02*
X61050000Y-95260000D01*
X63540000Y-44040000D02*
X63540000Y-44953520D01*
X63540000Y-47346480D02*
X63540000Y-91953520D01*
X63540000Y-94346480D02*
X63540000Y-95260000D01*
X61050000Y-44040000D02*
X63540000Y-44040000D01*
X60780000Y-44460063D02*
X60780000Y-44103000D01*
X60780000Y-46580000D02*
X60780000Y-47000000D01*
X60780000Y-49120000D02*
X60780000Y-49540000D01*
X60780000Y-51660000D02*
X60780000Y-52080000D01*
X60780000Y-54200000D02*
X60780000Y-54620000D01*
X60780000Y-56740000D02*
X60780000Y-57160000D01*
X60780000Y-59280000D02*
X60780000Y-59700000D01*
X60780000Y-61820000D02*
X60780000Y-62240000D01*
X60780000Y-64360000D02*
X60780000Y-64780000D01*
X60780000Y-66900000D02*
X60780000Y-67320000D01*
X60780000Y-69440000D02*
X60780000Y-69860000D01*
X60780000Y-71980000D02*
X60780000Y-72400000D01*
X60780000Y-74520000D02*
X60780000Y-74940000D01*
X60780000Y-77060000D02*
X60780000Y-77480000D01*
X60780000Y-79600000D02*
X60780000Y-80020000D01*
X60780000Y-82140000D02*
X60780000Y-82560000D01*
X60780000Y-84680000D02*
X60780000Y-85100000D01*
X60780000Y-87220000D02*
X60780000Y-87640000D01*
X60780000Y-89760000D02*
X60780000Y-90180000D01*
X60780000Y-92300000D02*
X60780000Y-92720000D01*
X60780000Y-94839937D02*
X60780000Y-95197000D01*
X60440000Y-46580000D02*
X60440000Y-47000000D01*
X60440000Y-49120000D02*
X60440000Y-49540000D01*
X60440000Y-51660000D02*
X60440000Y-52080000D01*
X60440000Y-54200000D02*
X60440000Y-54620000D01*
X60440000Y-56740000D02*
X60440000Y-57160000D01*
X60440000Y-59280000D02*
X60440000Y-59700000D01*
X60440000Y-61820000D02*
X60440000Y-62240000D01*
X60440000Y-64360000D02*
X60440000Y-64780000D01*
X60440000Y-66900000D02*
X60440000Y-67320000D01*
X60440000Y-69440000D02*
X60440000Y-69860000D01*
X60440000Y-71980000D02*
X60440000Y-72400000D01*
X60440000Y-74520000D02*
X60440000Y-74940000D01*
X60440000Y-77060000D02*
X60440000Y-77480000D01*
X60440000Y-79600000D02*
X60440000Y-80020000D01*
X60440000Y-82140000D02*
X60440000Y-82560000D01*
X60440000Y-84680000D02*
X60440000Y-85100000D01*
X60440000Y-87220000D02*
X60440000Y-87640000D01*
X60440000Y-89760000D02*
X60440000Y-90180000D01*
X60440000Y-92300000D02*
X60440000Y-92720000D01*
X81050000Y-44040000D02*
G75*
G02*
X81629676Y-44460000I-16J-610051D01*
G01*
X81629676Y-94839937D02*
G75*
G02*
X81050000Y-95260000I-579677J189939D01*
G01*
X60470324Y-44460063D02*
G75*
G02*
X61050000Y-44040000I579676J-189937D01*
G01*
X61050000Y-95260000D02*
G75*
G02*
X60470390Y-94839915I0J609900D01*
G01*
%TD*%
%LPC*%
D12*
%TO.C,SW2*%
X68575000Y-66500000D03*
D13*
X73575000Y-66500000D03*
X71075000Y-66500000D03*
X73575000Y-52000000D03*
X68575000Y-52000000D03*
%TD*%
D12*
%TO.C,SW1*%
X45575000Y-66500000D03*
D13*
X50575000Y-66500000D03*
X48075000Y-66500000D03*
X50575000Y-52000000D03*
X45575000Y-52000000D03*
%TD*%
D12*
%TO.C,SW3*%
X91575000Y-66500000D03*
D13*
X96575000Y-66500000D03*
X94075000Y-66500000D03*
X96575000Y-52000000D03*
X91575000Y-52000000D03*
%TD*%
D12*
%TO.C,SW4*%
X114575000Y-66500000D03*
D13*
X119575000Y-66500000D03*
X117075000Y-66500000D03*
X119575000Y-52000000D03*
X114575000Y-52000000D03*
%TD*%
D14*
%TO.C,J2*%
X102450000Y-54700000D03*
X108950000Y-55800000D03*
X102450000Y-47700000D03*
X102450000Y-50700000D03*
D15*
X105700000Y-53100000D03*
X105700000Y-46100000D03*
%TD*%
D12*
%TO.C,SW18*%
X114525000Y-158575000D03*
D13*
X119525000Y-158575000D03*
X117025000Y-158575000D03*
X119525000Y-144075000D03*
X114525000Y-144075000D03*
%TD*%
D12*
%TO.C,SW17*%
X45575000Y-158500000D03*
D13*
X50575000Y-158500000D03*
X48075000Y-158500000D03*
X50575000Y-144000000D03*
X45575000Y-144000000D03*
%TD*%
D12*
%TO.C,SW16*%
X114575000Y-135500000D03*
D13*
X119575000Y-135500000D03*
X117075000Y-135500000D03*
X119575000Y-121000000D03*
X114575000Y-121000000D03*
%TD*%
D12*
%TO.C,SW15*%
X91575000Y-135500000D03*
D13*
X96575000Y-135500000D03*
X94075000Y-135500000D03*
X96575000Y-121000000D03*
X91575000Y-121000000D03*
%TD*%
D12*
%TO.C,SW14*%
X68575000Y-135500000D03*
D13*
X73575000Y-135500000D03*
X71075000Y-135500000D03*
X73575000Y-121000000D03*
X68575000Y-121000000D03*
%TD*%
D12*
%TO.C,SW13*%
X45575000Y-135500000D03*
D13*
X50575000Y-135500000D03*
X48075000Y-135500000D03*
X50575000Y-121000000D03*
X45575000Y-121000000D03*
%TD*%
D12*
%TO.C,SW9*%
X45575000Y-112500000D03*
D13*
X50575000Y-112500000D03*
X48075000Y-112500000D03*
X50575000Y-98000000D03*
X45575000Y-98000000D03*
%TD*%
D12*
%TO.C,SW10*%
X68575000Y-112500000D03*
D13*
X73575000Y-112500000D03*
X71075000Y-112500000D03*
X73575000Y-98000000D03*
X68575000Y-98000000D03*
%TD*%
D12*
%TO.C,SW11*%
X91575000Y-112500000D03*
D13*
X96575000Y-112500000D03*
X94075000Y-112500000D03*
X96575000Y-98000000D03*
X91575000Y-98000000D03*
%TD*%
D12*
%TO.C,SW12*%
X114575000Y-112500000D03*
D13*
X119575000Y-112500000D03*
X117075000Y-112500000D03*
X119575000Y-98000000D03*
X114575000Y-98000000D03*
%TD*%
D12*
%TO.C,SW8*%
X114575000Y-89500000D03*
D13*
X119575000Y-89500000D03*
X117075000Y-89500000D03*
X119575000Y-75000000D03*
X114575000Y-75000000D03*
%TD*%
D12*
%TO.C,SW7*%
X91575000Y-89500000D03*
D13*
X96575000Y-89500000D03*
X94075000Y-89500000D03*
X96575000Y-75000000D03*
X91575000Y-75000000D03*
%TD*%
D12*
%TO.C,SW6*%
X68575000Y-89500000D03*
D13*
X73575000Y-89500000D03*
X71075000Y-89500000D03*
X73575000Y-75000000D03*
X68575000Y-75000000D03*
%TD*%
D12*
%TO.C,SW5*%
X45575000Y-89500000D03*
D13*
X50575000Y-89500000D03*
X48075000Y-89500000D03*
X50575000Y-75000000D03*
X45575000Y-75000000D03*
%TD*%
D16*
%TO.C,H1*%
X38275000Y-47500000D03*
%TD*%
D17*
%TO.C,R3*%
X113525000Y-56850000D03*
X113525000Y-58675000D03*
%TD*%
%TO.C,R2*%
X101875000Y-62925000D03*
X101875000Y-64750000D03*
%TD*%
D18*
%TO.C,D19*%
X105325000Y-65075000D03*
X105325000Y-63175000D03*
X107200000Y-64125000D03*
%TD*%
D19*
%TO.C,C20*%
X97300000Y-105887500D03*
X97300000Y-104162500D03*
%TD*%
%TO.C,C19*%
X74125000Y-106062500D03*
X74125000Y-104337500D03*
%TD*%
%TO.C,C18*%
X51200000Y-106187500D03*
X51200000Y-104462500D03*
%TD*%
D20*
%TO.C,C3*%
X77625000Y-71712500D03*
X77625000Y-69987500D03*
%TD*%
%TO.C,C7*%
X77625000Y-94712500D03*
X77625000Y-92987500D03*
%TD*%
D21*
%TO.C,D6*%
X68565000Y-94980000D03*
X68555000Y-92780000D03*
X73745000Y-92770000D03*
X73745000Y-94990000D03*
%TD*%
%TO.C,D2*%
X68565000Y-71980000D03*
X68555000Y-69780000D03*
X73745000Y-69770000D03*
X73745000Y-71990000D03*
%TD*%
%TO.C,D16*%
X119745000Y-140990000D03*
X119745000Y-138770000D03*
X114555000Y-138780000D03*
X114565000Y-140980000D03*
%TD*%
%TO.C,D15*%
X96745000Y-140990000D03*
X96745000Y-138770000D03*
X91555000Y-138780000D03*
X91565000Y-140980000D03*
%TD*%
%TO.C,D14*%
X73745000Y-140990000D03*
X73745000Y-138770000D03*
X68555000Y-138780000D03*
X68565000Y-140980000D03*
%TD*%
%TO.C,D13*%
X50745000Y-140990000D03*
X50745000Y-138770000D03*
X45555000Y-138780000D03*
X45565000Y-140980000D03*
%TD*%
%TO.C,D12*%
X119745000Y-117990000D03*
X119745000Y-115770000D03*
X114555000Y-115780000D03*
X114565000Y-117980000D03*
%TD*%
%TO.C,D11*%
X96745000Y-117990000D03*
X96745000Y-115770000D03*
X91555000Y-115780000D03*
X91565000Y-117980000D03*
%TD*%
%TO.C,D10*%
X73745000Y-117990000D03*
X73745000Y-115770000D03*
X68555000Y-115780000D03*
X68565000Y-117980000D03*
%TD*%
%TO.C,D9*%
X50745000Y-117990000D03*
X50745000Y-115770000D03*
X45555000Y-115780000D03*
X45565000Y-117980000D03*
%TD*%
%TO.C,D8*%
X119745000Y-94990000D03*
X119745000Y-92770000D03*
X114555000Y-92780000D03*
X114565000Y-94980000D03*
%TD*%
%TO.C,D7*%
X96745000Y-94990000D03*
X96745000Y-92770000D03*
X91555000Y-92780000D03*
X91565000Y-94980000D03*
%TD*%
%TO.C,D5*%
X50745000Y-94990000D03*
X50745000Y-92770000D03*
X45555000Y-92780000D03*
X45565000Y-94980000D03*
%TD*%
%TO.C,D4*%
X119745000Y-71990000D03*
X119745000Y-69770000D03*
X114555000Y-69780000D03*
X114565000Y-71980000D03*
%TD*%
%TO.C,D3*%
X96745000Y-71990000D03*
X96745000Y-69770000D03*
X91555000Y-69780000D03*
X91565000Y-71980000D03*
%TD*%
%TO.C,D1*%
X50745000Y-71990000D03*
X50745000Y-69770000D03*
X45555000Y-69780000D03*
X45565000Y-71980000D03*
%TD*%
D16*
%TO.C,H4*%
X38300000Y-162425000D03*
%TD*%
%TO.C,H3*%
X126775000Y-162475000D03*
%TD*%
%TO.C,H2*%
X127100000Y-47425000D03*
%TD*%
D22*
%TO.C,U4*%
X100450000Y-148820000D03*
D23*
X100450000Y-151360000D03*
X100450000Y-153900000D03*
X100450000Y-156440000D03*
%TD*%
D24*
%TO.C,U3*%
X109425000Y-108475000D03*
X108775000Y-108475000D03*
X108125000Y-108475000D03*
X107475000Y-108475000D03*
X106825000Y-108475000D03*
X106175000Y-108475000D03*
X105525000Y-108475000D03*
X104875000Y-108475000D03*
X104225000Y-108475000D03*
X103575000Y-108475000D03*
X102925000Y-108475000D03*
X102275000Y-108475000D03*
X102275000Y-101475000D03*
X102925000Y-101475000D03*
X103575000Y-101475000D03*
X104225000Y-101475000D03*
X104875000Y-101475000D03*
X105525000Y-101475000D03*
X106175000Y-101475000D03*
X106825000Y-101475000D03*
X107475000Y-101475000D03*
X108125000Y-101475000D03*
X108775000Y-101475000D03*
X109425000Y-101475000D03*
%TD*%
%TO.C,U2*%
X86050000Y-108475000D03*
X85400000Y-108475000D03*
X84750000Y-108475000D03*
X84100000Y-108475000D03*
X83450000Y-108475000D03*
X82800000Y-108475000D03*
X82150000Y-108475000D03*
X81500000Y-108475000D03*
X80850000Y-108475000D03*
X80200000Y-108475000D03*
X79550000Y-108475000D03*
X78900000Y-108475000D03*
X78900000Y-101475000D03*
X79550000Y-101475000D03*
X80200000Y-101475000D03*
X80850000Y-101475000D03*
X81500000Y-101475000D03*
X82150000Y-101475000D03*
X82800000Y-101475000D03*
X83450000Y-101475000D03*
X84100000Y-101475000D03*
X84750000Y-101475000D03*
X85400000Y-101475000D03*
X86050000Y-101475000D03*
%TD*%
D25*
%TO.C,U1*%
X55250000Y-101500000D03*
X55900000Y-101500000D03*
X56550000Y-101500000D03*
X57200000Y-101500000D03*
X57850000Y-101500000D03*
X58500000Y-101500000D03*
X59150000Y-101500000D03*
X59800000Y-101500000D03*
X60450000Y-101500000D03*
X61100000Y-101500000D03*
X61750000Y-101500000D03*
X62400000Y-101500000D03*
X62400000Y-108500000D03*
X61750000Y-108500000D03*
X61100000Y-108500000D03*
X60450000Y-108500000D03*
X59800000Y-108500000D03*
X59150000Y-108500000D03*
X58500000Y-108500000D03*
X57850000Y-108500000D03*
X57200000Y-108500000D03*
X56550000Y-108500000D03*
X55900000Y-108500000D03*
X55250000Y-108500000D03*
%TD*%
D20*
%TO.C,C17*%
X123625000Y-138987500D03*
X123625000Y-140712500D03*
%TD*%
%TO.C,C16*%
X100625000Y-138987500D03*
X100625000Y-140712500D03*
%TD*%
%TO.C,C15*%
X77625000Y-138987500D03*
X77625000Y-140712500D03*
%TD*%
%TO.C,C14*%
X54625000Y-138987500D03*
X54625000Y-140712500D03*
%TD*%
%TO.C,C13*%
X123625000Y-115987500D03*
X123625000Y-117712500D03*
%TD*%
%TO.C,C12*%
X100625000Y-115987500D03*
X100625000Y-117712500D03*
%TD*%
%TO.C,C11*%
X77625000Y-115987500D03*
X77625000Y-117712500D03*
%TD*%
%TO.C,C10*%
X54625000Y-115987500D03*
X54625000Y-117712500D03*
%TD*%
%TO.C,C9*%
X123625000Y-92987500D03*
X123625000Y-94712500D03*
%TD*%
%TO.C,C8*%
X100625000Y-92987500D03*
X100625000Y-94712500D03*
%TD*%
%TO.C,C6*%
X54625000Y-92987500D03*
X54625000Y-94712500D03*
%TD*%
%TO.C,C5*%
X123625000Y-69987500D03*
X123625000Y-71712500D03*
%TD*%
%TO.C,C4*%
X100625000Y-69987500D03*
X100625000Y-71712500D03*
%TD*%
%TO.C,C2*%
X54625000Y-69987500D03*
X54625000Y-71712500D03*
%TD*%
D26*
%TO.C,A1*%
X73775000Y-45650000D03*
D27*
X73475000Y-48680000D03*
X68625000Y-48680000D03*
D26*
X68325000Y-45650000D03*
D28*
X80740000Y-45520000D03*
D29*
X79940000Y-45520000D03*
D30*
X80740000Y-48060000D03*
D15*
X79940000Y-48060000D03*
D31*
X80740000Y-50600000D03*
D32*
X79940000Y-50600000D03*
D30*
X80740000Y-53140000D03*
D15*
X79940000Y-53140000D03*
D30*
X80740000Y-55680000D03*
D15*
X79940000Y-55680000D03*
D30*
X80740000Y-58220000D03*
D15*
X79940000Y-58220000D03*
D30*
X80740000Y-60760000D03*
D15*
X79940000Y-60760000D03*
D31*
X80740000Y-63300000D03*
D32*
X79940000Y-63300000D03*
D30*
X80740000Y-65840000D03*
D15*
X79940000Y-65840000D03*
D30*
X80740000Y-68380000D03*
D15*
X79940000Y-68380000D03*
D30*
X80740000Y-70920000D03*
D15*
X79940000Y-70920000D03*
D30*
X80740000Y-73460000D03*
D15*
X79940000Y-73460000D03*
D31*
X80740000Y-76000000D03*
D32*
X79940000Y-76000000D03*
D30*
X80740000Y-78540000D03*
D15*
X79940000Y-78540000D03*
D30*
X80740000Y-81080000D03*
D15*
X79940000Y-81080000D03*
D30*
X80740000Y-83620000D03*
D15*
X79940000Y-83620000D03*
D30*
X80740000Y-86160000D03*
D15*
X79940000Y-86160000D03*
D31*
X80740000Y-88700000D03*
D32*
X79940000Y-88700000D03*
D30*
X80740000Y-91240000D03*
D15*
X79940000Y-91240000D03*
D30*
X80740000Y-93780000D03*
D15*
X79940000Y-93780000D03*
X62160000Y-93780000D03*
D30*
X61360000Y-93780000D03*
D15*
X62160000Y-91240000D03*
D30*
X61360000Y-91240000D03*
D33*
X62160000Y-88700000D03*
D28*
X61360000Y-88700000D03*
D15*
X62160000Y-86160000D03*
D30*
X61360000Y-86160000D03*
D15*
X62160000Y-83620000D03*
D30*
X61360000Y-83620000D03*
D15*
X62160000Y-81080000D03*
D30*
X61360000Y-81080000D03*
D15*
X62160000Y-78540000D03*
D30*
X61360000Y-78540000D03*
D33*
X62160000Y-76000000D03*
D28*
X61360000Y-76000000D03*
D15*
X62160000Y-73460000D03*
D30*
X61360000Y-73460000D03*
D15*
X62160000Y-70920000D03*
D30*
X61360000Y-70920000D03*
D15*
X62160000Y-68380000D03*
D30*
X61360000Y-68380000D03*
D15*
X62160000Y-65840000D03*
D30*
X61360000Y-65840000D03*
D33*
X62160000Y-63300000D03*
D28*
X61360000Y-63300000D03*
D15*
X62160000Y-60760000D03*
D30*
X61360000Y-60760000D03*
D15*
X62160000Y-58220000D03*
D30*
X61360000Y-58220000D03*
D15*
X62160000Y-55680000D03*
D30*
X61360000Y-55680000D03*
D15*
X62160000Y-53140000D03*
D30*
X61360000Y-53140000D03*
D33*
X62160000Y-50600000D03*
D28*
X61360000Y-50600000D03*
D15*
X62160000Y-48060000D03*
D30*
X61360000Y-48060000D03*
D15*
X62160000Y-45520000D03*
D30*
X61360000Y-45520000D03*
%TD*%
%LPD*%
M02*
