%TF.GenerationSoftware,KiCad,Pcbnew,9.0.6*%
%TF.CreationDate,2025-12-05T21:30:18-05:00*%
%TF.ProjectId,PicoMIDIcontroller,5069636f-4d49-4444-9963-6f6e74726f6c,rev?*%
%TF.SameCoordinates,Original*%
%TF.FileFunction,Soldermask,Top*%
%TF.FilePolarity,Negative*%
%FSLAX46Y46*%
G04 Gerber Fmt 4.6, Leading zero omitted, Abs format (unit mm)*
G04 Created by KiCad (PCBNEW 9.0.6) date 2025-12-05 21:30:18*
%MOMM*%
%LPD*%
G01*
G04 APERTURE LIST*
G04 Aperture macros list*
%AMRoundRect*
0 Rectangle with rounded corners*
0 $1 Rounding radius*
0 $2 $3 $4 $5 $6 $7 $8 $9 X,Y pos of 4 corners*
0 Add a 4 corners polygon primitive as box body*
4,1,4,$2,$3,$4,$5,$6,$7,$8,$9,$2,$3,0*
0 Add four circle primitives for the rounded corners*
1,1,$1+$1,$2,$3*
1,1,$1+$1,$4,$5*
1,1,$1+$1,$6,$7*
1,1,$1+$1,$8,$9*
0 Add four rect primitives between the rounded corners*
20,1,$1+$1,$2,$3,$4,$5,0*
20,1,$1+$1,$4,$5,$6,$7,0*
20,1,$1+$1,$6,$7,$8,$9,0*
20,1,$1+$1,$8,$9,$2,$3,0*%
%AMFreePoly0*
4,1,37,0.603843,0.796157,0.639018,0.796157,0.711114,0.766294,0.766294,0.711114,0.796157,0.639018,0.796157,0.603843,0.800000,0.600000,0.800000,-0.600000,0.796157,-0.603843,0.796157,-0.639018,0.766294,-0.711114,0.711114,-0.766294,0.639018,-0.796157,0.603843,-0.796157,0.600000,-0.800000,0.000000,-0.800000,0.000000,-0.796148,-0.078414,-0.796148,-0.232228,-0.765552,-0.377117,-0.705537,
-0.507515,-0.618408,-0.618408,-0.507515,-0.705537,-0.377117,-0.765552,-0.232228,-0.796148,-0.078414,-0.796148,0.078414,-0.765552,0.232228,-0.705537,0.377117,-0.618408,0.507515,-0.507515,0.618408,-0.377117,0.705537,-0.232228,0.765552,-0.078414,0.796148,0.000000,0.796148,0.000000,0.800000,0.600000,0.800000,0.603843,0.796157,0.603843,0.796157,$1*%
%AMFreePoly1*
4,1,37,0.000000,0.796148,0.078414,0.796148,0.232228,0.765552,0.377117,0.705537,0.507515,0.618408,0.618408,0.507515,0.705537,0.377117,0.765552,0.232228,0.796148,0.078414,0.796148,-0.078414,0.765552,-0.232228,0.705537,-0.377117,0.618408,-0.507515,0.507515,-0.618408,0.377117,-0.705537,0.232228,-0.765552,0.078414,-0.796148,0.000000,-0.796148,0.000000,-0.800000,-0.600000,-0.800000,
-0.603843,-0.796157,-0.639018,-0.796157,-0.711114,-0.766294,-0.766294,-0.711114,-0.796157,-0.639018,-0.796157,-0.603843,-0.800000,-0.600000,-0.800000,0.600000,-0.796157,0.603843,-0.796157,0.639018,-0.766294,0.711114,-0.711114,0.766294,-0.639018,0.796157,-0.603843,0.796157,-0.600000,0.800000,0.000000,0.800000,0.000000,0.796148,0.000000,0.796148,$1*%
G04 Aperture macros list end*
%ADD10R,2.000000X2.000000*%
%ADD11C,2.000000*%
%ADD12C,1.600000*%
%ADD13C,3.200000*%
%ADD14R,1.700000X1.700000*%
%ADD15C,1.700000*%
%ADD16C,2.200000*%
%ADD17C,1.850000*%
%ADD18RoundRect,0.200000X0.600000X0.600000X-0.600000X0.600000X-0.600000X-0.600000X0.600000X-0.600000X0*%
%ADD19FreePoly0,180.000000*%
%ADD20FreePoly1,180.000000*%
G04 APERTURE END LIST*
D10*
%TO.C,SW2*%
X68575000Y-66500000D03*
D11*
X73575000Y-66500000D03*
X71075000Y-66500000D03*
X73575000Y-52000000D03*
X68575000Y-52000000D03*
%TD*%
D10*
%TO.C,SW1*%
X45575000Y-66500000D03*
D11*
X50575000Y-66500000D03*
X48075000Y-66500000D03*
X50575000Y-52000000D03*
X45575000Y-52000000D03*
%TD*%
D10*
%TO.C,SW3*%
X91575000Y-66500000D03*
D11*
X96575000Y-66500000D03*
X94075000Y-66500000D03*
X96575000Y-52000000D03*
X91575000Y-52000000D03*
%TD*%
D10*
%TO.C,SW4*%
X114575000Y-66500000D03*
D11*
X119575000Y-66500000D03*
X117075000Y-66500000D03*
X119575000Y-52000000D03*
X114575000Y-52000000D03*
%TD*%
D12*
%TO.C,J2*%
X105700000Y-53100000D03*
X105700000Y-46100000D03*
%TD*%
D10*
%TO.C,SW18*%
X114525000Y-158575000D03*
D11*
X119525000Y-158575000D03*
X117025000Y-158575000D03*
X119525000Y-144075000D03*
X114525000Y-144075000D03*
%TD*%
D10*
%TO.C,SW17*%
X45575000Y-158500000D03*
D11*
X50575000Y-158500000D03*
X48075000Y-158500000D03*
X50575000Y-144000000D03*
X45575000Y-144000000D03*
%TD*%
D10*
%TO.C,SW16*%
X114575000Y-135500000D03*
D11*
X119575000Y-135500000D03*
X117075000Y-135500000D03*
X119575000Y-121000000D03*
X114575000Y-121000000D03*
%TD*%
D10*
%TO.C,SW15*%
X91575000Y-135500000D03*
D11*
X96575000Y-135500000D03*
X94075000Y-135500000D03*
X96575000Y-121000000D03*
X91575000Y-121000000D03*
%TD*%
D10*
%TO.C,SW14*%
X68575000Y-135500000D03*
D11*
X73575000Y-135500000D03*
X71075000Y-135500000D03*
X73575000Y-121000000D03*
X68575000Y-121000000D03*
%TD*%
D10*
%TO.C,SW13*%
X45575000Y-135500000D03*
D11*
X50575000Y-135500000D03*
X48075000Y-135500000D03*
X50575000Y-121000000D03*
X45575000Y-121000000D03*
%TD*%
D10*
%TO.C,SW9*%
X45575000Y-112500000D03*
D11*
X50575000Y-112500000D03*
X48075000Y-112500000D03*
X50575000Y-98000000D03*
X45575000Y-98000000D03*
%TD*%
D10*
%TO.C,SW10*%
X68575000Y-112500000D03*
D11*
X73575000Y-112500000D03*
X71075000Y-112500000D03*
X73575000Y-98000000D03*
X68575000Y-98000000D03*
%TD*%
D10*
%TO.C,SW11*%
X91575000Y-112500000D03*
D11*
X96575000Y-112500000D03*
X94075000Y-112500000D03*
X96575000Y-98000000D03*
X91575000Y-98000000D03*
%TD*%
D10*
%TO.C,SW12*%
X114575000Y-112500000D03*
D11*
X119575000Y-112500000D03*
X117075000Y-112500000D03*
X119575000Y-98000000D03*
X114575000Y-98000000D03*
%TD*%
D10*
%TO.C,SW8*%
X114575000Y-89500000D03*
D11*
X119575000Y-89500000D03*
X117075000Y-89500000D03*
X119575000Y-75000000D03*
X114575000Y-75000000D03*
%TD*%
D10*
%TO.C,SW7*%
X91575000Y-89500000D03*
D11*
X96575000Y-89500000D03*
X94075000Y-89500000D03*
X96575000Y-75000000D03*
X91575000Y-75000000D03*
%TD*%
D10*
%TO.C,SW6*%
X68575000Y-89500000D03*
D11*
X73575000Y-89500000D03*
X71075000Y-89500000D03*
X73575000Y-75000000D03*
X68575000Y-75000000D03*
%TD*%
D10*
%TO.C,SW5*%
X45575000Y-89500000D03*
D11*
X50575000Y-89500000D03*
X48075000Y-89500000D03*
X50575000Y-75000000D03*
X45575000Y-75000000D03*
%TD*%
D13*
%TO.C,H1*%
X38275000Y-47500000D03*
%TD*%
%TO.C,H4*%
X38300000Y-162425000D03*
%TD*%
%TO.C,H3*%
X126775000Y-162475000D03*
%TD*%
%TO.C,H2*%
X127100000Y-47425000D03*
%TD*%
D14*
%TO.C,U4*%
X100450000Y-148820000D03*
D15*
X100450000Y-151360000D03*
X100450000Y-153900000D03*
X100450000Y-156440000D03*
%TD*%
D16*
%TO.C,A1*%
X73775000Y-45650000D03*
D17*
X73475000Y-48680000D03*
X68625000Y-48680000D03*
D16*
X68325000Y-45650000D03*
D18*
X79940000Y-45520000D03*
D12*
X79940000Y-48060000D03*
D19*
X79940000Y-50600000D03*
D12*
X79940000Y-53140000D03*
X79940000Y-55680000D03*
X79940000Y-58220000D03*
X79940000Y-60760000D03*
D19*
X79940000Y-63300000D03*
D12*
X79940000Y-65840000D03*
X79940000Y-68380000D03*
X79940000Y-70920000D03*
X79940000Y-73460000D03*
D19*
X79940000Y-76000000D03*
D12*
X79940000Y-78540000D03*
X79940000Y-81080000D03*
X79940000Y-83620000D03*
X79940000Y-86160000D03*
D19*
X79940000Y-88700000D03*
D12*
X79940000Y-91240000D03*
X79940000Y-93780000D03*
X62160000Y-93780000D03*
X62160000Y-91240000D03*
D20*
X62160000Y-88700000D03*
D12*
X62160000Y-86160000D03*
X62160000Y-83620000D03*
X62160000Y-81080000D03*
X62160000Y-78540000D03*
D20*
X62160000Y-76000000D03*
D12*
X62160000Y-73460000D03*
X62160000Y-70920000D03*
X62160000Y-68380000D03*
X62160000Y-65840000D03*
D20*
X62160000Y-63300000D03*
D12*
X62160000Y-60760000D03*
X62160000Y-58220000D03*
X62160000Y-55680000D03*
X62160000Y-53140000D03*
D20*
X62160000Y-50600000D03*
D12*
X62160000Y-48060000D03*
X62160000Y-45520000D03*
%TD*%
M02*
