%TF.GenerationSoftware,KiCad,Pcbnew,9.0.6*%
%TF.CreationDate,2025-12-05T21:30:17-05:00*%
%TF.ProjectId,PicoMIDIcontroller,5069636f-4d49-4444-9963-6f6e74726f6c,rev?*%
%TF.SameCoordinates,Original*%
%TF.FileFunction,Copper,L2,Bot*%
%TF.FilePolarity,Positive*%
%FSLAX46Y46*%
G04 Gerber Fmt 4.6, Leading zero omitted, Abs format (unit mm)*
G04 Created by KiCad (PCBNEW 9.0.6) date 2025-12-05 21:30:17*
%MOMM*%
%LPD*%
G01*
G04 APERTURE LIST*
G04 Aperture macros list*
%AMRoundRect*
0 Rectangle with rounded corners*
0 $1 Rounding radius*
0 $2 $3 $4 $5 $6 $7 $8 $9 X,Y pos of 4 corners*
0 Add a 4 corners polygon primitive as box body*
4,1,4,$2,$3,$4,$5,$6,$7,$8,$9,$2,$3,0*
0 Add four circle primitives for the rounded corners*
1,1,$1+$1,$2,$3*
1,1,$1+$1,$4,$5*
1,1,$1+$1,$6,$7*
1,1,$1+$1,$8,$9*
0 Add four rect primitives between the rounded corners*
20,1,$1+$1,$2,$3,$4,$5,0*
20,1,$1+$1,$4,$5,$6,$7,0*
20,1,$1+$1,$6,$7,$8,$9,0*
20,1,$1+$1,$8,$9,$2,$3,0*%
%AMFreePoly0*
4,1,37,0.800000,0.796148,0.878414,0.796148,1.032228,0.765552,1.177117,0.705537,1.307515,0.618408,1.418408,0.507515,1.505537,0.377117,1.565552,0.232228,1.596148,0.078414,1.596148,-0.078414,1.565552,-0.232228,1.505537,-0.377117,1.418408,-0.507515,1.307515,-0.618408,1.177117,-0.705537,1.032228,-0.765552,0.878414,-0.796148,0.800000,-0.796148,0.800000,-0.800000,-1.400000,-0.800000,
-1.403843,-0.796157,-1.439018,-0.796157,-1.511114,-0.766294,-1.566294,-0.711114,-1.596157,-0.639018,-1.596157,-0.603843,-1.600000,-0.600000,-1.600000,0.600000,-1.596157,0.603843,-1.596157,0.639018,-1.566294,0.711114,-1.511114,0.766294,-1.439018,0.796157,-1.403843,0.796157,-1.400000,0.800000,0.800000,0.800000,0.800000,0.796148,0.800000,0.796148,$1*%
%AMFreePoly1*
4,1,37,1.403843,0.796157,1.439018,0.796157,1.511114,0.766294,1.566294,0.711114,1.596157,0.639018,1.596157,0.603843,1.600000,0.600000,1.600000,-0.600000,1.596157,-0.603843,1.596157,-0.639018,1.566294,-0.711114,1.511114,-0.766294,1.439018,-0.796157,1.403843,-0.796157,1.400000,-0.800000,-0.800000,-0.800000,-0.800000,-0.796148,-0.878414,-0.796148,-1.032228,-0.765552,-1.177117,-0.705537,
-1.307515,-0.618408,-1.418408,-0.507515,-1.505537,-0.377117,-1.565552,-0.232228,-1.596148,-0.078414,-1.596148,0.078414,-1.565552,0.232228,-1.505537,0.377117,-1.418408,0.507515,-1.307515,0.618408,-1.177117,0.705537,-1.032228,0.765552,-0.878414,0.796148,-0.800000,0.796148,-0.800000,0.800000,1.400000,0.800000,1.403843,0.796157,1.403843,0.796157,$1*%
%AMFreePoly2*
4,1,37,0.603843,0.796157,0.639018,0.796157,0.711114,0.766294,0.766294,0.711114,0.796157,0.639018,0.796157,0.603843,0.800000,0.600000,0.800000,-0.600000,0.796157,-0.603843,0.796157,-0.639018,0.766294,-0.711114,0.711114,-0.766294,0.639018,-0.796157,0.603843,-0.796157,0.600000,-0.800000,0.000000,-0.800000,0.000000,-0.796148,-0.078414,-0.796148,-0.232228,-0.765552,-0.377117,-0.705537,
-0.507515,-0.618408,-0.618408,-0.507515,-0.705537,-0.377117,-0.765552,-0.232228,-0.796148,-0.078414,-0.796148,0.078414,-0.765552,0.232228,-0.705537,0.377117,-0.618408,0.507515,-0.507515,0.618408,-0.377117,0.705537,-0.232228,0.765552,-0.078414,0.796148,0.000000,0.796148,0.000000,0.800000,0.600000,0.800000,0.603843,0.796157,0.603843,0.796157,$1*%
%AMFreePoly3*
4,1,37,0.000000,0.796148,0.078414,0.796148,0.232228,0.765552,0.377117,0.705537,0.507515,0.618408,0.618408,0.507515,0.705537,0.377117,0.765552,0.232228,0.796148,0.078414,0.796148,-0.078414,0.765552,-0.232228,0.705537,-0.377117,0.618408,-0.507515,0.507515,-0.618408,0.377117,-0.705537,0.232228,-0.765552,0.078414,-0.796148,0.000000,-0.796148,0.000000,-0.800000,-0.600000,-0.800000,
-0.603843,-0.796157,-0.639018,-0.796157,-0.711114,-0.766294,-0.766294,-0.711114,-0.796157,-0.639018,-0.796157,-0.603843,-0.800000,-0.600000,-0.800000,0.600000,-0.796157,0.603843,-0.796157,0.639018,-0.766294,0.711114,-0.711114,0.766294,-0.639018,0.796157,-0.603843,0.796157,-0.600000,0.800000,0.000000,0.800000,0.000000,0.796148,0.000000,0.796148,$1*%
G04 Aperture macros list end*
%TA.AperFunction,ComponentPad*%
%ADD10R,2.000000X2.000000*%
%TD*%
%TA.AperFunction,ComponentPad*%
%ADD11C,2.000000*%
%TD*%
%TA.AperFunction,SMDPad,CuDef*%
%ADD12R,2.500000X1.200000*%
%TD*%
%TA.AperFunction,SMDPad,CuDef*%
%ADD13RoundRect,0.237500X-0.237500X0.250000X-0.237500X-0.250000X0.237500X-0.250000X0.237500X0.250000X0*%
%TD*%
%TA.AperFunction,SMDPad,CuDef*%
%ADD14RoundRect,0.150000X-0.587500X-0.150000X0.587500X-0.150000X0.587500X0.150000X-0.587500X0.150000X0*%
%TD*%
%TA.AperFunction,SMDPad,CuDef*%
%ADD15RoundRect,0.237500X0.237500X-0.300000X0.237500X0.300000X-0.237500X0.300000X-0.237500X-0.300000X0*%
%TD*%
%TA.AperFunction,SMDPad,CuDef*%
%ADD16RoundRect,0.237500X-0.237500X0.300000X-0.237500X-0.300000X0.237500X-0.300000X0.237500X0.300000X0*%
%TD*%
%TA.AperFunction,SMDPad,CuDef*%
%ADD17RoundRect,0.120000X-0.780000X-0.480000X0.780000X-0.480000X0.780000X0.480000X-0.780000X0.480000X0*%
%TD*%
%TA.AperFunction,ComponentPad*%
%ADD18R,1.700000X1.700000*%
%TD*%
%TA.AperFunction,ComponentPad*%
%ADD19C,1.700000*%
%TD*%
%TA.AperFunction,SMDPad,CuDef*%
%ADD20RoundRect,0.100000X0.100000X-0.850000X0.100000X0.850000X-0.100000X0.850000X-0.100000X-0.850000X0*%
%TD*%
%TA.AperFunction,SMDPad,CuDef*%
%ADD21RoundRect,0.100000X-0.100000X0.850000X-0.100000X-0.850000X0.100000X-0.850000X0.100000X0.850000X0*%
%TD*%
%TA.AperFunction,SMDPad,CuDef*%
%ADD22FreePoly0,180.000000*%
%TD*%
%TA.AperFunction,ComponentPad*%
%ADD23RoundRect,0.200000X0.600000X0.600000X-0.600000X0.600000X-0.600000X-0.600000X0.600000X-0.600000X0*%
%TD*%
%TA.AperFunction,SMDPad,CuDef*%
%ADD24RoundRect,0.800000X0.800000X0.000010X-0.800000X0.000010X-0.800000X-0.000010X0.800000X-0.000010X0*%
%TD*%
%TA.AperFunction,ComponentPad*%
%ADD25C,1.600000*%
%TD*%
%TA.AperFunction,SMDPad,CuDef*%
%ADD26FreePoly1,180.000000*%
%TD*%
%TA.AperFunction,ComponentPad*%
%ADD27FreePoly2,180.000000*%
%TD*%
%TA.AperFunction,ComponentPad*%
%ADD28FreePoly3,180.000000*%
%TD*%
%TA.AperFunction,ViaPad*%
%ADD29C,0.600000*%
%TD*%
%TA.AperFunction,Conductor*%
%ADD30C,0.200000*%
%TD*%
G04 APERTURE END LIST*
D10*
%TO.P,SW2,A,A*%
%TO.N,/EA1*%
X68575000Y-66500000D03*
D11*
%TO.P,SW2,B,B*%
%TO.N,/EB1*%
X73575000Y-66500000D03*
%TO.P,SW2,C,C*%
%TO.N,GND*%
X71075000Y-66500000D03*
%TO.P,SW2,S1,S1*%
%TO.N,/ESW1*%
X73575000Y-52000000D03*
%TO.P,SW2,S2,S2*%
%TO.N,GND*%
X68575000Y-52000000D03*
%TD*%
D10*
%TO.P,SW1,A,A*%
%TO.N,/EA0*%
X45575000Y-66500000D03*
D11*
%TO.P,SW1,B,B*%
%TO.N,/EB0*%
X50575000Y-66500000D03*
%TO.P,SW1,C,C*%
%TO.N,GND*%
X48075000Y-66500000D03*
%TO.P,SW1,S1,S1*%
%TO.N,/ESW0*%
X50575000Y-52000000D03*
%TO.P,SW1,S2,S2*%
%TO.N,GND*%
X45575000Y-52000000D03*
%TD*%
D10*
%TO.P,SW3,A,A*%
%TO.N,/EA2*%
X91575000Y-66500000D03*
D11*
%TO.P,SW3,B,B*%
%TO.N,/EB2*%
X96575000Y-66500000D03*
%TO.P,SW3,C,C*%
%TO.N,GND*%
X94075000Y-66500000D03*
%TO.P,SW3,S1,S1*%
%TO.N,/ESW2*%
X96575000Y-52000000D03*
%TO.P,SW3,S2,S2*%
%TO.N,GND*%
X91575000Y-52000000D03*
%TD*%
D10*
%TO.P,SW4,A,A*%
%TO.N,/EA3*%
X114575000Y-66500000D03*
D11*
%TO.P,SW4,B,B*%
%TO.N,/EB3*%
X119575000Y-66500000D03*
%TO.P,SW4,C,C*%
%TO.N,GND*%
X117075000Y-66500000D03*
%TO.P,SW4,S1,S1*%
%TO.N,/ESW3*%
X119575000Y-52000000D03*
%TO.P,SW4,S2,S2*%
%TO.N,GND*%
X114575000Y-52000000D03*
%TD*%
D12*
%TO.P,J2,T*%
%TO.N,Net-(J2-PadT)*%
X102450000Y-54700000D03*
%TO.P,J2,S*%
%TO.N,unconnected-(J2-PadS)*%
X108950000Y-55800000D03*
%TO.P,J2,R2*%
%TO.N,unconnected-(J2-PadR2)*%
X102450000Y-47700000D03*
%TO.P,J2,R1*%
%TO.N,Net-(J2-PadR1)*%
X102450000Y-50700000D03*
%TD*%
D10*
%TO.P,SW18,A,A*%
%TO.N,Net-(A1-GPIO21)*%
X114525000Y-158575000D03*
D11*
%TO.P,SW18,B,B*%
%TO.N,Net-(A1-GPIO22)*%
X119525000Y-158575000D03*
%TO.P,SW18,C,C*%
%TO.N,GND*%
X117025000Y-158575000D03*
%TO.P,SW18,S1,S1*%
%TO.N,Net-(A1-GPIO20)*%
X119525000Y-144075000D03*
%TO.P,SW18,S2,S2*%
%TO.N,GND*%
X114525000Y-144075000D03*
%TD*%
D10*
%TO.P,SW17,A,A*%
%TO.N,Net-(A1-GPIO18)*%
X45575000Y-158500000D03*
D11*
%TO.P,SW17,B,B*%
%TO.N,Net-(A1-GPIO19)*%
X50575000Y-158500000D03*
%TO.P,SW17,C,C*%
%TO.N,GND*%
X48075000Y-158500000D03*
%TO.P,SW17,S1,S1*%
%TO.N,Net-(A1-GPIO16)*%
X50575000Y-144000000D03*
%TO.P,SW17,S2,S2*%
%TO.N,GND*%
X45575000Y-144000000D03*
%TD*%
D10*
%TO.P,SW16,A,A*%
%TO.N,/EA15*%
X114575000Y-135500000D03*
D11*
%TO.P,SW16,B,B*%
%TO.N,/EB15*%
X119575000Y-135500000D03*
%TO.P,SW16,C,C*%
%TO.N,GND*%
X117075000Y-135500000D03*
%TO.P,SW16,S1,S1*%
%TO.N,/ESW15*%
X119575000Y-121000000D03*
%TO.P,SW16,S2,S2*%
%TO.N,GND*%
X114575000Y-121000000D03*
%TD*%
D10*
%TO.P,SW15,A,A*%
%TO.N,/EA14*%
X91575000Y-135500000D03*
D11*
%TO.P,SW15,B,B*%
%TO.N,/EB14*%
X96575000Y-135500000D03*
%TO.P,SW15,C,C*%
%TO.N,GND*%
X94075000Y-135500000D03*
%TO.P,SW15,S1,S1*%
%TO.N,/ESW14*%
X96575000Y-121000000D03*
%TO.P,SW15,S2,S2*%
%TO.N,GND*%
X91575000Y-121000000D03*
%TD*%
D10*
%TO.P,SW14,A,A*%
%TO.N,/EA13*%
X68575000Y-135500000D03*
D11*
%TO.P,SW14,B,B*%
%TO.N,/EB13*%
X73575000Y-135500000D03*
%TO.P,SW14,C,C*%
%TO.N,GND*%
X71075000Y-135500000D03*
%TO.P,SW14,S1,S1*%
%TO.N,/ESW13*%
X73575000Y-121000000D03*
%TO.P,SW14,S2,S2*%
%TO.N,GND*%
X68575000Y-121000000D03*
%TD*%
D10*
%TO.P,SW13,A,A*%
%TO.N,/EA12*%
X45575000Y-135500000D03*
D11*
%TO.P,SW13,B,B*%
%TO.N,/EB12*%
X50575000Y-135500000D03*
%TO.P,SW13,C,C*%
%TO.N,GND*%
X48075000Y-135500000D03*
%TO.P,SW13,S1,S1*%
%TO.N,/ESW12*%
X50575000Y-121000000D03*
%TO.P,SW13,S2,S2*%
%TO.N,GND*%
X45575000Y-121000000D03*
%TD*%
D10*
%TO.P,SW9,A,A*%
%TO.N,/EA8*%
X45575000Y-112500000D03*
D11*
%TO.P,SW9,B,B*%
%TO.N,/EB8*%
X50575000Y-112500000D03*
%TO.P,SW9,C,C*%
%TO.N,GND*%
X48075000Y-112500000D03*
%TO.P,SW9,S1,S1*%
%TO.N,/ESW8*%
X50575000Y-98000000D03*
%TO.P,SW9,S2,S2*%
%TO.N,GND*%
X45575000Y-98000000D03*
%TD*%
D10*
%TO.P,SW10,A,A*%
%TO.N,/EA9*%
X68575000Y-112500000D03*
D11*
%TO.P,SW10,B,B*%
%TO.N,/EB9*%
X73575000Y-112500000D03*
%TO.P,SW10,C,C*%
%TO.N,GND*%
X71075000Y-112500000D03*
%TO.P,SW10,S1,S1*%
%TO.N,/ESW9*%
X73575000Y-98000000D03*
%TO.P,SW10,S2,S2*%
%TO.N,GND*%
X68575000Y-98000000D03*
%TD*%
D10*
%TO.P,SW11,A,A*%
%TO.N,/EA10*%
X91575000Y-112500000D03*
D11*
%TO.P,SW11,B,B*%
%TO.N,/EB10*%
X96575000Y-112500000D03*
%TO.P,SW11,C,C*%
%TO.N,GND*%
X94075000Y-112500000D03*
%TO.P,SW11,S1,S1*%
%TO.N,/ESW10*%
X96575000Y-98000000D03*
%TO.P,SW11,S2,S2*%
%TO.N,GND*%
X91575000Y-98000000D03*
%TD*%
D10*
%TO.P,SW12,A,A*%
%TO.N,/EA11*%
X114575000Y-112500000D03*
D11*
%TO.P,SW12,B,B*%
%TO.N,/EB11*%
X119575000Y-112500000D03*
%TO.P,SW12,C,C*%
%TO.N,GND*%
X117075000Y-112500000D03*
%TO.P,SW12,S1,S1*%
%TO.N,/ESW11*%
X119575000Y-98000000D03*
%TO.P,SW12,S2,S2*%
%TO.N,GND*%
X114575000Y-98000000D03*
%TD*%
D10*
%TO.P,SW8,A,A*%
%TO.N,/EA7*%
X114575000Y-89500000D03*
D11*
%TO.P,SW8,B,B*%
%TO.N,/EB7*%
X119575000Y-89500000D03*
%TO.P,SW8,C,C*%
%TO.N,GND*%
X117075000Y-89500000D03*
%TO.P,SW8,S1,S1*%
%TO.N,/ESW7*%
X119575000Y-75000000D03*
%TO.P,SW8,S2,S2*%
%TO.N,GND*%
X114575000Y-75000000D03*
%TD*%
D10*
%TO.P,SW7,A,A*%
%TO.N,/EA6*%
X91575000Y-89500000D03*
D11*
%TO.P,SW7,B,B*%
%TO.N,/EB6*%
X96575000Y-89500000D03*
%TO.P,SW7,C,C*%
%TO.N,GND*%
X94075000Y-89500000D03*
%TO.P,SW7,S1,S1*%
%TO.N,/ESW6*%
X96575000Y-75000000D03*
%TO.P,SW7,S2,S2*%
%TO.N,GND*%
X91575000Y-75000000D03*
%TD*%
D10*
%TO.P,SW6,A,A*%
%TO.N,/EA5*%
X68575000Y-89500000D03*
D11*
%TO.P,SW6,B,B*%
%TO.N,/EB5*%
X73575000Y-89500000D03*
%TO.P,SW6,C,C*%
%TO.N,GND*%
X71075000Y-89500000D03*
%TO.P,SW6,S1,S1*%
%TO.N,/ESW5*%
X73575000Y-75000000D03*
%TO.P,SW6,S2,S2*%
%TO.N,GND*%
X68575000Y-75000000D03*
%TD*%
D10*
%TO.P,SW5,A,A*%
%TO.N,/EA4*%
X45575000Y-89500000D03*
D11*
%TO.P,SW5,B,B*%
%TO.N,/EB4*%
X50575000Y-89500000D03*
%TO.P,SW5,C,C*%
%TO.N,GND*%
X48075000Y-89500000D03*
%TO.P,SW5,S1,S1*%
%TO.N,/ESW4*%
X50575000Y-75000000D03*
%TO.P,SW5,S2,S2*%
%TO.N,GND*%
X45575000Y-75000000D03*
%TD*%
D13*
%TO.P,R3,1*%
%TO.N,Net-(J2-PadT)*%
X113525000Y-56850000D03*
%TO.P,R3,2*%
%TO.N,Net-(A1-GPIO0)*%
X113525000Y-58675000D03*
%TD*%
%TO.P,R2,1*%
%TO.N,Net-(J2-PadR1)*%
X101875000Y-62925000D03*
%TO.P,R2,2*%
%TO.N,+3V3*%
X101875000Y-64750000D03*
%TD*%
D14*
%TO.P,D19,1,A*%
%TO.N,GND*%
X105325000Y-65075000D03*
%TO.P,D19,2,K*%
%TO.N,+3V3*%
X105325000Y-63175000D03*
%TO.P,D19,3,COM*%
%TO.N,Net-(A1-GPIO0)*%
X107200000Y-64125000D03*
%TD*%
D15*
%TO.P,C20,1*%
%TO.N,GND*%
X97300000Y-105887500D03*
%TO.P,C20,2*%
%TO.N,+3V3*%
X97300000Y-104162500D03*
%TD*%
%TO.P,C19,1*%
%TO.N,GND*%
X74125000Y-106062500D03*
%TO.P,C19,2*%
%TO.N,+3V3*%
X74125000Y-104337500D03*
%TD*%
%TO.P,C18,1*%
%TO.N,GND*%
X51200000Y-106187500D03*
%TO.P,C18,2*%
%TO.N,+3V3*%
X51200000Y-104462500D03*
%TD*%
D16*
%TO.P,C3,2*%
%TO.N,+3V3*%
X77625000Y-71712500D03*
%TO.P,C3,1*%
%TO.N,GND*%
X77625000Y-69987500D03*
%TD*%
%TO.P,C7,2*%
%TO.N,+3V3*%
X77625000Y-94712500D03*
%TO.P,C7,1*%
%TO.N,GND*%
X77625000Y-92987500D03*
%TD*%
D17*
%TO.P,D6,4,DIN*%
%TO.N,Net-(D5-DOUT)*%
X68565000Y-94980000D03*
%TO.P,D6,3,VSS*%
%TO.N,GND*%
X68555000Y-92780000D03*
%TO.P,D6,2,DOUT*%
%TO.N,Net-(D6-DOUT)*%
X73745000Y-92770000D03*
%TO.P,D6,1,VDD*%
%TO.N,+3V3*%
X73745000Y-94990000D03*
%TD*%
%TO.P,D2,4,DIN*%
%TO.N,Net-(D1-DOUT)*%
X68565000Y-71980000D03*
%TO.P,D2,3,VSS*%
%TO.N,GND*%
X68555000Y-69780000D03*
%TO.P,D2,2,DOUT*%
%TO.N,Net-(D2-DOUT)*%
X73745000Y-69770000D03*
%TO.P,D2,1,VDD*%
%TO.N,+3V3*%
X73745000Y-71990000D03*
%TD*%
%TO.P,D16,1,VDD*%
%TO.N,+3V3*%
X119745000Y-140990000D03*
%TO.P,D16,2,DOUT*%
%TO.N,unconnected-(D16-DOUT-Pad2)*%
X119745000Y-138770000D03*
%TO.P,D16,3,VSS*%
%TO.N,GND*%
X114555000Y-138780000D03*
%TO.P,D16,4,DIN*%
%TO.N,Net-(D15-DOUT)*%
X114565000Y-140980000D03*
%TD*%
%TO.P,D15,1,VDD*%
%TO.N,+3V3*%
X96745000Y-140990000D03*
%TO.P,D15,2,DOUT*%
%TO.N,Net-(D15-DOUT)*%
X96745000Y-138770000D03*
%TO.P,D15,3,VSS*%
%TO.N,GND*%
X91555000Y-138780000D03*
%TO.P,D15,4,DIN*%
%TO.N,Net-(D14-DOUT)*%
X91565000Y-140980000D03*
%TD*%
%TO.P,D14,1,VDD*%
%TO.N,+3V3*%
X73745000Y-140990000D03*
%TO.P,D14,2,DOUT*%
%TO.N,Net-(D14-DOUT)*%
X73745000Y-138770000D03*
%TO.P,D14,3,VSS*%
%TO.N,GND*%
X68555000Y-138780000D03*
%TO.P,D14,4,DIN*%
%TO.N,Net-(D13-DOUT)*%
X68565000Y-140980000D03*
%TD*%
%TO.P,D13,1,VDD*%
%TO.N,+3V3*%
X50745000Y-140990000D03*
%TO.P,D13,2,DOUT*%
%TO.N,Net-(D13-DOUT)*%
X50745000Y-138770000D03*
%TO.P,D13,3,VSS*%
%TO.N,GND*%
X45555000Y-138780000D03*
%TO.P,D13,4,DIN*%
%TO.N,Net-(D12-DOUT)*%
X45565000Y-140980000D03*
%TD*%
%TO.P,D12,1,VDD*%
%TO.N,+3V3*%
X119745000Y-117990000D03*
%TO.P,D12,2,DOUT*%
%TO.N,Net-(D12-DOUT)*%
X119745000Y-115770000D03*
%TO.P,D12,3,VSS*%
%TO.N,GND*%
X114555000Y-115780000D03*
%TO.P,D12,4,DIN*%
%TO.N,Net-(D11-DOUT)*%
X114565000Y-117980000D03*
%TD*%
%TO.P,D11,1,VDD*%
%TO.N,+3V3*%
X96745000Y-117990000D03*
%TO.P,D11,2,DOUT*%
%TO.N,Net-(D11-DOUT)*%
X96745000Y-115770000D03*
%TO.P,D11,3,VSS*%
%TO.N,GND*%
X91555000Y-115780000D03*
%TO.P,D11,4,DIN*%
%TO.N,Net-(D10-DOUT)*%
X91565000Y-117980000D03*
%TD*%
%TO.P,D10,1,VDD*%
%TO.N,+3V3*%
X73745000Y-117990000D03*
%TO.P,D10,2,DOUT*%
%TO.N,Net-(D10-DOUT)*%
X73745000Y-115770000D03*
%TO.P,D10,3,VSS*%
%TO.N,GND*%
X68555000Y-115780000D03*
%TO.P,D10,4,DIN*%
%TO.N,Net-(D10-DIN)*%
X68565000Y-117980000D03*
%TD*%
%TO.P,D9,1,VDD*%
%TO.N,+3V3*%
X50745000Y-117990000D03*
%TO.P,D9,2,DOUT*%
%TO.N,Net-(D10-DIN)*%
X50745000Y-115770000D03*
%TO.P,D9,3,VSS*%
%TO.N,GND*%
X45555000Y-115780000D03*
%TO.P,D9,4,DIN*%
%TO.N,Net-(D8-DOUT)*%
X45565000Y-117980000D03*
%TD*%
%TO.P,D8,1,VDD*%
%TO.N,+3V3*%
X119745000Y-94990000D03*
%TO.P,D8,2,DOUT*%
%TO.N,Net-(D8-DOUT)*%
X119745000Y-92770000D03*
%TO.P,D8,3,VSS*%
%TO.N,GND*%
X114555000Y-92780000D03*
%TO.P,D8,4,DIN*%
%TO.N,Net-(D7-DOUT)*%
X114565000Y-94980000D03*
%TD*%
%TO.P,D7,1,VDD*%
%TO.N,+3V3*%
X96745000Y-94990000D03*
%TO.P,D7,2,DOUT*%
%TO.N,Net-(D7-DOUT)*%
X96745000Y-92770000D03*
%TO.P,D7,3,VSS*%
%TO.N,GND*%
X91555000Y-92780000D03*
%TO.P,D7,4,DIN*%
%TO.N,Net-(D6-DOUT)*%
X91565000Y-94980000D03*
%TD*%
%TO.P,D5,1,VDD*%
%TO.N,+3V3*%
X50745000Y-94990000D03*
%TO.P,D5,2,DOUT*%
%TO.N,Net-(D5-DOUT)*%
X50745000Y-92770000D03*
%TO.P,D5,3,VSS*%
%TO.N,GND*%
X45555000Y-92780000D03*
%TO.P,D5,4,DIN*%
%TO.N,Net-(D4-DOUT)*%
X45565000Y-94980000D03*
%TD*%
%TO.P,D4,1,VDD*%
%TO.N,+3V3*%
X119745000Y-71990000D03*
%TO.P,D4,2,DOUT*%
%TO.N,Net-(D4-DOUT)*%
X119745000Y-69770000D03*
%TO.P,D4,3,VSS*%
%TO.N,GND*%
X114555000Y-69780000D03*
%TO.P,D4,4,DIN*%
%TO.N,Net-(D3-DOUT)*%
X114565000Y-71980000D03*
%TD*%
%TO.P,D3,1,VDD*%
%TO.N,+3V3*%
X96745000Y-71990000D03*
%TO.P,D3,2,DOUT*%
%TO.N,Net-(D3-DOUT)*%
X96745000Y-69770000D03*
%TO.P,D3,3,VSS*%
%TO.N,GND*%
X91555000Y-69780000D03*
%TO.P,D3,4,DIN*%
%TO.N,Net-(D2-DOUT)*%
X91565000Y-71980000D03*
%TD*%
%TO.P,D1,1,VDD*%
%TO.N,+3V3*%
X50745000Y-71990000D03*
%TO.P,D1,2,DOUT*%
%TO.N,Net-(D1-DOUT)*%
X50745000Y-69770000D03*
%TO.P,D1,3,VSS*%
%TO.N,GND*%
X45555000Y-69780000D03*
%TO.P,D1,4,DIN*%
%TO.N,/DOUT*%
X45565000Y-71980000D03*
%TD*%
D18*
%TO.P,U4,1,GND*%
%TO.N,GND*%
X100450000Y-148820000D03*
D19*
%TO.P,U4,2,VDD*%
%TO.N,+3V3*%
X100450000Y-151360000D03*
%TO.P,U4,3,SCK*%
%TO.N,/SCL*%
X100450000Y-153900000D03*
%TO.P,U4,4,SDA*%
%TO.N,/SDA*%
X100450000Y-156440000D03*
%TD*%
D20*
%TO.P,U3,1,COM*%
%TO.N,Net-(A1-GPIO10)*%
X109425000Y-108475000D03*
%TO.P,U3,2,I7*%
%TO.N,/ESW7*%
X108775000Y-108475000D03*
%TO.P,U3,3,I6*%
%TO.N,/ESW6*%
X108125000Y-108475000D03*
%TO.P,U3,4,I5*%
%TO.N,/ESW5*%
X107475000Y-108475000D03*
%TO.P,U3,5,I4*%
%TO.N,/ESW4*%
X106825000Y-108475000D03*
%TO.P,U3,6,I3*%
%TO.N,/ESW3*%
X106175000Y-108475000D03*
%TO.P,U3,7,I2*%
%TO.N,/ESW2*%
X105525000Y-108475000D03*
%TO.P,U3,8,I1*%
%TO.N,/ESW1*%
X104875000Y-108475000D03*
%TO.P,U3,9,I0*%
%TO.N,/ESW0*%
X104225000Y-108475000D03*
%TO.P,U3,10,S0*%
%TO.N,Net-(A1-GPIO9)*%
X103575000Y-108475000D03*
%TO.P,U3,11,S1*%
%TO.N,Net-(A1-GPIO8)*%
X102925000Y-108475000D03*
%TO.P,U3,12,GND*%
%TO.N,GND*%
X102275000Y-108475000D03*
%TO.P,U3,13,S3*%
%TO.N,Net-(A1-GPIO6)*%
X102275000Y-101475000D03*
%TO.P,U3,14,S2*%
%TO.N,Net-(A1-GPIO7)*%
X102925000Y-101475000D03*
%TO.P,U3,15,~{E}*%
%TO.N,GND*%
X103575000Y-101475000D03*
%TO.P,U3,16,I15*%
%TO.N,/ESW15*%
X104225000Y-101475000D03*
%TO.P,U3,17,I14*%
%TO.N,/ESW14*%
X104875000Y-101475000D03*
%TO.P,U3,18,I13*%
%TO.N,/ESW13*%
X105525000Y-101475000D03*
%TO.P,U3,19,I12*%
%TO.N,/ESW12*%
X106175000Y-101475000D03*
%TO.P,U3,20,I11*%
%TO.N,/ESW11*%
X106825000Y-101475000D03*
%TO.P,U3,21,I10*%
%TO.N,/ESW10*%
X107475000Y-101475000D03*
%TO.P,U3,22,I9*%
%TO.N,/ESW9*%
X108125000Y-101475000D03*
%TO.P,U3,23,I8*%
%TO.N,/ESW8*%
X108775000Y-101475000D03*
%TO.P,U3,24,VCC*%
%TO.N,+3V3*%
X109425000Y-101475000D03*
%TD*%
%TO.P,U2,1,COM*%
%TO.N,Net-(A1-GPIO17)*%
X86050000Y-108475000D03*
%TO.P,U2,2,I7*%
%TO.N,/EB7*%
X85400000Y-108475000D03*
%TO.P,U2,3,I6*%
%TO.N,/EB6*%
X84750000Y-108475000D03*
%TO.P,U2,4,I5*%
%TO.N,/EB5*%
X84100000Y-108475000D03*
%TO.P,U2,5,I4*%
%TO.N,/EB4*%
X83450000Y-108475000D03*
%TO.P,U2,6,I3*%
%TO.N,/EB3*%
X82800000Y-108475000D03*
%TO.P,U2,7,I2*%
%TO.N,/EB2*%
X82150000Y-108475000D03*
%TO.P,U2,8,I1*%
%TO.N,/EB1*%
X81500000Y-108475000D03*
%TO.P,U2,9,I0*%
%TO.N,/EB0*%
X80850000Y-108475000D03*
%TO.P,U2,10,S0*%
%TO.N,Net-(A1-GPIO9)*%
X80200000Y-108475000D03*
%TO.P,U2,11,S1*%
%TO.N,Net-(A1-GPIO8)*%
X79550000Y-108475000D03*
%TO.P,U2,12,GND*%
%TO.N,GND*%
X78900000Y-108475000D03*
%TO.P,U2,13,S3*%
%TO.N,Net-(A1-GPIO6)*%
X78900000Y-101475000D03*
%TO.P,U2,14,S2*%
%TO.N,Net-(A1-GPIO7)*%
X79550000Y-101475000D03*
%TO.P,U2,15,~{E}*%
%TO.N,GND*%
X80200000Y-101475000D03*
%TO.P,U2,16,I15*%
%TO.N,/EB15*%
X80850000Y-101475000D03*
%TO.P,U2,17,I14*%
%TO.N,/EB14*%
X81500000Y-101475000D03*
%TO.P,U2,18,I13*%
%TO.N,/EB13*%
X82150000Y-101475000D03*
%TO.P,U2,19,I12*%
%TO.N,/EB12*%
X82800000Y-101475000D03*
%TO.P,U2,20,I11*%
%TO.N,/EB11*%
X83450000Y-101475000D03*
%TO.P,U2,21,I10*%
%TO.N,/EB10*%
X84100000Y-101475000D03*
%TO.P,U2,22,I9*%
%TO.N,/EB9*%
X84750000Y-101475000D03*
%TO.P,U2,23,I8*%
%TO.N,/EB8*%
X85400000Y-101475000D03*
%TO.P,U2,24,VCC*%
%TO.N,+3V3*%
X86050000Y-101475000D03*
%TD*%
D21*
%TO.P,U1,1,COM*%
%TO.N,Net-(A1-GPIO11)*%
X55250000Y-101500000D03*
%TO.P,U1,2,I7*%
%TO.N,/EA7*%
X55900000Y-101500000D03*
%TO.P,U1,3,I6*%
%TO.N,/EA6*%
X56550000Y-101500000D03*
%TO.P,U1,4,I5*%
%TO.N,/EA5*%
X57200000Y-101500000D03*
%TO.P,U1,5,I4*%
%TO.N,/EA4*%
X57850000Y-101500000D03*
%TO.P,U1,6,I3*%
%TO.N,/EA3*%
X58500000Y-101500000D03*
%TO.P,U1,7,I2*%
%TO.N,/EA2*%
X59150000Y-101500000D03*
%TO.P,U1,8,I1*%
%TO.N,/EA1*%
X59800000Y-101500000D03*
%TO.P,U1,9,I0*%
%TO.N,/EA0*%
X60450000Y-101500000D03*
%TO.P,U1,10,S0*%
%TO.N,Net-(A1-GPIO9)*%
X61100000Y-101500000D03*
%TO.P,U1,11,S1*%
%TO.N,Net-(A1-GPIO8)*%
X61750000Y-101500000D03*
%TO.P,U1,12,GND*%
%TO.N,GND*%
X62400000Y-101500000D03*
%TO.P,U1,13,S3*%
%TO.N,Net-(A1-GPIO6)*%
X62400000Y-108500000D03*
%TO.P,U1,14,S2*%
%TO.N,Net-(A1-GPIO7)*%
X61750000Y-108500000D03*
%TO.P,U1,15,~{E}*%
%TO.N,GND*%
X61100000Y-108500000D03*
%TO.P,U1,16,I15*%
%TO.N,/EA15*%
X60450000Y-108500000D03*
%TO.P,U1,17,I14*%
%TO.N,/EA14*%
X59800000Y-108500000D03*
%TO.P,U1,18,I13*%
%TO.N,/EA13*%
X59150000Y-108500000D03*
%TO.P,U1,19,I12*%
%TO.N,/EA12*%
X58500000Y-108500000D03*
%TO.P,U1,20,I11*%
%TO.N,/EA11*%
X57850000Y-108500000D03*
%TO.P,U1,21,I10*%
%TO.N,/EA10*%
X57200000Y-108500000D03*
%TO.P,U1,22,I9*%
%TO.N,/EA9*%
X56550000Y-108500000D03*
%TO.P,U1,23,I8*%
%TO.N,/EA8*%
X55900000Y-108500000D03*
%TO.P,U1,24,VCC*%
%TO.N,+3V3*%
X55250000Y-108500000D03*
%TD*%
D16*
%TO.P,C17,1*%
%TO.N,GND*%
X123625000Y-138987500D03*
%TO.P,C17,2*%
%TO.N,+3V3*%
X123625000Y-140712500D03*
%TD*%
%TO.P,C16,1*%
%TO.N,GND*%
X100625000Y-138987500D03*
%TO.P,C16,2*%
%TO.N,+3V3*%
X100625000Y-140712500D03*
%TD*%
%TO.P,C15,1*%
%TO.N,GND*%
X77625000Y-138987500D03*
%TO.P,C15,2*%
%TO.N,+3V3*%
X77625000Y-140712500D03*
%TD*%
%TO.P,C14,1*%
%TO.N,GND*%
X54625000Y-138987500D03*
%TO.P,C14,2*%
%TO.N,+3V3*%
X54625000Y-140712500D03*
%TD*%
%TO.P,C13,1*%
%TO.N,GND*%
X123625000Y-115987500D03*
%TO.P,C13,2*%
%TO.N,+3V3*%
X123625000Y-117712500D03*
%TD*%
%TO.P,C12,1*%
%TO.N,GND*%
X100625000Y-115987500D03*
%TO.P,C12,2*%
%TO.N,+3V3*%
X100625000Y-117712500D03*
%TD*%
%TO.P,C11,1*%
%TO.N,GND*%
X77625000Y-115987500D03*
%TO.P,C11,2*%
%TO.N,+3V3*%
X77625000Y-117712500D03*
%TD*%
%TO.P,C10,1*%
%TO.N,GND*%
X54625000Y-115987500D03*
%TO.P,C10,2*%
%TO.N,+3V3*%
X54625000Y-117712500D03*
%TD*%
%TO.P,C9,1*%
%TO.N,GND*%
X123625000Y-92987500D03*
%TO.P,C9,2*%
%TO.N,+3V3*%
X123625000Y-94712500D03*
%TD*%
%TO.P,C8,1*%
%TO.N,GND*%
X100625000Y-92987500D03*
%TO.P,C8,2*%
%TO.N,+3V3*%
X100625000Y-94712500D03*
%TD*%
%TO.P,C6,1*%
%TO.N,GND*%
X54625000Y-92987500D03*
%TO.P,C6,2*%
%TO.N,+3V3*%
X54625000Y-94712500D03*
%TD*%
%TO.P,C5,1*%
%TO.N,GND*%
X123625000Y-69987500D03*
%TO.P,C5,2*%
%TO.N,+3V3*%
X123625000Y-71712500D03*
%TD*%
%TO.P,C4,1*%
%TO.N,GND*%
X100625000Y-69987500D03*
%TO.P,C4,2*%
%TO.N,+3V3*%
X100625000Y-71712500D03*
%TD*%
%TO.P,C2,1*%
%TO.N,GND*%
X54625000Y-69987500D03*
%TO.P,C2,2*%
%TO.N,+3V3*%
X54625000Y-71712500D03*
%TD*%
D22*
%TO.P,A1,1,GPIO0*%
%TO.N,Net-(A1-GPIO0)*%
X80740000Y-45520000D03*
D23*
X79940000Y-45520000D03*
D24*
%TO.P,A1,2,GPIO1*%
%TO.N,unconnected-(A1-GPIO1-Pad2)_1*%
X80740000Y-48060000D03*
D25*
%TO.N,unconnected-(A1-GPIO1-Pad2)*%
X79940000Y-48060000D03*
D26*
%TO.P,A1,3,GND*%
%TO.N,GND*%
X80740000Y-50600000D03*
D27*
X79940000Y-50600000D03*
D24*
%TO.P,A1,4,GPIO2*%
%TO.N,/SDA*%
X80740000Y-53140000D03*
D25*
X79940000Y-53140000D03*
D24*
%TO.P,A1,5,GPIO3*%
%TO.N,/SCL*%
X80740000Y-55680000D03*
D25*
X79940000Y-55680000D03*
D24*
%TO.P,A1,6,GPIO4*%
%TO.N,/DOUT*%
X80740000Y-58220000D03*
D25*
X79940000Y-58220000D03*
D24*
%TO.P,A1,7,GPIO5*%
%TO.N,unconnected-(A1-GPIO5-Pad7)_1*%
X80740000Y-60760000D03*
D25*
%TO.N,unconnected-(A1-GPIO5-Pad7)*%
X79940000Y-60760000D03*
D26*
%TO.P,A1,8,GND*%
%TO.N,GND*%
X80740000Y-63300000D03*
D27*
X79940000Y-63300000D03*
D24*
%TO.P,A1,9,GPIO6*%
%TO.N,Net-(A1-GPIO6)*%
X80740000Y-65840000D03*
D25*
X79940000Y-65840000D03*
D24*
%TO.P,A1,10,GPIO7*%
%TO.N,Net-(A1-GPIO7)*%
X80740000Y-68380000D03*
D25*
X79940000Y-68380000D03*
D24*
%TO.P,A1,11,GPIO8*%
%TO.N,Net-(A1-GPIO8)*%
X80740000Y-70920000D03*
D25*
X79940000Y-70920000D03*
D24*
%TO.P,A1,12,GPIO9*%
%TO.N,Net-(A1-GPIO9)*%
X80740000Y-73460000D03*
D25*
X79940000Y-73460000D03*
D26*
%TO.P,A1,13,GND*%
%TO.N,GND*%
X80740000Y-76000000D03*
D27*
X79940000Y-76000000D03*
D24*
%TO.P,A1,14,GPIO10*%
%TO.N,Net-(A1-GPIO10)*%
X80740000Y-78540000D03*
D25*
X79940000Y-78540000D03*
D24*
%TO.P,A1,15,GPIO11*%
%TO.N,Net-(A1-GPIO11)*%
X80740000Y-81080000D03*
D25*
X79940000Y-81080000D03*
D24*
%TO.P,A1,16,GPIO12*%
%TO.N,unconnected-(A1-GPIO12-Pad16)_1*%
X80740000Y-83620000D03*
D25*
%TO.N,unconnected-(A1-GPIO12-Pad16)*%
X79940000Y-83620000D03*
D24*
%TO.P,A1,17,GPIO13*%
%TO.N,unconnected-(A1-GPIO13-Pad17)_1*%
X80740000Y-86160000D03*
D25*
%TO.N,unconnected-(A1-GPIO13-Pad17)*%
X79940000Y-86160000D03*
D26*
%TO.P,A1,18,GND*%
%TO.N,GND*%
X80740000Y-88700000D03*
D27*
X79940000Y-88700000D03*
D24*
%TO.P,A1,19,GPIO14*%
%TO.N,unconnected-(A1-GPIO14-Pad19)_1*%
X80740000Y-91240000D03*
D25*
%TO.N,unconnected-(A1-GPIO14-Pad19)*%
X79940000Y-91240000D03*
D24*
%TO.P,A1,20,GPIO15*%
%TO.N,unconnected-(A1-GPIO15-Pad20)_1*%
X80740000Y-93780000D03*
D25*
%TO.N,unconnected-(A1-GPIO15-Pad20)*%
X79940000Y-93780000D03*
%TO.P,A1,21,GPIO16*%
%TO.N,Net-(A1-GPIO16)*%
X62160000Y-93780000D03*
D24*
X61360000Y-93780000D03*
D25*
%TO.P,A1,22,GPIO17*%
%TO.N,Net-(A1-GPIO17)*%
X62160000Y-91240000D03*
D24*
X61360000Y-91240000D03*
D28*
%TO.P,A1,23,GND*%
%TO.N,GND*%
X62160000Y-88700000D03*
D22*
X61360000Y-88700000D03*
D25*
%TO.P,A1,24,GPIO18*%
%TO.N,Net-(A1-GPIO18)*%
X62160000Y-86160000D03*
D24*
X61360000Y-86160000D03*
D25*
%TO.P,A1,25,GPIO19*%
%TO.N,Net-(A1-GPIO19)*%
X62160000Y-83620000D03*
D24*
X61360000Y-83620000D03*
D25*
%TO.P,A1,26,GPIO20*%
%TO.N,Net-(A1-GPIO20)*%
X62160000Y-81080000D03*
D24*
X61360000Y-81080000D03*
D25*
%TO.P,A1,27,GPIO21*%
%TO.N,Net-(A1-GPIO21)*%
X62160000Y-78540000D03*
D24*
X61360000Y-78540000D03*
D28*
%TO.P,A1,28,GND*%
%TO.N,GND*%
X62160000Y-76000000D03*
D22*
X61360000Y-76000000D03*
D25*
%TO.P,A1,29,GPIO22*%
%TO.N,Net-(A1-GPIO22)*%
X62160000Y-73460000D03*
D24*
X61360000Y-73460000D03*
D25*
%TO.P,A1,30,RUN*%
%TO.N,unconnected-(A1-RUN-Pad30)_1*%
X62160000Y-70920000D03*
D24*
%TO.N,unconnected-(A1-RUN-Pad30)*%
X61360000Y-70920000D03*
D25*
%TO.P,A1,31,GPIO26_ADC0*%
%TO.N,unconnected-(A1-GPIO26_ADC0-Pad31)_1*%
X62160000Y-68380000D03*
D24*
%TO.N,unconnected-(A1-GPIO26_ADC0-Pad31)*%
X61360000Y-68380000D03*
D25*
%TO.P,A1,32,GPIO27_ADC1*%
%TO.N,unconnected-(A1-GPIO27_ADC1-Pad32)*%
X62160000Y-65840000D03*
D24*
%TO.N,unconnected-(A1-GPIO27_ADC1-Pad32)_1*%
X61360000Y-65840000D03*
D28*
%TO.P,A1,33,AGND*%
%TO.N,unconnected-(A1-AGND-Pad33)*%
X62160000Y-63300000D03*
D22*
%TO.N,unconnected-(A1-AGND-Pad33)_1*%
X61360000Y-63300000D03*
D25*
%TO.P,A1,34,GPIO28_ADC2*%
%TO.N,unconnected-(A1-GPIO28_ADC2-Pad34)*%
X62160000Y-60760000D03*
D24*
%TO.N,unconnected-(A1-GPIO28_ADC2-Pad34)_1*%
X61360000Y-60760000D03*
D25*
%TO.P,A1,35,ADC_VREF*%
%TO.N,unconnected-(A1-ADC_VREF-Pad35)*%
X62160000Y-58220000D03*
D24*
%TO.N,unconnected-(A1-ADC_VREF-Pad35)_1*%
X61360000Y-58220000D03*
D25*
%TO.P,A1,36,3V3*%
%TO.N,+3V3*%
X62160000Y-55680000D03*
D24*
X61360000Y-55680000D03*
D25*
%TO.P,A1,37,3V3_EN*%
%TO.N,unconnected-(A1-3V3_EN-Pad37)_1*%
X62160000Y-53140000D03*
D24*
%TO.N,unconnected-(A1-3V3_EN-Pad37)*%
X61360000Y-53140000D03*
D28*
%TO.P,A1,38,GND*%
%TO.N,GND*%
X62160000Y-50600000D03*
D22*
X61360000Y-50600000D03*
D25*
%TO.P,A1,39,VSYS*%
%TO.N,unconnected-(A1-VSYS-Pad39)*%
X62160000Y-48060000D03*
D24*
%TO.N,unconnected-(A1-VSYS-Pad39)_1*%
X61360000Y-48060000D03*
D25*
%TO.P,A1,40,VBUS*%
%TO.N,unconnected-(A1-VBUS-Pad40)_1*%
X62160000Y-45520000D03*
D24*
%TO.N,unconnected-(A1-VBUS-Pad40)*%
X61360000Y-45520000D03*
%TD*%
D29*
%TO.N,Net-(J2-PadR1)*%
X102450000Y-50700000D03*
X103230000Y-59310000D03*
%TO.N,/ESW15*%
X119764000Y-104954000D03*
%TO.N,/EB15*%
X90915000Y-129566000D03*
X87430200Y-105847000D03*
%TO.N,/EB14*%
X94936900Y-103551000D03*
%TO.N,/ESW14*%
X99156100Y-104668000D03*
%TO.N,/ESW13*%
X101126000Y-120480000D03*
X100590000Y-105142000D03*
%TO.N,/EA13*%
X59811900Y-132841000D03*
X59059500Y-106995000D03*
%TO.N,/EB13*%
X82255000Y-102939000D03*
%TO.N,/EB12*%
X76992100Y-132224000D03*
X83163600Y-103045000D03*
%TO.N,/ESW12*%
X65760700Y-120235000D03*
X67365900Y-119909000D03*
X105774000Y-120202000D03*
X105774000Y-103115000D03*
%TO.N,/EA12*%
X50976600Y-109921000D03*
%TO.N,/ESW11*%
X118149000Y-102592000D03*
%TO.N,/EA11*%
X110975000Y-120202000D03*
%TO.N,/EB10*%
X95781000Y-108155000D03*
%TO.N,/EA10*%
X62385700Y-111904000D03*
X75917000Y-113022000D03*
X74406300Y-108644000D03*
X63093400Y-109766000D03*
%TO.N,/ESW10*%
X95950400Y-100724000D03*
%TO.N,/EA9*%
X64738400Y-113614000D03*
%TO.N,/EB9*%
X85934900Y-103751000D03*
X86863100Y-114043000D03*
%TO.N,/ESW9*%
X108136000Y-99077900D03*
X107829000Y-96455200D03*
X76800100Y-96064200D03*
X75962800Y-97147800D03*
%TO.N,/EB8*%
X52023100Y-107074000D03*
X87121200Y-96817300D03*
X87123300Y-102994000D03*
%TO.N,/ESW8*%
X108529000Y-99822700D03*
X106838000Y-97866200D03*
X55646800Y-104991000D03*
%TO.N,/ESW7*%
X113975000Y-107961000D03*
%TO.N,/EB7*%
X88019500Y-107317000D03*
X87539600Y-87973300D03*
%TO.N,/EA7*%
X113475000Y-86712500D03*
%TO.N,/EA6*%
X51161900Y-100946000D03*
X81318400Y-95178900D03*
X53975000Y-125888000D03*
X72326100Y-128806000D03*
%TO.N,/ESW6*%
X107975000Y-75094000D03*
X110663000Y-110126000D03*
%TO.N,/EB6*%
X89637200Y-108266000D03*
%TO.N,/ESW5*%
X108900000Y-106996000D03*
X108562000Y-86795700D03*
X74975000Y-86101700D03*
%TO.N,/EB4*%
X63033000Y-90145700D03*
X63443700Y-108442000D03*
%TO.N,/ESW4*%
X107213000Y-106823000D03*
X106008000Y-83005600D03*
X75075000Y-81871900D03*
X75075000Y-76934800D03*
%TO.N,/EA4*%
X44914700Y-96290200D03*
%TO.N,/EA3*%
X59099400Y-96775900D03*
X59312500Y-77447500D03*
X113475000Y-78081900D03*
%TO.N,/EB3*%
X114525000Y-110955000D03*
%TO.N,/ESW3*%
X121708000Y-106039000D03*
%TO.N,/ESW2*%
X100719000Y-106590000D03*
%TO.N,/EA2*%
X56492500Y-63115000D03*
X56631200Y-95568900D03*
%TO.N,/EB2*%
X90799600Y-109813000D03*
%TO.N,/EA1*%
X65663500Y-81112900D03*
X41903200Y-84057700D03*
X38975000Y-122900000D03*
%TO.N,/ESW1*%
X75487500Y-54178700D03*
X101115000Y-60932400D03*
X102451000Y-106201000D03*
%TO.N,/EB1*%
X75605300Y-65737100D03*
X86075000Y-67952100D03*
X87749400Y-110850000D03*
%TO.N,/EA0*%
X43431300Y-101615000D03*
%TO.N,/ESW0*%
X102150000Y-60211700D03*
X103989000Y-106946000D03*
%TO.N,/EB0*%
X49800100Y-103780000D03*
X77975000Y-110960000D03*
X69048500Y-125816000D03*
%TO.N,Net-(D12-DOUT)*%
X120780000Y-142918000D03*
X121233000Y-116522000D03*
%TO.N,Net-(D10-DIN)*%
X65360300Y-114401000D03*
X67169600Y-116925000D03*
X48025000Y-119998000D03*
X50802600Y-116880000D03*
%TO.N,Net-(D3-DOUT)*%
X96659800Y-68535600D03*
X99244100Y-71505000D03*
%TO.N,Net-(A1-GPIO8)*%
X75935800Y-107201000D03*
X102946000Y-106996000D03*
X75946200Y-111730000D03*
X102446000Y-111615000D03*
X75952300Y-98040000D03*
X83362500Y-75631000D03*
X102904000Y-77448600D03*
%TO.N,+3V3*%
X59930000Y-143170000D03*
X53312100Y-94588300D03*
X58010000Y-117177000D03*
X53762300Y-108297000D03*
X91369300Y-103585000D03*
X95975000Y-143816000D03*
X65947200Y-66105700D03*
X75538000Y-105032000D03*
X75560300Y-95436100D03*
X58010000Y-74171900D03*
X53280300Y-104973000D03*
X99759800Y-118780000D03*
X89893900Y-95792500D03*
X90012600Y-72866300D03*
%TO.N,Net-(A1-GPIO6)*%
X77587300Y-101944000D03*
X77783500Y-99910200D03*
%TO.N,Net-(A1-GPIO20)*%
X104636000Y-80862900D03*
%TO.N,Net-(A1-GPIO9)*%
X92662600Y-108768000D03*
X87984200Y-73944700D03*
X81797000Y-106653000D03*
X81945800Y-110999000D03*
X89375400Y-110886000D03*
X77587300Y-109015000D03*
X77012600Y-97058100D03*
%TO.N,/SCL*%
X99038700Y-59724000D03*
%TO.N,Net-(A1-GPIO7)*%
X86975000Y-68652100D03*
X87893000Y-99718300D03*
%TO.N,/SDA*%
X101076000Y-62182000D03*
%TO.N,Net-(A1-GPIO16)*%
X56629200Y-103832000D03*
X61288800Y-103832000D03*
%TO.N,Net-(A1-GPIO10)*%
X110019000Y-106996000D03*
X109025000Y-81069800D03*
%TO.N,Net-(A1-GPIO17)*%
X63754000Y-107509000D03*
%TO.N,Net-(A1-GPIO21)*%
X62975000Y-152779000D03*
%TO.N,GND*%
X84730000Y-137840000D03*
X44069800Y-72107300D03*
X116975000Y-54178700D03*
X48978900Y-106703000D03*
X83973400Y-50600000D03*
X83975000Y-146804000D03*
X93947000Y-97915400D03*
X48075900Y-87480900D03*
X71744700Y-122978000D03*
X93659300Y-105365000D03*
%TO.N,Net-(A1-GPIO18)*%
X45762500Y-87638000D03*
%TD*%
D30*
%TO.N,Net-(J2-PadR1)*%
X103230000Y-61570000D02*
X103230000Y-59310000D01*
X101875000Y-62925000D02*
X103230000Y-61570000D01*
%TO.N,/ESW15*%
X101065000Y-105602000D02*
X100982000Y-105602000D01*
X101595000Y-105072000D02*
X101065000Y-105602000D01*
X119646000Y-105072000D02*
X101595000Y-105072000D01*
X119764000Y-104954000D02*
X119646000Y-105072000D01*
X100982000Y-105602000D02*
X100815000Y-105768000D01*
X100982000Y-105602000D02*
X100815000Y-105768000D01*
X99394500Y-105768000D02*
X100815000Y-105768000D01*
X98536300Y-104910000D02*
X99394500Y-105768000D01*
X98536300Y-104438000D02*
X98536300Y-104910000D01*
X99107100Y-103867000D02*
X98536300Y-104438000D01*
X102706000Y-103867000D02*
X99107100Y-103867000D01*
X104225000Y-102348000D02*
X102706000Y-103867000D01*
X104225000Y-101475000D02*
X104225000Y-102348000D01*
%TO.N,/EA15*%
X113273000Y-135500000D02*
X114575000Y-135500000D01*
X108994000Y-131221000D02*
X113273000Y-135500000D01*
X76949400Y-131221000D02*
X108994000Y-131221000D01*
X66764200Y-121036000D02*
X76949400Y-131221000D01*
X66764200Y-117370000D02*
X66764200Y-121036000D01*
X66567900Y-117174000D02*
X66764200Y-117370000D01*
X66567900Y-114025000D02*
X66567900Y-117174000D01*
X63312900Y-110770000D02*
X66567900Y-114025000D01*
X61791400Y-110770000D02*
X63312900Y-110770000D01*
X60450000Y-109428000D02*
X61791400Y-110770000D01*
X60450000Y-108500000D02*
X60450000Y-109428000D01*
%TO.N,/EB15*%
X113640000Y-129566000D02*
X119575000Y-135500000D01*
X90915000Y-129566000D02*
X113640000Y-129566000D01*
X85266300Y-105847000D02*
X87430200Y-105847000D01*
X83969500Y-104550000D02*
X85266300Y-105847000D01*
X83015400Y-104550000D02*
X83969500Y-104550000D01*
X80850000Y-102385000D02*
X83015400Y-104550000D01*
X80850000Y-101475000D02*
X80850000Y-102385000D01*
%TO.N,/EA14*%
X59800000Y-109428000D02*
X59800000Y-108500000D01*
X61636900Y-111265000D02*
X59800000Y-109428000D01*
X63075900Y-111265000D02*
X61636900Y-111265000D01*
X64823300Y-113012000D02*
X63075900Y-111265000D01*
X64987600Y-113012000D02*
X64823300Y-113012000D01*
X65340100Y-113365000D02*
X64987600Y-113012000D01*
X65340100Y-113529000D02*
X65340100Y-113365000D01*
X66166200Y-114355000D02*
X65340100Y-113529000D01*
X66166200Y-117340000D02*
X66166200Y-114355000D01*
X66362500Y-117536000D02*
X66166200Y-117340000D01*
X66362500Y-121273000D02*
X66362500Y-117536000D01*
X76712400Y-131623000D02*
X66362500Y-121273000D01*
X86395900Y-131623000D02*
X76712400Y-131623000D01*
X90273300Y-135500000D02*
X86395900Y-131623000D01*
X91575000Y-135500000D02*
X90273300Y-135500000D01*
%TO.N,/EB14*%
X81500000Y-100604000D02*
X81500000Y-101475000D01*
X81894300Y-100210000D02*
X81500000Y-100604000D01*
X86965300Y-100210000D02*
X81894300Y-100210000D01*
X89486900Y-102731000D02*
X86965300Y-100210000D01*
X94117200Y-102731000D02*
X89486900Y-102731000D01*
X94936900Y-103551000D02*
X94117200Y-102731000D01*
%TO.N,/ESW14*%
X101262000Y-104268000D02*
X101027000Y-104504000D01*
X103005000Y-104268000D02*
X101262000Y-104268000D01*
X104875000Y-102398000D02*
X103005000Y-104268000D01*
X104875000Y-101475000D02*
X104875000Y-102398000D01*
X101027000Y-104504000D02*
X100967000Y-104563000D01*
X101027000Y-104504000D02*
X100967000Y-104563000D01*
X99284400Y-104540000D02*
X99156100Y-104668000D01*
X100840000Y-104540000D02*
X99284400Y-104540000D01*
X100864000Y-104565000D02*
X100840000Y-104540000D01*
X100883000Y-104565000D02*
X100864000Y-104565000D01*
X100884000Y-104563000D02*
X100883000Y-104565000D01*
X100967000Y-104563000D02*
X100884000Y-104563000D01*
%TO.N,/ESW13*%
X100874000Y-105142000D02*
X100590000Y-105142000D01*
X101051000Y-104965000D02*
X100874000Y-105142000D01*
X101134000Y-104965000D02*
X101051000Y-104965000D01*
X101428000Y-104670000D02*
X101134000Y-104965000D01*
X103228000Y-104670000D02*
X101428000Y-104670000D01*
X105525000Y-102374000D02*
X103228000Y-104670000D01*
X105525000Y-101475000D02*
X105525000Y-102374000D01*
X74876700Y-119698000D02*
X73575000Y-121000000D01*
X97840600Y-119698000D02*
X74876700Y-119698000D01*
X98622000Y-120480000D02*
X97840600Y-119698000D01*
X101126000Y-120480000D02*
X98622000Y-120480000D01*
%TO.N,/EA13*%
X62470700Y-135500000D02*
X59811900Y-132841000D01*
X68575000Y-135500000D02*
X62470700Y-135500000D01*
X59150000Y-107085000D02*
X59150000Y-108500000D01*
X59059500Y-106995000D02*
X59150000Y-107085000D01*
%TO.N,/EB13*%
X82150000Y-102834000D02*
X82150000Y-101475000D01*
X82255000Y-102939000D02*
X82150000Y-102834000D01*
%TO.N,/EB12*%
X53850700Y-132224000D02*
X76992100Y-132224000D01*
X50575000Y-135500000D02*
X53850700Y-132224000D01*
X82800000Y-102633000D02*
X82800000Y-101475000D01*
X83163600Y-102997000D02*
X82800000Y-102633000D01*
X83163600Y-103045000D02*
X83163600Y-102997000D01*
%TO.N,/ESW12*%
X64996000Y-121000000D02*
X50575000Y-121000000D01*
X65760700Y-120235000D02*
X64996000Y-121000000D01*
X67978100Y-119297000D02*
X67365900Y-119909000D01*
X98293500Y-119297000D02*
X67978100Y-119297000D01*
X98489800Y-119493000D02*
X98293500Y-119297000D01*
X105065000Y-119493000D02*
X98489800Y-119493000D01*
X105774000Y-120202000D02*
X105065000Y-119493000D01*
X106175000Y-102714000D02*
X105774000Y-103115000D01*
X106175000Y-101475000D02*
X106175000Y-102714000D01*
%TO.N,/EA12*%
X58500000Y-107587000D02*
X58500000Y-108500000D01*
X58116300Y-107203000D02*
X58500000Y-107587000D01*
X54930800Y-107203000D02*
X58116300Y-107203000D01*
X54630500Y-107503000D02*
X54930800Y-107203000D01*
X53585100Y-107503000D02*
X54630500Y-107503000D01*
X51167500Y-109921000D02*
X53585100Y-107503000D01*
X50976600Y-109921000D02*
X51167500Y-109921000D01*
%TO.N,/EB11*%
X111892000Y-110476000D02*
X112057000Y-110311000D01*
X111892000Y-110476000D02*
X112057000Y-110311000D01*
X117386000Y-110311000D02*
X119575000Y-112500000D01*
X112057000Y-110311000D02*
X117386000Y-110311000D01*
X103754000Y-110494000D02*
X103939000Y-110309000D01*
X103754000Y-110494000D02*
X103939000Y-110309000D01*
X111164000Y-110476000D02*
X111892000Y-110476000D01*
X111002000Y-110637000D02*
X111164000Y-110476000D01*
X111002000Y-110642000D02*
X111002000Y-110637000D01*
X110767000Y-110877000D02*
X111002000Y-110642000D01*
X104507000Y-110877000D02*
X110767000Y-110877000D01*
X103939000Y-110309000D02*
X104507000Y-110877000D01*
X86692200Y-104434000D02*
X86456800Y-104670000D01*
X87465300Y-104434000D02*
X86692200Y-104434000D01*
X93358900Y-110328000D02*
X87465300Y-104434000D01*
X103588000Y-110328000D02*
X93358900Y-110328000D01*
X103754000Y-110494000D02*
X103588000Y-110328000D01*
X86456800Y-104670000D02*
X86290500Y-104836000D01*
X86456800Y-104670000D02*
X86290500Y-104836000D01*
X85601300Y-104836000D02*
X86290500Y-104836000D01*
X84931500Y-104166000D02*
X85601300Y-104836000D01*
X84931500Y-103826000D02*
X84931500Y-104166000D01*
X83450000Y-102345000D02*
X84931500Y-103826000D01*
X83450000Y-101475000D02*
X83450000Y-102345000D01*
%TO.N,/ESW11*%
X106825000Y-102354000D02*
X106825000Y-101475000D01*
X107224000Y-102754000D02*
X106825000Y-102354000D01*
X117988000Y-102754000D02*
X107224000Y-102754000D01*
X118149000Y-102592000D02*
X117988000Y-102754000D01*
%TO.N,/EB10*%
X86525900Y-104032000D02*
X86290500Y-104268000D01*
X90433300Y-104032000D02*
X86525900Y-104032000D01*
X94555900Y-108155000D02*
X90433300Y-104032000D01*
X95781000Y-108155000D02*
X94555900Y-108155000D01*
X86290500Y-104268000D02*
X86150900Y-104407000D01*
X86290500Y-104268000D02*
X86150900Y-104407000D01*
X86095800Y-104352000D02*
X86150900Y-104407000D01*
X85685800Y-104352000D02*
X86095800Y-104352000D01*
X85333200Y-104000000D02*
X85685800Y-104352000D01*
X85333200Y-103594000D02*
X85333200Y-104000000D01*
X84100000Y-102361000D02*
X85333200Y-103594000D01*
X84100000Y-101475000D02*
X84100000Y-102361000D01*
%TO.N,/EA10*%
X59728500Y-111904000D02*
X62385700Y-111904000D01*
X57200000Y-109375000D02*
X59728500Y-111904000D01*
X57200000Y-108500000D02*
X57200000Y-109375000D01*
X73284000Y-109766000D02*
X74406300Y-108644000D01*
X63093400Y-109766000D02*
X73284000Y-109766000D01*
X89751000Y-113022000D02*
X75917000Y-113022000D01*
X90273300Y-112500000D02*
X89751000Y-113022000D01*
X91575000Y-112500000D02*
X90273300Y-112500000D01*
%TO.N,/ESW10*%
X107475000Y-100592000D02*
X107475000Y-101475000D01*
X106658000Y-99775600D02*
X107475000Y-100592000D01*
X103148000Y-99775600D02*
X106658000Y-99775600D01*
X103036000Y-99887100D02*
X103148000Y-99775600D01*
X103036000Y-99887100D02*
X103148000Y-99775600D01*
X102801000Y-100122000D02*
X103036000Y-99887100D01*
X96552200Y-100122000D02*
X102801000Y-100122000D01*
X95950400Y-100724000D02*
X96552200Y-100122000D01*
%TO.N,/EA9*%
X56550000Y-109452000D02*
X56550000Y-108500000D01*
X60712100Y-113614000D02*
X56550000Y-109452000D01*
X64738400Y-113614000D02*
X60712100Y-113614000D01*
%TO.N,/EB9*%
X86444100Y-113624000D02*
X86863100Y-114043000D01*
X74699000Y-113624000D02*
X86444100Y-113624000D01*
X73575000Y-112500000D02*
X74699000Y-113624000D01*
X85934900Y-103626000D02*
X85934900Y-103751000D01*
X84750000Y-102441000D02*
X85934900Y-103626000D01*
X84750000Y-101475000D02*
X84750000Y-102441000D01*
%TO.N,/ESW9*%
X74427200Y-97147800D02*
X73575000Y-98000000D01*
X75962800Y-97147800D02*
X74427200Y-97147800D01*
X76931400Y-96195500D02*
X76800100Y-96064200D01*
X87419900Y-96195500D02*
X76931400Y-96195500D01*
X87679600Y-96455200D02*
X87419900Y-96195500D01*
X107829000Y-96455200D02*
X87679600Y-96455200D01*
X108125000Y-100270000D02*
X108125000Y-101475000D01*
X107927000Y-100072000D02*
X108125000Y-100270000D01*
X107927000Y-99287100D02*
X107927000Y-100072000D01*
X108136000Y-99077900D02*
X107927000Y-99287100D01*
%TO.N,/EB8*%
X78107400Y-96817300D02*
X87121200Y-96817300D01*
X76281400Y-98643300D02*
X78107400Y-96817300D01*
X76103100Y-98643300D02*
X76281400Y-98643300D01*
X74853000Y-99893400D02*
X76103100Y-98643300D01*
X66711500Y-99893400D02*
X74853000Y-99893400D01*
X62155300Y-104450000D02*
X66711500Y-99893400D01*
X56249300Y-104450000D02*
X62155300Y-104450000D01*
X56188600Y-104389000D02*
X56249300Y-104450000D01*
X54900700Y-104389000D02*
X56188600Y-104389000D01*
X52215100Y-107074000D02*
X54900700Y-104389000D01*
X52023100Y-107074000D02*
X52215100Y-107074000D01*
X85400000Y-102433000D02*
X85400000Y-101475000D01*
X85960900Y-102994000D02*
X85400000Y-102433000D01*
X87123300Y-102994000D02*
X85960900Y-102994000D01*
%TO.N,/EA8*%
X55900000Y-109404000D02*
X55900000Y-108500000D01*
X54781700Y-110522000D02*
X55900000Y-109404000D01*
X47552500Y-110522000D02*
X54781700Y-110522000D01*
X45575000Y-112500000D02*
X47552500Y-110522000D01*
%TO.N,/ESW8*%
X108775000Y-100069000D02*
X108529000Y-99822700D01*
X108775000Y-101475000D02*
X108775000Y-100069000D01*
X79013900Y-97564500D02*
X78847600Y-97730800D01*
X79013900Y-97564500D02*
X78847600Y-97730800D01*
X64504900Y-102787000D02*
X64338600Y-102954000D01*
X64504900Y-102787000D02*
X64338600Y-102954000D01*
X62303100Y-104989000D02*
X64338600Y-102954000D01*
X55646800Y-104989000D02*
X62303100Y-104989000D01*
X55646800Y-104991000D02*
X55646800Y-104989000D01*
X65725900Y-102787000D02*
X67788700Y-100724000D01*
X64504900Y-102787000D02*
X65725900Y-102787000D01*
X67788700Y-100724000D02*
X67955000Y-100558000D01*
X67788700Y-100724000D02*
X67955000Y-100558000D01*
X76187200Y-99209800D02*
X76280000Y-99209800D01*
X74838800Y-100558000D02*
X76187200Y-99209800D01*
X67955000Y-100558000D02*
X74838800Y-100558000D01*
X76280000Y-99209800D02*
X76444800Y-99045000D01*
X76280000Y-99209800D02*
X76444800Y-99045000D01*
X76447800Y-99045000D02*
X76683200Y-98809600D01*
X76444800Y-99045000D02*
X76447800Y-99045000D01*
X76683200Y-98809600D02*
X77761800Y-97731000D01*
X76683200Y-98809600D02*
X77761800Y-97731000D01*
X78847400Y-97731000D02*
X78847600Y-97730800D01*
X77761800Y-97731000D02*
X78847400Y-97731000D01*
X99292200Y-97866200D02*
X106838000Y-97866200D01*
X97839300Y-99319100D02*
X99292200Y-97866200D01*
X91006800Y-99319100D02*
X97839300Y-99319100D01*
X89252200Y-97564500D02*
X91006800Y-99319100D01*
X79013900Y-97564500D02*
X89252200Y-97564500D01*
%TO.N,/ESW7*%
X108775000Y-109376000D02*
X108775000Y-108475000D01*
X109175000Y-109776000D02*
X108775000Y-109376000D01*
X110162000Y-109776000D02*
X109175000Y-109776000D01*
X111977000Y-107961000D02*
X110162000Y-109776000D01*
X113975000Y-107961000D02*
X111977000Y-107961000D01*
%TO.N,/EB7*%
X86870300Y-108466000D02*
X88019500Y-107317000D01*
X86870300Y-109173000D02*
X86870300Y-108466000D01*
X86308400Y-109735000D02*
X86870300Y-109173000D01*
X85740600Y-109735000D02*
X86308400Y-109735000D01*
X85400000Y-109395000D02*
X85740600Y-109735000D01*
X85400000Y-108475000D02*
X85400000Y-109395000D01*
X118048000Y-87973300D02*
X119575000Y-89500000D01*
X87539600Y-87973300D02*
X118048000Y-87973300D01*
%TO.N,/EA6*%
X51884600Y-100223000D02*
X51161900Y-100946000D01*
X52033400Y-100223000D02*
X51884600Y-100223000D01*
X52435000Y-99821200D02*
X52033400Y-100223000D01*
X55828900Y-99821200D02*
X52435000Y-99821200D01*
X56550000Y-100542000D02*
X55828900Y-99821200D01*
X56550000Y-101500000D02*
X56550000Y-100542000D01*
X84594400Y-95178900D02*
X81318400Y-95178900D01*
X90273300Y-89500000D02*
X84594400Y-95178900D01*
X91575000Y-89500000D02*
X90273300Y-89500000D01*
X56893100Y-128806000D02*
X53975000Y-125888000D01*
X72326100Y-128806000D02*
X56893100Y-128806000D01*
%TO.N,/ESW6*%
X107881000Y-75000000D02*
X107975000Y-75094000D01*
X96575000Y-75000000D02*
X107881000Y-75000000D01*
X108125000Y-109415000D02*
X108125000Y-108475000D01*
X108924000Y-110213000D02*
X108125000Y-109415000D01*
X110576000Y-110213000D02*
X108924000Y-110213000D01*
X110663000Y-110126000D02*
X110576000Y-110213000D01*
%TO.N,/EB6*%
X88274400Y-108266000D02*
X89637200Y-108266000D01*
X87272000Y-109269000D02*
X88274400Y-108266000D01*
X87272000Y-109340000D02*
X87272000Y-109269000D01*
X86474700Y-110137000D02*
X87272000Y-109340000D01*
X85431500Y-110137000D02*
X86474700Y-110137000D01*
X84750000Y-109456000D02*
X85431500Y-110137000D01*
X84750000Y-108475000D02*
X84750000Y-109456000D01*
%TO.N,/ESW5*%
X107475000Y-107606000D02*
X107475000Y-108475000D01*
X108086000Y-106996000D02*
X107475000Y-107606000D01*
X108900000Y-106996000D02*
X108086000Y-106996000D01*
X88926800Y-87142200D02*
X88762000Y-87307000D01*
X88926800Y-87142200D02*
X88762000Y-87307000D01*
X78306900Y-86101700D02*
X74975000Y-86101700D01*
X79512200Y-87307000D02*
X78306900Y-86101700D01*
X88762000Y-87307000D02*
X79512200Y-87307000D01*
X108216000Y-87142200D02*
X88926800Y-87142200D01*
X108562000Y-86795700D02*
X108216000Y-87142200D01*
%TO.N,/EB4*%
X62953300Y-90066000D02*
X63033000Y-90145700D01*
X51141000Y-90066000D02*
X62953300Y-90066000D01*
X50575000Y-89500000D02*
X51141000Y-90066000D01*
X63671500Y-108442000D02*
X63443700Y-108442000D01*
X66935900Y-105178000D02*
X63671500Y-108442000D01*
X74589300Y-105178000D02*
X66935900Y-105178000D01*
X76011100Y-106599000D02*
X74589300Y-105178000D01*
X80631400Y-106599000D02*
X76011100Y-106599000D01*
X80797700Y-106433000D02*
X80631400Y-106599000D01*
X80797700Y-106433000D02*
X80631400Y-106599000D01*
X81179900Y-106051000D02*
X80797700Y-106433000D01*
X82046200Y-106051000D02*
X81179900Y-106051000D01*
X83450000Y-107455000D02*
X82046200Y-106051000D01*
X83450000Y-108475000D02*
X83450000Y-107455000D01*
%TO.N,/ESW4*%
X106825000Y-107494000D02*
X106825000Y-108475000D01*
X107213000Y-107105000D02*
X106825000Y-107494000D01*
X107213000Y-106823000D02*
X107213000Y-107105000D01*
X75448200Y-82245100D02*
X75075000Y-81871900D01*
X105247000Y-82245100D02*
X75448200Y-82245100D01*
X106008000Y-83005600D02*
X105247000Y-82245100D01*
X50677600Y-74897400D02*
X50575000Y-75000000D01*
X63030200Y-74897400D02*
X50677600Y-74897400D01*
X65067600Y-76934800D02*
X63030200Y-74897400D01*
X75075000Y-76934800D02*
X65067600Y-76934800D01*
%TO.N,/EA4*%
X45086800Y-96462300D02*
X44914700Y-96290200D01*
X53703400Y-96462300D02*
X45086800Y-96462300D01*
X57850000Y-100609000D02*
X53703400Y-96462300D01*
X57850000Y-101500000D02*
X57850000Y-100609000D01*
%TO.N,/EA3*%
X58500000Y-97375300D02*
X58500000Y-101500000D01*
X59099400Y-96775900D02*
X58500000Y-97375300D01*
X83449500Y-78081900D02*
X113475000Y-78081900D01*
X82749300Y-77381700D02*
X83449500Y-78081900D01*
X75479000Y-77381700D02*
X82749300Y-77381700D01*
X75324200Y-77536500D02*
X75479000Y-77381700D01*
X74825900Y-77536500D02*
X75324200Y-77536500D01*
X74671100Y-77381700D02*
X74825900Y-77536500D01*
X59378300Y-77381700D02*
X74671100Y-77381700D01*
X59312500Y-77447500D02*
X59378300Y-77381700D01*
%TO.N,/EB3*%
X103685000Y-111131000D02*
X103794000Y-111022000D01*
X103685000Y-111131000D02*
X103794000Y-111022000D01*
X114458000Y-111022000D02*
X114525000Y-110955000D01*
X111190000Y-111022000D02*
X114458000Y-111022000D01*
X111169000Y-111044000D02*
X111190000Y-111022000D01*
X111169000Y-111044000D02*
X111190000Y-111022000D01*
X110933000Y-111279000D02*
X111169000Y-111044000D01*
X104050000Y-111279000D02*
X110933000Y-111279000D01*
X103794000Y-111022000D02*
X104050000Y-111279000D01*
X103283000Y-110729000D02*
X103685000Y-111131000D01*
X92649500Y-110729000D02*
X103283000Y-110729000D01*
X91131400Y-109211000D02*
X92649500Y-110729000D01*
X87968400Y-109211000D02*
X91131400Y-109211000D01*
X86641000Y-110539000D02*
X87968400Y-109211000D01*
X83986100Y-110539000D02*
X86641000Y-110539000D01*
X82800000Y-109353000D02*
X83986100Y-110539000D01*
X82800000Y-108475000D02*
X82800000Y-109353000D01*
%TO.N,/ESW3*%
X117777000Y-106205000D02*
X117942000Y-106040000D01*
X117777000Y-106205000D02*
X117942000Y-106040000D01*
X121706000Y-106040000D02*
X121708000Y-106039000D01*
X117942000Y-106040000D02*
X121706000Y-106040000D01*
X117611000Y-106039000D02*
X107770000Y-106039000D01*
X117777000Y-106205000D02*
X117611000Y-106039000D01*
X107770000Y-106039000D02*
X107604000Y-106205000D01*
X107770000Y-106039000D02*
X107604000Y-106205000D01*
X106175000Y-107576000D02*
X106175000Y-108475000D01*
X106645000Y-107106000D02*
X106175000Y-107576000D01*
X106612000Y-107072000D02*
X106645000Y-107106000D01*
X106612000Y-106574000D02*
X106612000Y-107072000D01*
X106981000Y-106205000D02*
X106612000Y-106574000D01*
X107604000Y-106205000D02*
X106981000Y-106205000D01*
%TO.N,/ESW2*%
X101766000Y-105543000D02*
X100719000Y-106590000D01*
X104110000Y-105543000D02*
X101766000Y-105543000D01*
X105525000Y-106959000D02*
X104110000Y-105543000D01*
X105525000Y-108475000D02*
X105525000Y-106959000D01*
%TO.N,/EA2*%
X57448400Y-62159100D02*
X56492500Y-63115000D01*
X85932400Y-62159100D02*
X57448400Y-62159100D01*
X90273300Y-66500000D02*
X85932400Y-62159100D01*
X91575000Y-66500000D02*
X90273300Y-66500000D01*
X59047300Y-101397000D02*
X59150000Y-101500000D01*
X59047300Y-98139200D02*
X59047300Y-101397000D01*
X59704800Y-97481700D02*
X59047300Y-98139200D01*
X59704800Y-96510200D02*
X59704800Y-97481700D01*
X58763500Y-95568900D02*
X59704800Y-96510200D01*
X56631200Y-95568900D02*
X58763500Y-95568900D01*
%TO.N,/EB2*%
X90764800Y-109813000D02*
X90799600Y-109813000D01*
X90763600Y-109814000D02*
X90764800Y-109813000D01*
X90436100Y-110142000D02*
X90763600Y-109814000D01*
X87606000Y-110142000D02*
X90436100Y-110142000D01*
X86807300Y-110940000D02*
X87606000Y-110142000D01*
X83693700Y-110940000D02*
X86807300Y-110940000D01*
X82150000Y-109397000D02*
X83693700Y-110940000D01*
X82150000Y-108475000D02*
X82150000Y-109397000D01*
%TO.N,/EA1*%
X43776200Y-82184700D02*
X41903200Y-84057700D01*
X64591700Y-82184700D02*
X43776200Y-82184700D01*
X65663500Y-81112900D02*
X64591700Y-82184700D01*
%TO.N,/ESW1*%
X104132000Y-106201000D02*
X102451000Y-106201000D01*
X104875000Y-106944000D02*
X104132000Y-106201000D01*
X104875000Y-108475000D02*
X104875000Y-106944000D01*
X99396300Y-60932400D02*
X101115000Y-60932400D01*
X95321800Y-56857900D02*
X99396300Y-60932400D01*
X95321800Y-56857800D02*
X95321800Y-56857900D01*
X78166600Y-56857800D02*
X95321800Y-56857800D01*
X75487500Y-54178700D02*
X78166600Y-56857800D01*
%TO.N,/EB1*%
X85232900Y-67110000D02*
X86075000Y-67952100D01*
X76978200Y-67110000D02*
X85232900Y-67110000D01*
X75605300Y-65737100D02*
X76978200Y-67110000D01*
X86973600Y-111342000D02*
X87444400Y-110871000D01*
X83403200Y-111342000D02*
X86973600Y-111342000D01*
X81500000Y-109439000D02*
X83403200Y-111342000D01*
X81500000Y-108475000D02*
X81500000Y-109439000D01*
X87644500Y-110745000D02*
X87749400Y-110850000D01*
X87571100Y-110745000D02*
X87644500Y-110745000D01*
X87444400Y-110871000D02*
X87571100Y-110745000D01*
X87444400Y-110871000D02*
X87571100Y-110745000D01*
%TO.N,/EA0*%
X44735100Y-102918000D02*
X55952300Y-102918000D01*
X43431300Y-101615000D02*
X44735100Y-102918000D01*
X60450000Y-102369000D02*
X60450000Y-101500000D01*
X60067100Y-102752000D02*
X60450000Y-102369000D01*
X56118600Y-102752000D02*
X60067100Y-102752000D01*
X55952300Y-102918000D02*
X56118600Y-102752000D01*
X55952300Y-102918000D02*
X56118600Y-102752000D01*
%TO.N,/ESW0*%
X104225000Y-107182000D02*
X104225000Y-108475000D01*
X103989000Y-106946000D02*
X104225000Y-107182000D01*
X52837600Y-54262600D02*
X50575000Y-52000000D01*
X68285700Y-54262600D02*
X52837600Y-54262600D01*
X71865100Y-50683200D02*
X68285700Y-54262600D01*
X75046000Y-50683200D02*
X71865100Y-50683200D01*
X78679100Y-54316300D02*
X75046000Y-50683200D01*
X94165200Y-54316300D02*
X78679100Y-54316300D01*
X98971200Y-59122300D02*
X94165200Y-54316300D01*
X99287900Y-59122300D02*
X98971200Y-59122300D01*
X99640400Y-59474800D02*
X99287900Y-59122300D01*
X99640400Y-59554000D02*
X99640400Y-59474800D01*
X100298000Y-60211700D02*
X99640400Y-59554000D01*
X102150000Y-60211700D02*
X100298000Y-60211700D01*
%TO.N,/EB0*%
X79250000Y-110960000D02*
X77975000Y-110960000D01*
X80850000Y-109360000D02*
X79250000Y-110960000D01*
X80850000Y-108475000D02*
X80850000Y-109360000D01*
%TO.N,Net-(J2-PadT)*%
X111200000Y-54525000D02*
X102875000Y-54525000D01*
X113525000Y-56850000D02*
X111200000Y-54525000D01*
%TO.N,Net-(D15-DOUT)*%
X113435000Y-139850000D02*
X114565000Y-140980000D01*
X97825000Y-139850000D02*
X113435000Y-139850000D01*
X96745000Y-138770000D02*
X97825000Y-139850000D01*
%TO.N,Net-(D14-DOUT)*%
X74825000Y-139850000D02*
X73745000Y-138770000D01*
X90435000Y-139850000D02*
X74825000Y-139850000D01*
X91565000Y-140980000D02*
X90435000Y-139850000D01*
%TO.N,Net-(D13-DOUT)*%
X67450100Y-139865000D02*
X68565000Y-140980000D01*
X51840100Y-139865000D02*
X67450100Y-139865000D01*
X50745000Y-138770000D02*
X51840100Y-139865000D01*
%TO.N,Net-(D12-DOUT)*%
X120615000Y-142753000D02*
X120780000Y-142918000D01*
X111948000Y-142753000D02*
X120615000Y-142753000D01*
X109398000Y-145302000D02*
X111948000Y-142753000D01*
X49764700Y-145302000D02*
X109398000Y-145302000D01*
X45565000Y-141103000D02*
X49764700Y-145302000D01*
X45565000Y-140980000D02*
X45565000Y-141103000D01*
X120497000Y-116522000D02*
X119745000Y-115770000D01*
X121233000Y-116522000D02*
X120497000Y-116522000D01*
%TO.N,Net-(D11-DOUT)*%
X113435000Y-116850000D02*
X114565000Y-117980000D01*
X97825000Y-116850000D02*
X113435000Y-116850000D01*
X96745000Y-115770000D02*
X97825000Y-116850000D01*
%TO.N,Net-(D10-DOUT)*%
X74817500Y-116842000D02*
X73745000Y-115770000D01*
X90427500Y-116842000D02*
X74817500Y-116842000D01*
X91565000Y-117980000D02*
X90427500Y-116842000D01*
%TO.N,Net-(D10-DIN)*%
X67509600Y-116925000D02*
X68565000Y-117980000D01*
X67169600Y-116925000D02*
X67509600Y-116925000D01*
X48869600Y-119154000D02*
X48025000Y-119998000D01*
X60607300Y-119154000D02*
X48869600Y-119154000D01*
X65360300Y-114401000D02*
X60607300Y-119154000D01*
X50745000Y-116822000D02*
X50745000Y-115770000D01*
X50802600Y-116880000D02*
X50745000Y-116822000D01*
%TO.N,Net-(D8-DOUT)*%
X77352200Y-99473200D02*
X77517000Y-99308400D01*
X77352200Y-99473200D02*
X77517000Y-99308400D01*
X54564700Y-106872000D02*
X54398400Y-107039000D01*
X54564700Y-106872000D02*
X54398400Y-107039000D01*
X79426900Y-99308400D02*
X77517000Y-99308400D01*
X79550100Y-99185200D02*
X79426900Y-99308400D01*
X79550100Y-99185200D02*
X79426900Y-99308400D01*
X83346000Y-98267900D02*
X83465900Y-98148000D01*
X83346000Y-98267900D02*
X83465900Y-98148000D01*
X53481600Y-107039000D02*
X54398400Y-107039000D01*
X52844000Y-107676000D02*
X53481600Y-107039000D01*
X47945200Y-107676000D02*
X52844000Y-107676000D01*
X44252000Y-111369000D02*
X47945200Y-107676000D01*
X44252000Y-116667000D02*
X44252000Y-111369000D01*
X45565000Y-117980000D02*
X44252000Y-116667000D01*
X75872700Y-100168000D02*
X75877600Y-100163000D01*
X75872700Y-100168000D02*
X75877600Y-100163000D01*
X80366800Y-98267900D02*
X83346000Y-98267900D01*
X79615800Y-99018900D02*
X80366800Y-98267900D01*
X79615800Y-99119500D02*
X79615800Y-99018900D01*
X79550100Y-99185200D02*
X79615800Y-99119500D01*
X120962000Y-93987000D02*
X119745000Y-92770000D01*
X120962000Y-95676400D02*
X120962000Y-93987000D01*
X120258000Y-96380700D02*
X120962000Y-95676400D01*
X112346000Y-96380700D02*
X120258000Y-96380700D01*
X112267000Y-96459700D02*
X112346000Y-96380700D01*
X112267000Y-96459700D02*
X112346000Y-96380700D01*
X109904000Y-96459700D02*
X112267000Y-96459700D01*
X107125000Y-99237800D02*
X109904000Y-96459700D01*
X103118000Y-99237800D02*
X107125000Y-99237800D01*
X102635000Y-99720800D02*
X103118000Y-99237800D01*
X89940700Y-99720800D02*
X102635000Y-99720800D01*
X88367900Y-98148000D02*
X89940700Y-99720800D01*
X83465900Y-98148000D02*
X88367900Y-98148000D01*
X76662300Y-100163000D02*
X77352200Y-99473200D01*
X75877600Y-100163000D02*
X76662300Y-100163000D01*
X74880200Y-101160000D02*
X75872700Y-100168000D01*
X67951900Y-101160000D02*
X74880200Y-101160000D01*
X65415700Y-103697000D02*
X67951900Y-101160000D01*
X64849800Y-103697000D02*
X65415700Y-103697000D01*
X62521000Y-106026000D02*
X64849800Y-103697000D01*
X55411500Y-106026000D02*
X62521000Y-106026000D01*
X54564700Y-106872000D02*
X55411500Y-106026000D01*
%TO.N,Net-(D7-DOUT)*%
X97825000Y-93850000D02*
X96745000Y-92770000D01*
X112437000Y-93850000D02*
X97825000Y-93850000D01*
X112656000Y-93631000D02*
X112437000Y-93850000D01*
X113216000Y-93631000D02*
X112656000Y-93631000D01*
X114565000Y-94980000D02*
X113216000Y-93631000D01*
%TO.N,Net-(D4-DOUT)*%
X45565000Y-95155200D02*
X45565000Y-94980000D01*
X46358800Y-95949000D02*
X45565000Y-95155200D01*
X55009300Y-95949000D02*
X46358800Y-95949000D01*
X58589900Y-92368400D02*
X55009300Y-95949000D01*
X62591800Y-92368400D02*
X58589900Y-92368400D01*
X63634700Y-91325500D02*
X62591800Y-92368400D01*
X63634700Y-86535200D02*
X63634700Y-91325500D01*
X65402400Y-84767500D02*
X63634700Y-86535200D01*
X111872000Y-84767500D02*
X65402400Y-84767500D01*
X124423000Y-72216100D02*
X111872000Y-84767500D01*
X124423000Y-71175100D02*
X124423000Y-72216100D01*
X124098000Y-70850000D02*
X124423000Y-71175100D01*
X120825000Y-70850000D02*
X124098000Y-70850000D01*
X119745000Y-69770000D02*
X120825000Y-70850000D01*
%TO.N,Net-(D3-DOUT)*%
X96659800Y-69684800D02*
X96659800Y-68535600D01*
X96745000Y-69770000D02*
X96659800Y-69684800D01*
X99244100Y-72255000D02*
X99244100Y-71505000D01*
X99945300Y-72956200D02*
X99244100Y-72255000D01*
X113589000Y-72956200D02*
X99945300Y-72956200D01*
X114565000Y-71980000D02*
X113589000Y-72956200D01*
%TO.N,Net-(D2-DOUT)*%
X74825000Y-70850000D02*
X73745000Y-69770000D01*
X78112900Y-70850000D02*
X74825000Y-70850000D01*
X79295400Y-72032500D02*
X78112900Y-70850000D01*
X91512500Y-72032500D02*
X79295400Y-72032500D01*
X91565000Y-71980000D02*
X91512500Y-72032500D01*
%TO.N,Net-(D1-DOUT)*%
X66575200Y-69990200D02*
X68565000Y-71980000D01*
X66575200Y-65876700D02*
X66575200Y-69990200D01*
X65380000Y-64681500D02*
X66575200Y-65876700D01*
X44965800Y-64681500D02*
X65380000Y-64681500D01*
X44273300Y-65374000D02*
X44965800Y-64681500D01*
X44273300Y-67627500D02*
X44273300Y-65374000D01*
X45050100Y-68404300D02*
X44273300Y-67627500D01*
X49570900Y-68404300D02*
X45050100Y-68404300D01*
X50745000Y-69578400D02*
X49570900Y-68404300D01*
X50745000Y-69770000D02*
X50745000Y-69578400D01*
%TO.N,Net-(A1-GPIO8)*%
X79940000Y-70920000D02*
X80740000Y-70920000D01*
X79216200Y-107201000D02*
X75935800Y-107201000D01*
X79550000Y-107535000D02*
X79216200Y-107201000D01*
X79550000Y-108475000D02*
X79550000Y-107535000D01*
X102925000Y-107017000D02*
X102925000Y-108475000D01*
X102946000Y-106996000D02*
X102925000Y-107017000D01*
X102029000Y-111198000D02*
X102446000Y-111615000D01*
X90450000Y-111198000D02*
X102029000Y-111198000D01*
X89494600Y-112154000D02*
X90450000Y-111198000D01*
X76370200Y-112154000D02*
X89494600Y-112154000D01*
X75946200Y-111730000D02*
X76370200Y-112154000D01*
X61750000Y-102417000D02*
X61750000Y-101500000D01*
X62104900Y-102772000D02*
X61750000Y-102417000D01*
X62646700Y-102772000D02*
X62104900Y-102772000D01*
X66115800Y-99302900D02*
X62646700Y-102772000D01*
X74689400Y-99302900D02*
X66115800Y-99302900D01*
X75952300Y-98040000D02*
X74689400Y-99302900D01*
X85180100Y-77448600D02*
X102904000Y-77448600D01*
X83362500Y-75631000D02*
X85180100Y-77448600D01*
%TO.N,+3V3*%
X61360000Y-55680000D02*
X62160000Y-55680000D01*
X97022500Y-140712000D02*
X96745000Y-140990000D01*
X100625000Y-140712000D02*
X97022500Y-140712000D01*
X51997500Y-140712000D02*
X54625000Y-140712000D01*
X51720000Y-140990000D02*
X51997500Y-140712000D01*
X50745000Y-140990000D02*
X51720000Y-140990000D01*
X59710000Y-143170000D02*
X59930000Y-143170000D01*
X57252500Y-140712000D02*
X59710000Y-143170000D01*
X54625000Y-140712000D02*
X57252500Y-140712000D01*
X74022500Y-71712500D02*
X77625000Y-71712500D01*
X73745000Y-71990000D02*
X74022500Y-71712500D01*
X74022500Y-140712000D02*
X73745000Y-140990000D01*
X77625000Y-140712000D02*
X74022500Y-140712000D01*
X120022000Y-71712500D02*
X119745000Y-71990000D01*
X123625000Y-71712500D02*
X120022000Y-71712500D01*
X97022500Y-94712500D02*
X96745000Y-94990000D01*
X100625000Y-94712500D02*
X97022500Y-94712500D01*
X103750000Y-64750000D02*
X105325000Y-63175000D01*
X101875000Y-64750000D02*
X103750000Y-64750000D01*
X96745000Y-141892000D02*
X96745000Y-140990000D01*
X51146700Y-94588300D02*
X50745000Y-94990000D01*
X53312100Y-94588300D02*
X51146700Y-94588300D01*
X53436300Y-94712500D02*
X53312100Y-94588300D01*
X54625000Y-94712500D02*
X53436300Y-94712500D01*
X53965600Y-108500000D02*
X53762300Y-108297000D01*
X55250000Y-108500000D02*
X53965600Y-108500000D01*
X123348000Y-140990000D02*
X123625000Y-140712000D01*
X119745000Y-140990000D02*
X123348000Y-140990000D01*
X118940000Y-141892000D02*
X96745000Y-141892000D01*
X119745000Y-141087000D02*
X118940000Y-141892000D01*
X119745000Y-140990000D02*
X119745000Y-141087000D01*
X95975000Y-141892000D02*
X95975000Y-143816000D01*
X95975000Y-141892000D02*
X96745000Y-141892000D01*
X101107000Y-65517900D02*
X101107000Y-69144800D01*
X101875000Y-64750000D02*
X101107000Y-65517900D01*
X101444000Y-70893500D02*
X100625000Y-71712500D01*
X101444000Y-69481700D02*
X101444000Y-70893500D01*
X101107000Y-69144800D02*
X101444000Y-69481700D01*
X73745000Y-141892000D02*
X73745000Y-140990000D01*
X95975000Y-141892000D02*
X73745000Y-141892000D01*
X61208300Y-141892000D02*
X59930000Y-143170000D01*
X73745000Y-141892000D02*
X61208300Y-141892000D01*
X97232300Y-71990000D02*
X97807800Y-71414500D01*
X96745000Y-71990000D02*
X97232300Y-71990000D01*
X50745000Y-71990000D02*
X53818500Y-71990000D01*
X54096000Y-71712500D02*
X53818500Y-71990000D01*
X54625000Y-71712500D02*
X54096000Y-71712500D01*
X91947000Y-104162000D02*
X97300000Y-104162000D01*
X91369300Y-103585000D02*
X91947000Y-104162000D01*
X117995000Y-101475000D02*
X109425000Y-101475000D01*
X100834000Y-118898000D02*
X100625000Y-118690000D01*
X118972000Y-118898000D02*
X100834000Y-118898000D01*
X119745000Y-118126000D02*
X118972000Y-118898000D01*
X119745000Y-117990000D02*
X119745000Y-118126000D01*
X100078000Y-69144800D02*
X97807800Y-71414500D01*
X101107000Y-69144800D02*
X100078000Y-69144800D01*
X73745000Y-72811600D02*
X73745000Y-71990000D01*
X65947200Y-71222900D02*
X65947200Y-66105700D01*
X67618200Y-72893900D02*
X65947200Y-71222900D01*
X73662700Y-72893900D02*
X67618200Y-72893900D01*
X73745000Y-72811600D02*
X73662700Y-72893900D01*
X99849900Y-118690000D02*
X99759800Y-118780000D01*
X100625000Y-118690000D02*
X99849900Y-118690000D01*
X119745000Y-72154600D02*
X119745000Y-71990000D01*
X115545000Y-76354200D02*
X119745000Y-72154600D01*
X113520000Y-76354200D02*
X115545000Y-76354200D01*
X111326000Y-74159800D02*
X113520000Y-76354200D01*
X100553000Y-74159800D02*
X111326000Y-74159800D01*
X97807800Y-71414500D02*
X100553000Y-74159800D01*
X90058400Y-95957000D02*
X89893900Y-95792500D01*
X95947400Y-95957000D02*
X90058400Y-95957000D01*
X96745000Y-95159400D02*
X95947400Y-95957000D01*
X96745000Y-94990000D02*
X96745000Y-95159400D01*
X53818500Y-72213900D02*
X53818500Y-71990000D01*
X55776500Y-74171900D02*
X53818500Y-72213900D01*
X58010000Y-74171900D02*
X55776500Y-74171900D01*
X78529900Y-118895000D02*
X77625000Y-117990000D01*
X95936800Y-118895000D02*
X78529900Y-118895000D01*
X96745000Y-118087000D02*
X95936800Y-118895000D01*
X96745000Y-117990000D02*
X96745000Y-118087000D01*
X77625000Y-117990000D02*
X73745000Y-117990000D01*
X86455200Y-101475000D02*
X86050000Y-101475000D01*
X88565000Y-103585000D02*
X86455200Y-101475000D01*
X91369300Y-103585000D02*
X88565000Y-103585000D01*
X120022000Y-117712000D02*
X123625000Y-117712000D01*
X119745000Y-117990000D02*
X120022000Y-117712000D01*
X124407000Y-107888000D02*
X117995000Y-101475000D01*
X124407000Y-116930000D02*
X124407000Y-107888000D01*
X123625000Y-117712000D02*
X124407000Y-116930000D01*
X54625000Y-117712000D02*
X54624800Y-117712000D01*
X100625000Y-118690000D02*
X100625000Y-117712000D01*
X100348000Y-117990000D02*
X96745000Y-117990000D01*
X100625000Y-117712000D02*
X100348000Y-117990000D01*
X54625000Y-117712000D02*
X54624800Y-117712000D01*
X55160100Y-117177000D02*
X54625000Y-117712000D01*
X58010000Y-117177000D02*
X55160100Y-117177000D01*
X54347500Y-117990000D02*
X50745000Y-117990000D01*
X54624800Y-117712000D02*
X54347500Y-117990000D01*
X51200000Y-104462000D02*
X51200200Y-104462000D01*
X51710500Y-104973000D02*
X51200200Y-104462000D01*
X53280300Y-104973000D02*
X51710500Y-104973000D01*
X51200200Y-104462000D02*
X51200000Y-104462000D01*
X123625000Y-95844800D02*
X117995000Y-101475000D01*
X123625000Y-94712500D02*
X123625000Y-95844800D01*
X76901400Y-95436100D02*
X77625000Y-94712500D01*
X75560300Y-95436100D02*
X76901400Y-95436100D01*
X78705000Y-95792500D02*
X77625000Y-94712500D01*
X89893900Y-95792500D02*
X78705000Y-95792500D01*
X119745000Y-95113700D02*
X119745000Y-94990000D01*
X118966000Y-95893200D02*
X119745000Y-95113700D01*
X113374000Y-95893200D02*
X118966000Y-95893200D01*
X112193000Y-94712500D02*
X113374000Y-95893200D01*
X100625000Y-94712500D02*
X112193000Y-94712500D01*
X74843300Y-104338000D02*
X75538000Y-105032000D01*
X74125000Y-104338000D02*
X74843300Y-104338000D01*
X77625000Y-117990000D02*
X77625000Y-117712000D01*
X89825800Y-72954000D02*
X89924900Y-72954000D01*
X88205800Y-74574000D02*
X89825800Y-72954000D01*
X75507400Y-74574000D02*
X88205800Y-74574000D01*
X73745000Y-72811600D02*
X75507400Y-74574000D01*
X96745000Y-72157100D02*
X96745000Y-71990000D01*
X95948100Y-72954000D02*
X96745000Y-72157100D01*
X89924900Y-72954000D02*
X95948100Y-72954000D01*
X89924900Y-72954000D02*
X90012600Y-72866300D01*
%TO.N,Net-(A1-GPIO6)*%
X80740000Y-65840000D02*
X79940000Y-65840000D01*
X78430700Y-101944000D02*
X78900000Y-101475000D01*
X77587300Y-101944000D02*
X78430700Y-101944000D01*
X77942000Y-99751700D02*
X77783500Y-99910200D01*
X79551600Y-99751700D02*
X77942000Y-99751700D01*
X79716400Y-99586900D02*
X79551600Y-99751700D01*
X79716400Y-99586900D02*
X79551600Y-99751700D01*
X84848800Y-98838400D02*
X84737400Y-98949800D01*
X84848800Y-98838400D02*
X84737400Y-98949800D01*
X80360800Y-98949800D02*
X84737400Y-98949800D01*
X79959100Y-99351500D02*
X80360800Y-98949800D01*
X79951800Y-99351500D02*
X79959100Y-99351500D01*
X79716400Y-99586900D02*
X79951800Y-99351500D01*
X102126000Y-101326000D02*
X102275000Y-101475000D01*
X90351600Y-101326000D02*
X102126000Y-101326000D01*
X87864000Y-98838400D02*
X90351600Y-101326000D01*
X84848800Y-98838400D02*
X87864000Y-98838400D01*
X78718700Y-101656000D02*
X78900000Y-101475000D01*
X76088400Y-101656000D02*
X78718700Y-101656000D01*
X76077100Y-101668000D02*
X76088400Y-101656000D01*
X76016200Y-101728000D02*
X76077100Y-101668000D01*
X76016200Y-101728000D02*
X76077100Y-101668000D01*
X75579700Y-102165000D02*
X76016200Y-101728000D01*
X68246800Y-102165000D02*
X75579700Y-102165000D01*
X62400000Y-108012000D02*
X68246800Y-102165000D01*
X62400000Y-108500000D02*
X62400000Y-108012000D01*
%TO.N,Net-(A1-GPIO20)*%
X62160000Y-81080000D02*
X61360000Y-81080000D01*
X63282100Y-79957900D02*
X62160000Y-81080000D01*
X103731000Y-79957900D02*
X63282100Y-79957900D01*
X104636000Y-80862900D02*
X103731000Y-79957900D01*
%TO.N,Net-(A1-GPIO9)*%
X79940000Y-73460000D02*
X80740000Y-73460000D01*
X87499500Y-73460000D02*
X80740000Y-73460000D01*
X87984200Y-73944700D02*
X87499500Y-73460000D01*
X80200000Y-107574000D02*
X80200000Y-108475000D01*
X80724200Y-107050000D02*
X80200000Y-107574000D01*
X81399800Y-107050000D02*
X80724200Y-107050000D01*
X81797000Y-106653000D02*
X81399800Y-107050000D01*
X78339800Y-109767000D02*
X77587300Y-109015000D01*
X79776300Y-109767000D02*
X78339800Y-109767000D01*
X80200000Y-109344000D02*
X79776300Y-109767000D01*
X80200000Y-108475000D02*
X80200000Y-109344000D01*
X103575000Y-109344000D02*
X103575000Y-108475000D01*
X103166000Y-109752000D02*
X103575000Y-109344000D01*
X93647200Y-109752000D02*
X103166000Y-109752000D01*
X92662600Y-108768000D02*
X93647200Y-109752000D01*
X87139900Y-111744000D02*
X87375300Y-111508000D01*
X82691000Y-111744000D02*
X87139900Y-111744000D01*
X81945800Y-110999000D02*
X82691000Y-111744000D01*
X87375300Y-111508000D02*
X87466400Y-111417000D01*
X87375300Y-111508000D02*
X87466400Y-111417000D01*
X88810200Y-111451000D02*
X89375400Y-110886000D01*
X87500300Y-111451000D02*
X88810200Y-111451000D01*
X87466400Y-111417000D02*
X87500300Y-111451000D01*
X76646800Y-96692300D02*
X77012600Y-97058100D01*
X76358200Y-96692300D02*
X76646800Y-96692300D01*
X76212000Y-96546100D02*
X76358200Y-96692300D01*
X65179800Y-96546100D02*
X76212000Y-96546100D01*
X61100000Y-100626000D02*
X65179800Y-96546100D01*
X61100000Y-101500000D02*
X61100000Y-100626000D01*
%TO.N,/SCL*%
X79940000Y-55680000D02*
X80740000Y-55680000D01*
X94833400Y-55680000D02*
X80740000Y-55680000D01*
X98877400Y-59724000D02*
X94833400Y-55680000D01*
X99038700Y-59724000D02*
X98877400Y-59724000D01*
%TO.N,Net-(A1-GPIO7)*%
X79550000Y-100190000D02*
X79550000Y-101475000D01*
X79940000Y-68380000D02*
X80740000Y-68380000D01*
X81012100Y-68652100D02*
X86975000Y-68652100D01*
X80740000Y-68380000D02*
X81012100Y-68652100D01*
X79953200Y-100190000D02*
X80761600Y-99381300D01*
X79550000Y-100190000D02*
X79953200Y-100190000D01*
X87526300Y-99351600D02*
X87893000Y-99718300D01*
X80791300Y-99351600D02*
X87526300Y-99351600D01*
X80761600Y-99381300D02*
X80791300Y-99351600D01*
X80761600Y-99381300D02*
X80791300Y-99351600D01*
X102925000Y-102344000D02*
X102925000Y-101475000D01*
X102540000Y-102728000D02*
X102925000Y-102344000D01*
X101360000Y-102728000D02*
X102540000Y-102728000D01*
X100359000Y-101728000D02*
X101360000Y-102728000D01*
X89902400Y-101728000D02*
X100359000Y-101728000D01*
X87893000Y-99718300D02*
X89902400Y-101728000D01*
X78357300Y-100190000D02*
X79550000Y-100190000D01*
X77292400Y-101255000D02*
X78357300Y-100190000D01*
X75922100Y-101255000D02*
X77292400Y-101255000D01*
X75614500Y-101562000D02*
X75922100Y-101255000D01*
X68218200Y-101562000D02*
X75614500Y-101562000D01*
X65682000Y-104098000D02*
X68218200Y-101562000D01*
X65282800Y-104098000D02*
X65682000Y-104098000D01*
X61750000Y-107631000D02*
X65282800Y-104098000D01*
X61750000Y-108500000D02*
X61750000Y-107631000D01*
%TO.N,Net-(A1-GPIO22)*%
X61360000Y-73460000D02*
X62160000Y-73460000D01*
%TO.N,/SDA*%
X79940000Y-53140000D02*
X80740000Y-53140000D01*
X81066600Y-53466600D02*
X80740000Y-53140000D01*
X94200200Y-53466600D02*
X81066600Y-53466600D01*
X100125000Y-59391300D02*
X94200200Y-53466600D01*
X102208000Y-59391300D02*
X100125000Y-59391300D01*
X102783000Y-59966500D02*
X102208000Y-59391300D01*
X102783000Y-60475300D02*
X102783000Y-59966500D01*
X101076000Y-62182000D02*
X102783000Y-60475300D01*
%TO.N,Net-(A1-GPIO0)*%
X79940000Y-45520000D02*
X80740000Y-45520000D01*
X87009600Y-45520000D02*
X80740000Y-45520000D01*
X100165000Y-58675000D02*
X87009600Y-45520000D01*
X107200000Y-58675000D02*
X100165000Y-58675000D01*
X107200000Y-64125000D02*
X107200000Y-58675000D01*
X107200000Y-58675000D02*
X113525000Y-58675000D01*
%TO.N,Net-(A1-GPIO16)*%
X62160000Y-93780000D02*
X61360000Y-93780000D01*
X56629200Y-103832000D02*
X61288800Y-103832000D01*
%TO.N,Net-(A1-GPIO19)*%
X61360000Y-83620000D02*
X62160000Y-83620000D01*
%TO.N,Net-(A1-GPIO11)*%
X80740000Y-81080000D02*
X79940000Y-81080000D01*
X55202700Y-101547000D02*
X55250000Y-101500000D01*
X47266900Y-101547000D02*
X55202700Y-101547000D01*
X44254300Y-98534700D02*
X47266900Y-101547000D01*
X44254300Y-88295400D02*
X44254300Y-98534700D01*
X47825000Y-84724700D02*
X44254300Y-88295400D01*
X63644700Y-84724700D02*
X47825000Y-84724700D01*
X63811000Y-84558400D02*
X63644700Y-84724700D01*
X63811000Y-84558400D02*
X63644700Y-84724700D01*
X67289400Y-81080000D02*
X79940000Y-81080000D01*
X63811000Y-84558400D02*
X67289400Y-81080000D01*
%TO.N,Net-(A1-GPIO10)*%
X79940000Y-78540000D02*
X80740000Y-78540000D01*
X110019000Y-107881000D02*
X110019000Y-106996000D01*
X109425000Y-108475000D02*
X110019000Y-107881000D01*
X106495000Y-78540000D02*
X80740000Y-78540000D01*
X109025000Y-81069800D02*
X106495000Y-78540000D01*
%TO.N,/DOUT*%
X80740000Y-58220000D02*
X79940000Y-58220000D01*
X78258300Y-59901700D02*
X79940000Y-58220000D01*
X72770900Y-59901700D02*
X78258300Y-59901700D01*
X72513000Y-59643800D02*
X72770900Y-59901700D01*
X49399800Y-59643800D02*
X72513000Y-59643800D01*
X43432700Y-65610900D02*
X49399800Y-59643800D01*
X43432700Y-72329500D02*
X43432700Y-65610900D01*
X43815500Y-72712300D02*
X43432700Y-72329500D01*
X44832700Y-72712300D02*
X43815500Y-72712300D01*
X45565000Y-71980000D02*
X44832700Y-72712300D01*
%TO.N,Net-(A1-GPIO17)*%
X61360000Y-91240000D02*
X62160000Y-91240000D01*
X86050000Y-107597000D02*
X86050000Y-108475000D01*
X83908000Y-105455000D02*
X86050000Y-107597000D01*
X82934500Y-105455000D02*
X83908000Y-105455000D01*
X80975600Y-103496000D02*
X82934500Y-105455000D01*
X67766500Y-103496000D02*
X80975600Y-103496000D01*
X63754000Y-107509000D02*
X67766500Y-103496000D01*
%TO.N,Net-(A1-GPIO21)*%
X61360000Y-78540000D02*
X62160000Y-78540000D01*
X68770600Y-158575000D02*
X114525000Y-158575000D01*
X62975000Y-152779000D02*
X68770600Y-158575000D01*
%TO.N,GND*%
X91555000Y-138590000D02*
X91555000Y-138780000D01*
X93145900Y-136999000D02*
X91555000Y-138590000D01*
X94075000Y-136999000D02*
X93145900Y-136999000D01*
X94075000Y-135500000D02*
X94075000Y-136999000D01*
X44069800Y-71265200D02*
X45555000Y-69780000D01*
X44069800Y-72107300D02*
X44069800Y-71265200D01*
X116754000Y-54178700D02*
X116975000Y-54178700D01*
X114575000Y-52000000D02*
X116754000Y-54178700D01*
X80740000Y-76000000D02*
X79940000Y-76000000D01*
X80740000Y-63300000D02*
X79940000Y-63300000D01*
X98636600Y-136999000D02*
X100625000Y-138988000D01*
X94075000Y-136999000D02*
X98636600Y-136999000D01*
X62160000Y-88700000D02*
X61360000Y-88700000D01*
X84730000Y-137840000D02*
X85314700Y-138425000D01*
X85670000Y-138780000D02*
X91555000Y-138780000D01*
X85314700Y-138425000D02*
X85670000Y-138780000D01*
X68555000Y-138020000D02*
X68555000Y-138780000D01*
X71075000Y-135500000D02*
X68555000Y-138020000D01*
X91555000Y-69020000D02*
X91555000Y-69780000D01*
X94075000Y-66500000D02*
X91555000Y-69020000D01*
X100832000Y-92780000D02*
X100625000Y-92987500D01*
X114555000Y-92780000D02*
X100832000Y-92780000D01*
X94075000Y-91316900D02*
X94075000Y-89500000D01*
X71075000Y-66500000D02*
X71075000Y-67529900D01*
X70654200Y-67529900D02*
X71075000Y-67529900D01*
X68555000Y-69629100D02*
X70654200Y-67529900D01*
X68555000Y-69780000D02*
X68555000Y-69629100D01*
X114555000Y-92590000D02*
X114555000Y-92780000D01*
X115823000Y-91321600D02*
X114555000Y-92590000D01*
X117075000Y-91321600D02*
X115823000Y-91321600D01*
X117075000Y-89500000D02*
X117075000Y-91321600D01*
X121959000Y-91321600D02*
X117075000Y-91321600D01*
X123625000Y-92987500D02*
X121959000Y-91321600D01*
X45555000Y-92020000D02*
X48075000Y-89500000D01*
X45555000Y-92780000D02*
X45555000Y-92020000D01*
X117341000Y-112766000D02*
X117075000Y-112500000D01*
X49494200Y-106188000D02*
X48978900Y-106703000D01*
X51200000Y-106188000D02*
X49494200Y-106188000D01*
X92828100Y-91316900D02*
X94075000Y-91316900D01*
X91555000Y-92590000D02*
X92828100Y-91316900D01*
X91555000Y-92780000D02*
X91555000Y-92590000D01*
X100832000Y-138780000D02*
X100625000Y-138988000D01*
X114555000Y-138780000D02*
X100832000Y-138780000D01*
X85991400Y-148820000D02*
X83975000Y-146804000D01*
X100450000Y-148820000D02*
X85991400Y-148820000D01*
X80740000Y-88700000D02*
X79940000Y-88700000D01*
X45555000Y-138535000D02*
X48332700Y-135758000D01*
X45555000Y-138780000D02*
X45555000Y-138535000D01*
X48332700Y-135758000D02*
X48075000Y-135500000D01*
X45555000Y-115020000D02*
X48075000Y-112500000D01*
X45555000Y-115780000D02*
X45555000Y-115020000D01*
X49785900Y-137211000D02*
X48332700Y-135758000D01*
X52848400Y-137211000D02*
X49785900Y-137211000D01*
X53736700Y-138099000D02*
X52848400Y-137211000D01*
X53944200Y-138099000D02*
X53736700Y-138099000D01*
X54625000Y-138780000D02*
X53944200Y-138099000D01*
X54625000Y-138780000D02*
X68555000Y-138780000D01*
X54625000Y-138988000D02*
X54625000Y-138780000D01*
X114555000Y-69020000D02*
X114555000Y-69780000D01*
X105992000Y-69020000D02*
X105325000Y-68353400D01*
X114555000Y-69020000D02*
X105992000Y-69020000D01*
X105325000Y-65075000D02*
X105325000Y-68353400D01*
X49577600Y-68002600D02*
X48075000Y-66500000D01*
X52640100Y-68002600D02*
X49577600Y-68002600D01*
X54625000Y-69987500D02*
X52640100Y-68002600D01*
X117075000Y-136956000D02*
X117075000Y-135500000D01*
X114555000Y-138609000D02*
X114555000Y-138780000D01*
X116207000Y-136956000D02*
X114555000Y-138609000D01*
X117075000Y-136956000D02*
X116207000Y-136956000D01*
X62160000Y-76000000D02*
X61360000Y-76000000D01*
X46922400Y-76347400D02*
X45575000Y-75000000D01*
X61012600Y-76347400D02*
X46922400Y-76347400D01*
X61360000Y-76000000D02*
X61012600Y-76347400D01*
X99847400Y-70765100D02*
X100625000Y-69987500D01*
X99847400Y-72236300D02*
X99847400Y-70765100D01*
X100164000Y-72552600D02*
X99847400Y-72236300D01*
X101126000Y-72552600D02*
X100164000Y-72552600D01*
X105325000Y-68353400D02*
X101126000Y-72552600D01*
X91659600Y-97915400D02*
X93947000Y-97915400D01*
X91575000Y-98000000D02*
X91659600Y-97915400D01*
X49034300Y-88540700D02*
X49034300Y-88439300D01*
X48075000Y-89500000D02*
X49034300Y-88540700D01*
X49034300Y-88439300D02*
X48075900Y-87480900D01*
X69767200Y-121000000D02*
X68575000Y-121000000D01*
X71744700Y-122978000D02*
X69767200Y-121000000D01*
X71075000Y-112500000D02*
X72273300Y-112500000D01*
X98954400Y-91316900D02*
X94075000Y-91316900D01*
X100625000Y-92987500D02*
X98954400Y-91316900D01*
X49850400Y-91275400D02*
X48075000Y-89500000D01*
X52912900Y-91275400D02*
X49850400Y-91275400D01*
X54625000Y-92987500D02*
X52912900Y-91275400D01*
X49287700Y-88185900D02*
X49034300Y-88439300D01*
X60845900Y-88185900D02*
X49287700Y-88185900D01*
X61360000Y-88700000D02*
X60845900Y-88185900D01*
X109780000Y-148820000D02*
X100450000Y-148820000D01*
X114525000Y-144075000D02*
X109780000Y-148820000D01*
X115258000Y-68316900D02*
X120877000Y-68316900D01*
X114555000Y-69020000D02*
X115258000Y-68316900D01*
X118377000Y-65198300D02*
X117075000Y-66500000D01*
X120114000Y-65198300D02*
X118377000Y-65198300D01*
X120877000Y-65960700D02*
X120114000Y-65198300D01*
X120877000Y-68316900D02*
X120877000Y-65960700D01*
X121954000Y-68316900D02*
X120877000Y-68316900D01*
X123625000Y-69987500D02*
X121954000Y-68316900D01*
X114555000Y-115552000D02*
X114555000Y-115780000D01*
X117341000Y-112766000D02*
X114555000Y-115552000D01*
X83975000Y-50600000D02*
X83973400Y-50600000D01*
X68555000Y-113802000D02*
X68555000Y-115780000D01*
X69773300Y-113802000D02*
X68555000Y-113802000D01*
X71075000Y-112500000D02*
X69773300Y-113802000D01*
X44336900Y-139998000D02*
X45555000Y-138780000D01*
X44336900Y-142762000D02*
X44336900Y-139998000D01*
X45575000Y-144000000D02*
X44336900Y-142762000D01*
X91555000Y-115590000D02*
X91555000Y-115780000D01*
X92933100Y-114212000D02*
X91555000Y-115590000D01*
X94075000Y-114212000D02*
X92933100Y-114212000D01*
X94075000Y-114212000D02*
X94075000Y-112500000D01*
X71075000Y-67159100D02*
X71075000Y-67529900D01*
X73035800Y-65198300D02*
X71075000Y-67159100D01*
X74114300Y-65198300D02*
X73035800Y-65198300D01*
X77625000Y-68709000D02*
X74114300Y-65198300D01*
X77625000Y-69780000D02*
X77625000Y-68709000D01*
X91555000Y-69780000D02*
X77625000Y-69780000D01*
X77625000Y-69987500D02*
X77625000Y-69780000D01*
X99887500Y-108475000D02*
X97300000Y-105888000D01*
X102275000Y-108475000D02*
X99887500Y-108475000D01*
X97300000Y-105888000D02*
X97094100Y-105682000D01*
X96777200Y-105365000D02*
X93659300Y-105365000D01*
X97094100Y-105682000D02*
X96777200Y-105365000D01*
X98077600Y-104698000D02*
X98077600Y-103605000D01*
X97094100Y-105682000D02*
X98077600Y-104698000D01*
X72273300Y-111632000D02*
X72273300Y-112500000D01*
X75491900Y-108413000D02*
X72273300Y-111632000D01*
X103575000Y-102344000D02*
X103575000Y-101475000D01*
X102789000Y-103130000D02*
X103575000Y-102344000D01*
X98552200Y-103130000D02*
X102789000Y-103130000D01*
X98077600Y-103605000D02*
X98552200Y-103130000D01*
X65900000Y-98000000D02*
X68575000Y-98000000D01*
X62400000Y-101500000D02*
X65900000Y-98000000D01*
X78838200Y-108413000D02*
X75491900Y-108413000D01*
X78900000Y-108475000D02*
X78838200Y-108413000D01*
X67450000Y-113802000D02*
X68555000Y-113802000D01*
X64016400Y-110368000D02*
X67450000Y-113802000D01*
X62037400Y-110368000D02*
X64016400Y-110368000D01*
X61100000Y-109431000D02*
X62037400Y-110368000D01*
X61100000Y-108500000D02*
X61100000Y-109431000D01*
X96602400Y-102129000D02*
X98077600Y-103605000D01*
X89453000Y-102129000D02*
X96602400Y-102129000D01*
X87130300Y-99806700D02*
X89453000Y-102129000D01*
X80941500Y-99806700D02*
X87130300Y-99806700D01*
X80200000Y-100548000D02*
X80941500Y-99806700D01*
X80200000Y-101475000D02*
X80200000Y-100548000D01*
X77625000Y-115988000D02*
X77625200Y-115988000D01*
X77625000Y-115988000D02*
X77625200Y-115988000D01*
X75663200Y-114026000D02*
X77625000Y-115988000D01*
X73259800Y-114026000D02*
X75663200Y-114026000D01*
X72273300Y-113039000D02*
X73259800Y-114026000D01*
X72273300Y-112500000D02*
X72273300Y-113039000D01*
X77832500Y-115780000D02*
X91555000Y-115780000D01*
X77625200Y-115988000D02*
X77832500Y-115780000D01*
X80740000Y-50600000D02*
X79940000Y-50600000D01*
X74125000Y-107046000D02*
X75491900Y-108413000D01*
X74125000Y-106062000D02*
X74125000Y-107046000D01*
X49376700Y-111198000D02*
X48075000Y-112500000D01*
X51114300Y-111198000D02*
X49376700Y-111198000D01*
X54625000Y-114709000D02*
X51114300Y-111198000D01*
X54625000Y-115988000D02*
X54625000Y-114709000D01*
X100832000Y-115780000D02*
X100625000Y-115988000D01*
X114555000Y-115780000D02*
X100832000Y-115780000D01*
X98849400Y-114212000D02*
X94075000Y-114212000D01*
X100625000Y-115988000D02*
X98849400Y-114212000D01*
X121594000Y-136956000D02*
X117075000Y-136956000D01*
X123625000Y-138988000D02*
X121594000Y-136956000D01*
X77625100Y-138988000D02*
X77625300Y-138988000D01*
X77625000Y-138988000D02*
X77625100Y-138988000D01*
X78187800Y-138425000D02*
X77625300Y-138988000D01*
X85314700Y-138425000D02*
X78187800Y-138425000D01*
X77625300Y-138988000D02*
X77625000Y-138988000D01*
X121848000Y-114211000D02*
X123625000Y-115988000D01*
X118786000Y-114211000D02*
X121848000Y-114211000D01*
X117341000Y-112766000D02*
X118786000Y-114211000D01*
X83975000Y-50600000D02*
X79940000Y-50600000D01*
X79940000Y-89682000D02*
X79940000Y-88700000D01*
X77625000Y-91997000D02*
X79940000Y-89682000D01*
X77625000Y-92987500D02*
X77625000Y-91997000D01*
X90175000Y-50600000D02*
X83975000Y-50600000D01*
X91575000Y-52000000D02*
X90175000Y-50600000D01*
%TO.N,Net-(A1-GPIO18)*%
X62160000Y-86160000D02*
X61360000Y-86160000D01*
X47240500Y-86160000D02*
X45762500Y-87638000D01*
X61360000Y-86160000D02*
X47240500Y-86160000D01*
%TD*%
M02*
